<svg width="259" height="21" viewBox="0 0 259 21" fill="none" xmlns="http://www.w3.org/2000/svg">
<path d="M7.71094 4.09375V2.92188H12.5156V1.67969H1.40625V2.92188H6.28125V4.11719C6.25781 7.1875 3.90234 9.83594 0.914062 10.9375L1.71094 12.0859C4.13672 11.1719 6.14062 9.27344 7.00781 6.82422C7.875 9.05078 9.77344 10.8086 12.1406 11.6641L12.8906 10.4922C9.92578 9.46094 7.72266 6.95312 7.71094 4.09375ZM3.58594 15.0156H15.5391V20.8281H17.0156V13.7734H3.58594V15.0156ZM15.5391 12.6016H17.0156V7.04688H20.2031V5.75781H17.0156V0.15625H15.5391V12.6016ZM28.5234 3.55469V1.35156H27.0938V3.60156C27.0703 6.89453 24.75 9.63672 21.7031 10.75L22.5 11.9688C24.9844 10.9844 26.9883 9.00391 27.8438 6.41406C28.7227 8.69922 30.6445 10.457 32.9531 11.3359L33.7969 10.1875C30.8438 9.15625 28.5117 6.55469 28.5234 3.55469ZM25.0547 16.9375C25.0312 19.375 27.6328 20.7578 31.8984 20.7578C36.1641 20.7578 38.7656 19.375 38.7656 16.9375C38.7656 14.4766 36.1641 13.0586 31.8984 13.0469C27.6328 13.0586 25.0312 14.4766 25.0547 16.9375ZM26.5078 16.9375C26.4844 15.2852 28.5938 14.2539 31.8984 14.2656C35.2031 14.2539 37.3125 15.2852 37.3125 16.9375C37.3125 18.543 35.2031 19.5508 31.8984 19.5625C28.5938 19.5508 26.4844 18.543 26.5078 16.9375ZM32.3906 6.01562H37.2188V12.4375H38.6953V0.15625H37.2188V4.77344H32.3906V6.01562ZM48.2344 0.953125C45.1523 0.964844 42.9258 2.81641 42.9375 5.5C42.9258 8.18359 45.1523 10.0117 48.2344 10.0234C51.3164 10.0117 53.543 8.18359 53.5547 5.5C53.543 2.81641 51.3164 0.964844 48.2344 0.953125ZM44.3906 5.5C44.3672 3.61328 46.0195 2.20703 48.2344 2.21875C50.4609 2.20703 52.1133 3.61328 52.125 5.5C52.1133 7.41016 50.4609 8.78125 48.2344 8.78125C46.0195 8.78125 44.3672 7.41016 44.3906 5.5ZM46.0781 13.1172H57.9375V15.5312H46.1484V20.5234H60.1875V19.3047H47.5781V16.6797H59.3906V11.8984H46.0781V13.1172ZM57.9141 10.8438H59.3906V0.15625H57.9141V10.8438ZM70.9688 19.1172C71.6484 19.1289 72.2109 18.5547 72.2109 17.875C72.2109 17.1836 71.6484 16.6211 70.9688 16.6094C70.2773 16.6211 69.7031 17.1836 69.7031 17.875C69.7031 18.5547 70.2773 19.1289 70.9688 19.1172ZM69.7031 8.00781C69.7031 8.6875 70.2773 9.26172 70.9688 9.25C71.6484 9.26172 72.2109 8.6875 72.2109 8.00781C72.2109 7.31641 71.6484 6.75391 70.9688 6.74219C70.2773 6.75391 69.7031 7.31641 69.7031 8.00781ZM81.3516 19H92.25V17.5H83.7188V17.3828L87.9375 12.8359C90.8672 9.74219 91.7344 8.3125 91.7344 6.41406C91.7344 3.8125 89.6133 1.79688 86.6719 1.79688C83.6953 1.79688 81.4922 3.8125 81.4922 6.67188H83.0859C83.0859 4.67969 84.4805 3.26172 86.625 3.27344C88.6406 3.26172 90.1641 4.53906 90.1875 6.41406C90.1641 8.01953 89.2617 9.19141 87.0938 11.5703L81.3516 17.7812V19ZM100.828 19.2344C104.438 19.2344 106.547 16.0234 106.547 10.5156C106.547 5.04297 104.414 1.79688 100.828 1.79688C97.2305 1.79688 95.0859 5.04297 95.0859 10.5156C95.0859 16.0234 97.207 19.2344 100.828 19.2344ZM96.7266 10.5156C96.7148 5.92188 98.25 3.26172 100.828 3.27344C103.383 3.26172 104.918 5.92188 104.93 10.5156C104.918 15.1094 103.395 17.7344 100.828 17.7344C98.2383 17.7344 96.7148 15.1094 96.7266 10.5156ZM109.477 19H120.375V17.5H111.844V17.3828L116.062 12.8359C118.992 9.74219 119.859 8.3125 119.859 6.41406C119.859 3.8125 117.738 1.79688 114.797 1.79688C111.82 1.79688 109.617 3.8125 109.617 6.67188H111.211C111.211 4.67969 112.605 3.26172 114.75 3.27344C116.766 3.26172 118.289 4.53906 118.312 6.41406C118.289 8.01953 117.387 9.19141 115.219 11.5703L109.477 17.7812V19ZM123.609 19H134.508V17.5H125.977V17.3828L130.195 12.8359C133.125 9.74219 133.992 8.3125 133.992 6.41406C133.992 3.8125 131.871 1.79688 128.93 1.79688C125.953 1.79688 123.75 3.8125 123.75 6.67188H125.344C125.344 4.67969 126.738 3.26172 128.883 3.27344C130.898 3.26172 132.422 4.53906 132.445 6.41406C132.422 8.01953 131.52 9.19141 129.352 11.5703L123.609 17.7812V19ZM154.031 0.15625H152.555V3.01562H146.32V4.23438H152.555V6.97656H146.32V8.21875H152.555V15.5078H154.031V0.15625ZM138.234 12.2734H139.781C142.781 12.2734 145.605 12.1328 149.086 11.5L148.898 10.2344C145.559 10.8555 142.711 11.0078 139.781 11.0078H139.734V1.72656H138.234V12.2734ZM140.859 20.3359H154.617V19.0938H142.336V14.2188H140.859V20.3359ZM169.617 19.2344C173.227 19.2344 175.336 16.0234 175.336 10.5156C175.336 5.04297 173.203 1.79688 169.617 1.79688C166.02 1.79688 163.875 5.04297 163.875 10.5156C163.875 16.0234 165.996 19.2344 169.617 19.2344ZM165.516 10.5156C165.504 5.92188 167.039 3.26172 169.617 3.27344C172.172 3.26172 173.707 5.92188 173.719 10.5156C173.707 15.1094 172.184 17.7344 169.617 17.7344C167.027 17.7344 165.504 15.1094 165.516 10.5156ZM178.312 19H180.07L187.992 3.60156V2.03125H177.117V3.53125H186.234V3.625L178.312 19ZM206.953 0.15625H205.477V10.0938H201.141V11.125H205.477V12.4141H206.953V0.15625ZM189.984 8.125L190.172 9.29688C191.906 9.29688 193.863 9.28516 195.914 9.21484V12.5078H197.367V9.15625C199.488 9.0625 201.668 8.88672 203.742 8.59375L203.648 7.5625C199.148 8.08984 193.992 8.14844 189.984 8.125ZM191.648 3.71875C191.648 5.65234 193.641 6.80078 196.758 6.78906C199.84 6.80078 201.855 5.65234 201.867 3.71875C201.855 1.77344 199.84 0.601562 196.758 0.601562C193.641 0.601562 191.648 1.77344 191.648 3.71875ZM193.055 3.71875C193.031 2.5 194.508 1.66797 196.758 1.65625C198.984 1.66797 200.461 2.5 200.461 3.71875C200.461 4.91406 198.984 5.75781 196.758 5.73438C194.508 5.75781 193.031 4.91406 193.055 3.71875ZM193.219 14.3125H205.5V16.2344H193.289V20.5703H207.727V19.4219H194.742V17.2891H206.953V13.2109H193.219V14.3125ZM222.703 19.2344C226.312 19.2344 228.422 16.0234 228.422 10.5156C228.422 5.04297 226.289 1.79688 222.703 1.79688C219.105 1.79688 216.961 5.04297 216.961 10.5156C216.961 16.0234 219.082 19.2344 222.703 19.2344ZM218.602 10.5156C218.59 5.92188 220.125 3.26172 222.703 3.27344C225.258 3.26172 226.793 5.92188 226.805 10.5156C226.793 15.1094 225.27 17.7344 222.703 17.7344C220.113 17.7344 218.59 15.1094 218.602 10.5156ZM236.766 2.03125H235.031L230.977 4.70312V6.41406L234.984 3.76562H235.078V19H236.766V2.03125ZM246.562 0.953125C243.48 0.964844 241.254 2.81641 241.266 5.5C241.254 8.18359 243.48 10.0117 246.562 10.0234C249.645 10.0117 251.871 8.18359 251.883 5.5C251.871 2.81641 249.645 0.964844 246.562 0.953125ZM242.719 5.5C242.695 3.61328 244.348 2.20703 246.562 2.21875C248.789 2.20703 250.441 3.61328 250.453 5.5C250.441 7.41016 248.789 8.78125 246.562 8.78125C244.348 8.78125 242.695 7.41016 242.719 5.5ZM244.406 13.1172H256.266V15.5312H244.477V20.5234H258.516V19.3047H245.906V16.6797H257.719V11.8984H244.406V13.1172ZM256.242 10.8438H257.719V0.15625H256.242V10.8438Z" fill="black"/>
</svg>
