<svg width="361" height="37" viewBox="0 0 361 37" fill="none" xmlns="http://www.w3.org/2000/svg">
<path d="M26.7031 0.242188H22.2031V32.2344H26.7031V0.242188ZM0.125 22.8125L2.51562 26.2578C6.24219 24.6934 8.86133 21.4238 10.2852 17.5391C11.7441 21.2129 14.3457 24.2715 17.9844 25.7656L20.4102 22.3203C15.084 20.123 12.4648 14.9023 12.4648 10.2617V9.03125H19.1094V5.44531H12.4297V0.945312H7.96484V5.44531H1.17969V9.03125H8V10.2617C7.98242 15.1309 5.38086 20.5098 0.125 22.8125ZM48.2891 2.5625H33.207V6.14844H43.5605C43.4551 7.09766 43.2441 8.01172 42.9453 8.89062L31.5898 9.27734L32.2227 12.7578L41.1348 12.0723C39.2891 14.3223 36.2656 16.1504 31.5898 17.5742L33.2773 21.0898C44.2812 17.6445 48.2539 11.5449 48.2891 2.5625ZM36.4062 31.7422H58.6953V28.1562H40.9414V21.6172H36.4062V31.7422ZM53.3516 23.5156H57.8516V0.277344H53.3516V23.5156ZM97.2617 0.242188H92.7266V32.3047H97.2617V0.242188ZM71.4219 13.8828C71.4043 20.9141 74.9727 25.3086 79.8945 25.3086C84.7109 25.3086 88.2969 20.9141 88.2969 13.8828C88.2969 6.9043 84.7109 2.49219 79.8945 2.49219C74.9727 2.49219 71.4043 6.9043 71.4219 13.8828ZM75.7461 13.8828C75.7285 9.13672 77.3984 6.53516 79.8945 6.53516C82.3203 6.53516 83.9551 9.13672 83.9727 13.8828C83.9551 18.6465 82.3203 21.248 79.8945 21.2305C77.3984 21.248 75.7285 18.6465 75.7461 13.8828ZM129.078 0.242188H124.824V24.4297H129.078V0.242188ZM102.711 18.875H115.473V12.6875H118.355V23.4102H122.574V0.734375H118.355V9.10156H115.473V2.70312H111.324V7.58984H106.965V2.70312H102.711V18.875ZM106.965 15.2539V11H111.324V15.2539H106.965ZM107.387 31.6719H129.887V28.0859H111.887V21.2305H107.387V31.6719ZM158.785 16.7656H140.715V13.1094H157.801V9.59375H140.715V6.21875H158.539V2.59766H136.145V20.3164H158.785V16.7656ZM132.699 28.5078H161.984V24.8516H132.699V28.5078ZM170.562 26.3984H165.57L163.812 36.418H167.539L170.562 26.3984ZM206.668 0.242188H202.168V23.5508H206.668V13.1445H210.992V9.41797H206.668V0.242188ZM181.496 10.4375C181.479 15.1309 185.363 18.5586 190.285 18.5586C195.189 18.5586 199.004 15.1309 199.004 10.4375C199.004 5.67383 195.189 2.29883 190.285 2.31641C185.363 2.29883 181.479 5.67383 181.496 10.4375ZM185.926 31.6719H207.828V28.0859H190.391V21.0898H185.926V31.6719ZM185.926 10.4375C185.891 7.76562 187.842 6.20117 190.285 6.21875C192.746 6.20117 194.627 7.76562 194.645 10.4375C194.627 13.0391 192.746 14.6562 190.285 14.6562C187.842 14.6562 185.891 13.0391 185.926 10.4375ZM237.641 0.242188H233.211V32.2344H237.641V16.4492H242.352V12.7578H237.641V0.242188ZM212.223 8.60938H231.031V5.02344H223.965V0.734375H219.465V5.02344H212.223V8.60938ZM213.523 18.0312C213.506 22.4961 216.986 25.6426 221.715 25.6602C226.373 25.6426 229.871 22.4961 229.871 18.0312C229.871 13.5664 226.373 10.3848 221.715 10.4023C216.986 10.3848 213.506 13.5664 213.523 18.0312ZM217.812 18.0312C217.812 15.5703 219.447 14.0586 221.715 14.0234C223.947 14.0586 225.582 15.5703 225.582 18.0312C225.582 20.5098 223.947 21.9863 221.715 21.9688C219.447 21.9863 217.812 20.5098 217.812 18.0312ZM260.035 2.84375H244.848V18.418H260.035V15.7109H266.012V23.5508H270.477V0.277344H266.012V5.26953H260.035V2.84375ZM249.172 31.6719H271.145V28.0859H253.707V21.3359H249.172V31.6719ZM249.312 14.9375V6.39453H255.641V14.9375H249.312ZM260.035 12.1602V8.89062H266.012V12.1602H260.035ZM308.797 28.0859H290.938V22.3906H286.438V31.6719H308.797V28.0859ZM282.922 20.4219H312.102V16.8359H299.691V12.3008H295.262V16.8359H282.922V20.4219ZM284.469 10.7539L286.227 14.2695C291.535 13.4609 295.42 11.0527 297.424 7.76562C299.428 11.0703 303.365 13.4082 308.762 14.2695L310.484 10.7539C303.277 9.83984 299.744 6.0957 299.762 2.14062V1.15625H295.191V2.14062C295.174 5.90234 291.518 9.76953 284.469 10.7539ZM329.469 5.12891H323.984V1.12109H319.555V5.12891H314V8.67969H329.469V5.12891ZM314.738 17.7148C314.738 22.1797 317.727 25.3438 321.805 25.3438C325.9 25.3438 328.818 22.1797 328.836 17.7148C328.818 13.2676 325.9 10.1387 321.805 10.1211C317.727 10.1387 314.738 13.2676 314.738 17.7148ZM318.676 17.7148C318.676 15.3066 319.941 13.8477 321.805 13.8477C323.598 13.8477 324.881 15.3066 324.898 17.7148C324.881 20.1582 323.598 21.5469 321.805 21.5469C319.941 21.5469 318.676 20.1582 318.676 17.7148ZM330.664 30.8633H334.848V16.8359H337.449V32.2344H341.703V0.242188H337.449V13.25H334.848V0.875H330.664V30.8633ZM360.723 3.54688H355.309L355.766 21.3711H360.266L360.723 3.54688ZM355.098 26.3633C355.062 27.998 356.398 29.3164 358.051 29.3164C359.615 29.3164 360.969 27.998 360.969 26.3633C360.969 24.7461 359.615 23.4277 358.051 23.4453C356.398 23.4277 355.062 24.7461 355.098 26.3633Z" fill="black"/>
</svg>
