<svg width="490" height="66" viewBox="0 0 490 66" fill="none" xmlns="http://www.w3.org/2000/svg">
<rect width="490" height="66" rx="16" fill="#F4F4F4"/>
<path d="M176.484 22.8594H162.211V30.0547H168.234V32.4922H159.773V34.2969H178.922V32.4922H170.438V30.0547H176.484V22.8594ZM161.906 38.0469H174.328V42.9922H176.578V36.2891H161.906V38.0469ZM164.391 28.2734V24.6172H174.281V28.2734H164.391ZM199.711 33.4531H191.203V31.4609H197.719V29.7266H185.156V27.7578H197.297V22.4844H182.906V24.2422H195.07V26.1172H182.953V31.4609H189V33.4531H180.492V35.2578H199.711V33.4531ZM182.648 38.5156H195.164V42.8281H197.414V36.7344H182.648V38.5156ZM210.82 23.2578C206.426 23.2578 203.074 25.5898 203.086 29.1172C203.074 32.668 206.426 34.9883 210.82 34.9766C215.227 34.9883 218.578 32.668 218.578 29.1172C218.578 25.5898 215.227 23.2578 210.82 23.2578ZM201.258 40.2734H220.477V38.4219H201.258V40.2734ZM205.219 29.1172C205.207 26.6797 207.598 25.0508 210.82 25.0625C214.031 25.0508 216.41 26.6797 216.422 29.1172C216.41 31.5664 214.031 33.1484 210.82 33.1484C207.598 33.1484 205.207 31.5664 205.219 29.1172ZM241.219 38.6094H232.664V34.9297H239.367V33.1016H226.547V30.0312H238.875V23.4688H224.297V25.2969H236.672V28.25H224.344V34.9297H230.461V38.6094H222V40.4844H241.219V38.6094ZM265.5 27.3594H253.336V24.5703H265.289V22.7656H251.109V29.1406H257.062V30.9453H248.602V32.7266H267.75V30.9453H259.289V29.1406H265.5V27.3594ZM250.898 35.9609H263.133V37.6016H250.922V42.7812H265.922V41.0469H253.102V39.1953H265.336V34.2969H250.898V35.9609ZM274.969 23.5625C271.828 23.5742 269.59 26.4336 269.602 30.9219C269.59 35.457 271.828 38.3164 274.969 38.3047C278.109 38.3164 280.348 35.457 280.359 30.9219C280.348 26.4336 278.109 23.5742 274.969 23.5625ZM271.734 30.9219C271.723 27.6289 273.059 25.5664 274.969 25.5547C276.914 25.5664 278.227 27.6289 278.227 30.9219C278.227 34.2617 276.914 36.3125 274.969 36.3125C273.059 36.3125 271.723 34.2617 271.734 30.9219ZM283.477 42.9922H285.703V32.0938H289.078V30.2188H285.703V21.9922H283.477V42.9922ZM306.445 21.9922H304.219V42.9688H306.445V32.2109H309.703V30.3594H306.445V21.9922ZM290.109 37.3672L291.352 39.1016C298.266 35.6914 300.938 30.2656 300.961 24.1953H291.164V26.0469H298.688C298.23 30.9453 295.371 34.7422 290.109 37.3672ZM328.289 21.9922H326.039V42.9922H328.289V21.9922ZM311.039 37.3672L312.211 39.1719C319.418 35.7148 322.031 30.3945 322.031 24.2422H312.047V26.0234H319.781C319.348 30.9219 316.617 34.707 311.039 37.3672Z" fill="black"/>
</svg>
