<svg width="92" height="33" viewBox="0 0 92 33" fill="none" xmlns="http://www.w3.org/2000/svg">
<path d="M26.9492 0.101562H21.8516V32.4453H26.9492V0.101562ZM0.6875 13.8477C0.6875 21.0195 4.36133 25.4844 9.33594 25.4844C14.2402 25.4844 17.8965 21.0195 17.9141 13.8477C17.8965 6.78125 14.2402 2.29883 9.33594 2.31641C4.36133 2.29883 0.6875 6.78125 0.6875 13.8477ZM5.60938 13.8477C5.57422 9.24219 7.06836 6.86914 9.33594 6.88672C11.5332 6.86914 13.0098 9.24219 13.0273 13.8477C13.0098 18.541 11.5332 20.8789 9.33594 20.8789C7.06836 20.8789 5.57422 18.541 5.60938 13.8477ZM58.7656 0.101562H53.9492V24.4648H58.7656V0.101562ZM31.9766 19.0156H44.9141V12.9336H47.3047V23.4102H52.0859V0.558594H47.3047V8.89062H44.9141V2.5625H40.2734V7.30859H36.7578V2.5625H31.9766V19.0156ZM36.6875 31.8477H59.5391V27.8047H41.75V21.2656H36.6875V31.8477ZM36.7578 14.9727V11.1406H40.2734V14.9727H36.7578ZM88.4375 16.5195H70.6133V13.3203H87.418V9.38281H70.6133V6.42969H88.1914V2.35156H65.4453V20.4922H88.4375V16.5195ZM62.0703 28.7539H91.5664V24.6758H62.0703V28.7539Z" fill="black"/>
</svg>
