<svg width="332" height="87" viewBox="0 0 332 87" fill="none" xmlns="http://www.w3.org/2000/svg">
<g filter="url(#filter0_d_203_11)">
<rect x="6" y="4" width="320" height="75" rx="12" fill="#2D2D2D"/>
</g>
<path d="M80.4922 25.3477H76.5547V57.1641H80.4922V25.3477ZM55.0742 38.8828C55.0566 45.791 58.5547 50.1328 63.3711 50.1328C68.1348 50.1328 71.6504 45.791 71.668 38.8828C71.6504 32.0273 68.1348 27.668 63.3711 27.668C58.5547 27.668 55.0566 32.0273 55.0742 38.8828ZM58.8359 38.8828C58.8359 34.0312 60.6816 31.1836 63.3711 31.1836C66.043 31.1836 67.8711 34.0312 67.8711 38.8828C67.8711 43.7695 66.043 46.5996 63.3711 46.6172C60.6816 46.5996 58.8359 43.7695 58.8359 38.8828ZM112.344 25.3477H108.617V49.3945H112.344V25.3477ZM86.3984 43.6992H98.9492V37.4414H102.324V48.4102H106.016V25.9102H102.324V34.2773H98.9492V27.8438H95.3281V32.8711H90.0898V27.8438H86.3984V43.6992ZM90.0898 40.5352V35.8594H95.3281V40.5352H90.0898ZM91.0742 56.4961H113.223V53.332H94.9766V46.1953H91.0742V56.4961ZM142.121 42.0117H123.805V37.8984H141.102V34.8398H123.805V31.0078H141.84V27.8438H119.832V45.1055H142.121V42.0117ZM116.281 53.2617H145.32V50.0625H116.281V53.2617ZM180.828 25.3477H176.926V57.1289H180.828V40.7461H185.715V37.4414H180.828V25.3477ZM157.062 49.6758H172.32V27.9492H168.418V35.8945H160.93V27.9492H157.062V49.6758ZM160.93 46.4766V38.9531H168.418V46.4766H160.93ZM216.09 50.2031H203.434V45.0352H213.383V41.8359H194.398V37.7227H212.645V27.5273H190.426V30.6914H208.777V34.6289H190.496V45.0352H199.566V50.2031H187.051V53.4375H216.09V50.2031ZM243.055 25.3477H239.152V57.0586H243.055V41.0273H247.766V37.7578H243.055V25.3477ZM217.988 48.375L220.203 51.3984C230.768 46.1953 234.635 37.9863 234.652 28.6523H219.711V31.8867H230.68C229.906 39.1289 225.723 44.5078 217.988 48.375ZM275.82 25.3477H271.883V57.1289H275.82V25.3477ZM249.488 48.375L251.527 51.5039C262.654 46.2129 266.328 38.1797 266.328 28.7227H251.105V31.8164H262.355C261.652 39.041 257.82 44.4199 249.488 48.375Z" fill="white"/>
<defs>
<filter id="filter0_d_203_11" x="0" y="0" width="332" height="87" filterUnits="userSpaceOnUse" color-interpolation-filters="sRGB">
<feFlood flood-opacity="0" result="BackgroundImageFix"/>
<feColorMatrix in="SourceAlpha" type="matrix" values="0 0 0 0 0 0 0 0 0 0 0 0 0 0 0 0 0 0 127 0" result="hardAlpha"/>
<feMorphology radius="2" operator="dilate" in="SourceAlpha" result="effect1_dropShadow_203_11"/>
<feOffset dy="2"/>
<feGaussianBlur stdDeviation="2"/>
<feComposite in2="hardAlpha" operator="out"/>
<feColorMatrix type="matrix" values="0 0 0 0 0 0 0 0 0 0 0 0 0 0 0 0 0 0 0.15 0"/>
<feBlend mode="normal" in2="BackgroundImageFix" result="effect1_dropShadow_203_11"/>
<feBlend mode="normal" in="SourceGraphic" in2="effect1_dropShadow_203_11" result="shape"/>
</filter>
</defs>
</svg>
