<svg width="140" height="45" viewBox="0 0 140 45" fill="none" xmlns="http://www.w3.org/2000/svg">
<rect width="140" height="45" fill="white" fill-opacity="0.2"/>
<path d="M30.9531 18.6133V15.625H29.0781V18.6133C29.0684 21.8555 27.2617 25.2246 24.5469 26.5234L25.7188 28.0273C27.7402 26.9824 29.2637 24.8535 30.0352 22.334C30.8066 24.7266 32.3105 26.6992 34.293 27.6953L35.4258 26.2109C32.75 25.0098 30.9531 21.8164 30.9531 18.6133ZM33.4922 21.4844H37.3984V31.6992H39.2344V14.1602H37.3984V19.9805H33.4922V21.4844ZM56.4219 14.1602H54.5664V31.6992H56.4219V14.1602ZM42.9062 27.5H51.3047V15.625H49.4688V20.1172H44.7617V15.625H42.9062V27.5ZM44.7617 25.9766V21.582H49.4688V25.9766H44.7617ZM68.1016 16.6406V15.3125H66.1484V16.6406C66.1387 19.4922 63.1211 22.168 59.8008 22.793L60.6211 24.3359C63.4238 23.7109 65.9922 21.8848 67.1445 19.4336C68.2773 21.8945 70.8457 23.7305 73.6484 24.3359L74.5078 22.793C71.1387 22.1875 68.1016 19.4922 68.1016 16.6406ZM59.2148 29.3555H75.2305V27.8125H59.2148V29.3555ZM97.3984 27.9102H90.2305V23.75H88.3945V27.9102H81.3828V29.4336H97.3984V27.9102ZM81.9297 22.5391L82.75 24.0625C85.5723 23.5059 88.1504 21.7383 89.3027 19.3555C90.4551 21.748 93.0527 23.5059 95.8945 24.0625L96.6953 22.5391C93.3164 21.9727 90.2695 19.375 90.2695 16.6016V15.2734H88.3164V16.6016C88.3066 19.375 85.2988 21.9727 81.9297 22.5391ZM113.648 14.1602H111.871V21.0742H109.703V14.6289H107.965V30.8203H109.703V22.5781H111.871V31.6602H113.648V14.1602ZM98.6094 26.6602L99.6836 27.9492C104.693 25.127 106.217 20.9863 106.227 16.3867H99.3516V17.9102H104.42C104.127 21.4746 102.496 24.4531 98.6094 26.6602Z" fill="black"/>
</svg>
