<svg width="140" height="45" viewBox="0 0 140 45" fill="none" xmlns="http://www.w3.org/2000/svg">
<rect width="140" height="45" fill="white" fill-opacity="0.2"/>
<path d="M59.1367 14.1602H57.2812V31.6992H59.1367V14.1602ZM45.25 21.6016C45.25 25.3809 47.1348 27.7637 49.7812 27.7539C52.3789 27.7637 54.293 25.3809 54.293 21.6016C54.293 17.8613 52.3789 15.4785 49.7812 15.4688C47.1348 15.4785 45.25 17.8613 45.25 21.6016ZM47.0469 21.6016C47.0371 18.8574 48.1504 17.1387 49.7812 17.1289C51.3828 17.1387 52.4961 18.8574 52.4961 21.6016C52.4961 24.3848 51.3828 26.0938 49.7812 26.0938C48.1504 26.0938 47.0371 24.3848 47.0469 21.6016ZM76.8516 14.1602H75.0938V27.4414H76.8516V14.1602ZM62.6719 24.1992H69.5273V20.6641H71.6758V26.8945H73.4336V14.4727H71.6758V19.1602H69.5273V15.5469H67.8086V18.418H64.4297V15.5469H62.6719V24.1992ZM64.4297 22.6953V19.8438H67.8086V22.6953H64.4297ZM65.25 31.2891H77.3594V29.7852H67.0859V25.6445H65.25V31.2891ZM93.4141 23.4766H83.1016V20.9375H92.8672V19.4727H83.1016V17.1094H93.2383V15.6055H81.2266V24.9609H93.4141V23.4766ZM79.2148 29.4531H95.2305V27.9297H79.2148V29.4531Z" fill="black"/>
</svg>
