<svg width="65" height="65" viewBox="0 0 65 65" fill="none" xmlns="http://www.w3.org/2000/svg">
<rect width="65" height="65" fill="#F4F4F4"/>
<path fill-rule="evenodd" clip-rule="evenodd" d="M32 41.7619C37.3914 41.7619 41.7619 37.3914 41.7619 32C41.7619 26.6086 37.3914 22.2381 32 22.2381C26.6086 22.2381 22.2381 26.6086 22.2381 32C22.2381 37.3914 26.6086 41.7619 32 41.7619ZM32 43.7619C38.4959 43.7619 43.7619 38.4959 43.7619 32C43.7619 25.5041 38.4959 20.2381 32 20.2381C25.5041 20.2381 20.2381 25.5041 20.2381 32C20.2381 38.4959 25.5041 43.7619 32 43.7619ZM16 13C14.3431 13 13 14.3431 13 16V48C13 49.6569 14.3431 51 16 51H48C49.6569 51 51 49.6569 51 48V16C51 14.3431 49.6569 13 48 13H16ZM44.6665 22.0476C46.1655 22.0476 47.3808 20.8324 47.3808 19.3333C47.3808 17.8343 46.1655 16.619 44.6665 16.619C43.1674 16.619 41.9522 17.8343 41.9522 19.3333C41.9522 20.8324 43.1674 22.0476 44.6665 22.0476Z" fill="black"/>
</svg>
