<svg width="297" height="18" viewBox="0 0 297 18" fill="none" xmlns="http://www.w3.org/2000/svg">
<path d="M36.9717 3.48242H27.7871V4.43457H35.8145V4.78613C35.8071 6.34619 35.8071 8.16992 35.3164 10.6602L36.4883 10.792C36.957 8.16992 36.957 6.38281 36.9717 4.78613V3.48242ZM26.5273 13.3408H38.3926V12.3887H32.3135V7.73047H31.1855V12.3887H26.5273V13.3408ZM50.5508 2.17871H49.4521V5.45996H47.6797V2.42773H46.5811V9.7666H47.6797V6.41211H49.4521V9.85449H50.5508V2.17871ZM39.5645 9.13672L40.1357 10.001C43.439 8.59473 45.1968 6.24365 45.2041 3.13086H40.0918V4.08301H44.0176C43.7979 6.27295 42.2671 8.03809 39.5645 9.13672ZM41.7617 11.3926H49.4229V15.1865H50.5508V10.4551H41.7617V11.3926ZM68.1289 8.8291H56.2051V9.78125H61.6836V12.4473H62.8262V9.78125H68.1289V8.8291ZM57.7285 14.9082H66.7959V13.9414H58.8857V11.1582H57.7285V14.9082ZM57.7578 7.33496H66.5762V2.80859H57.7578V7.33496ZM58.8857 6.41211V3.7168H65.4336V6.41211H58.8857ZM73.4463 3.11621C71.3882 3.12354 69.9233 4.36865 69.9307 6.17773C69.9233 7.99414 71.3882 9.23193 73.4463 9.23926C75.4897 9.23193 76.9399 7.99414 76.9473 6.17773C76.9399 4.36865 75.4897 3.12354 73.4463 3.11621ZM69.2568 11.3633L69.418 12.3447C71.7617 12.3447 74.9624 12.3301 77.9434 11.7734L77.8555 10.9238C74.9771 11.3486 71.6592 11.3706 69.2568 11.3633ZM71.0586 6.17773C71.0513 4.96924 72.0547 4.12695 73.4463 4.12695C74.8232 4.12695 75.8267 4.96924 75.8193 6.17773C75.8267 7.39355 74.8232 8.22852 73.4463 8.22852C72.0547 8.22852 71.0513 7.39355 71.0586 6.17773ZM78.7197 15.2158H79.8623V2.16406H78.7197V15.2158ZM91.376 3.6875H86.3955V11.6855H91.376V8.03809H93.3535V14.5273H94.4521V2.44238H93.3535V7.08594H91.376V3.6875ZM87.4795 10.7627V4.61035H90.292V10.7627H87.4795ZM95.9609 15.1865H97.0742V2.16406H95.9609V15.1865ZM102.567 2.64746C100.597 2.65479 99.1763 3.84131 99.1836 5.5332C99.1763 7.23242 100.597 8.4043 102.567 8.4043C104.516 8.4043 105.929 7.23242 105.937 5.5332C105.929 3.84131 104.516 2.65479 102.567 2.64746ZM100.312 5.5332C100.297 4.40527 101.256 3.60693 102.567 3.61426C103.856 3.60693 104.823 4.40527 104.823 5.5332C104.823 6.67578 103.856 7.4668 102.567 7.4668C101.256 7.4668 100.297 6.67578 100.312 5.5332ZM101.161 10.4111H108.485V11.7588H101.19V15.0107H110.097V14.0879H102.318V12.623H109.628V9.48828H101.161V10.4111ZM108.485 8.8584H109.628V2.16406H108.485V8.8584ZM116.981 14.0879C117.501 14.0806 117.926 13.6558 117.919 13.1357C117.926 12.623 117.501 12.1982 116.981 12.1982C116.469 12.1982 116.029 12.623 116.044 13.1357C116.029 13.6558 116.469 14.0806 116.981 14.0879ZM116.059 7.24707C116.044 7.76709 116.483 8.19189 116.996 8.19922C117.516 8.19189 117.941 7.76709 117.934 7.24707C117.941 6.73438 117.516 6.30957 116.996 6.30957C116.483 6.30957 116.044 6.73438 116.059 7.24707ZM126.972 14.1611C128.847 14.1611 130.07 13.0259 130.238 11.4805H128.715C128.517 12.3374 127.858 12.8354 126.972 12.8281C125.661 12.8354 124.818 11.7588 124.818 10.0156C124.818 8.32373 125.683 7.25439 126.972 7.24707C127.96 7.25439 128.554 7.87695 128.715 8.62402H130.238C130.07 7.0127 128.759 5.94336 126.942 5.94336C124.701 5.94336 123.244 7.63525 123.251 10.0596C123.244 12.4546 124.65 14.1611 126.972 14.1611ZM136.771 10.6895C136.771 12.0444 135.768 12.6816 134.896 12.6816C133.944 12.6816 133.285 11.9932 133.285 10.9092V6.0459H131.718V11.0996C131.718 13.0698 132.802 14.1025 134.34 14.1025C135.534 14.1025 136.347 13.4727 136.713 12.623H136.801V14H138.324V6.0459H136.771V10.6895ZM143.949 6.0459H142.323V4.1416H140.771V6.0459H139.599V7.29102H140.771V11.9785C140.756 13.4287 141.862 14.1025 143.085 14.1025C143.517 14.1025 143.854 14.0732 144.066 14.0439V12.6816C143.847 12.7036 143.502 12.7256 143.275 12.7256C142.77 12.7183 142.331 12.5571 142.323 11.6562V7.29102H143.949V6.0459ZM146.439 16.9883C147.75 16.981 148.556 16.3145 149.018 15.0547L152.299 6.0459H150.614L148.607 12.2129H148.52L146.513 6.0459H144.843L147.758 14.1025L147.567 14.6299C147.194 15.6333 146.791 15.6626 146.308 15.6699C146.088 15.6626 145.78 15.6553 145.604 15.6406V16.9443C145.802 16.9736 146.117 16.981 146.439 16.9883ZM154.54 16.9883C155.851 16.981 156.657 16.3145 157.118 15.0547L160.399 6.0459H158.715L156.708 12.2129H156.62L154.613 6.0459H152.943L155.858 14.1025L155.668 14.6299C155.294 15.6333 154.892 15.6626 154.408 15.6699C154.188 15.6626 153.881 15.6553 153.705 15.6406V16.9443C153.903 16.9736 154.218 16.981 154.54 16.9883ZM161.059 11.7588C161.051 13.3115 162.23 14.1758 163.739 14.1758C165.058 14.1758 165.79 13.5093 166.098 12.916H166.156V14H167.68V8.71191C167.672 6.40479 165.827 5.94336 164.56 5.94336C162.677 5.94336 161.447 6.89551 161.308 8.21387H162.86C163.021 7.62793 163.578 7.20312 164.501 7.20312C165.563 7.20312 166.12 7.72314 166.112 8.62402L166.12 9.26123C165.753 9.27588 164.56 9.3418 164.032 9.37109C162.597 9.47363 161.051 9.94238 161.059 11.7588ZM162.582 11.7734C162.582 10.9897 163.227 10.6016 164.252 10.5283C164.625 10.5063 165.761 10.4258 166.12 10.4038L166.127 11.1289C166.127 12.0737 165.365 12.9233 164.091 12.9307C163.212 12.9233 162.582 12.5352 162.582 11.7734ZM171.137 9.2832C171.137 8.01611 171.906 7.29102 172.982 7.29102C174.037 7.29102 174.66 7.97949 174.667 9.13672V14H176.22V8.94629C176.227 6.97607 175.143 5.94336 173.51 5.94336C172.323 5.94336 171.54 6.49268 171.166 7.34961H171.078V6.0459H169.569V14H171.137V9.2832ZM181.464 17.1494C183.515 17.1494 185.06 16.2192 185.053 14.1758V6.0459H183.529V7.33496H183.427C183.134 6.83691 182.592 5.94336 181.112 5.94336C179.201 5.94336 177.772 7.40088 177.772 9.94238C177.772 12.4839 179.223 13.8828 181.098 13.8828C182.562 13.8828 183.134 13.0625 183.412 12.5498H183.515V14.1172C183.507 15.355 182.724 15.897 181.479 15.8896C180.446 15.897 179.743 15.5308 179.589 14.7764H177.992C178.131 16.2632 179.457 17.1494 181.464 17.1494ZM179.369 9.97168C179.362 8.44824 180.065 7.26904 181.449 7.27637C182.797 7.26904 183.529 8.36035 183.529 9.97168C183.529 11.6123 182.782 12.5864 181.449 12.5938C180.08 12.5864 179.362 11.5317 179.369 9.97168ZM192.172 12.5645C193.234 12.5645 193.703 11.8394 193.886 11.4658H193.959C194.069 12.1396 194.779 12.623 195.731 12.623C197.292 12.6304 198.441 11.3267 198.441 9.07812C198.449 5.89941 196.068 3.52637 192.597 3.52637C189.162 3.52637 186.73 6.05322 186.737 9.51758C186.737 13.209 188.913 15.5234 192.538 15.5234C193.505 15.5234 194.391 15.3916 195.16 15.1719V14C194.303 14.2344 193.571 14.3149 192.538 14.3223C189.542 14.3442 187.968 12.4253 187.968 9.51758C187.975 6.84424 189.777 4.73486 192.597 4.72754C195.329 4.72754 197.226 6.4707 197.211 9.12207C197.204 10.543 196.662 11.5024 195.834 11.4951C195.395 11.5024 195.182 11.2388 195.16 10.7041V6.60254H193.886V7.48145H193.812C193.629 7.11523 193.183 6.48535 192.172 6.48535C190.795 6.48535 189.704 7.59131 189.696 9.51758C189.704 11.4365 190.758 12.5645 192.172 12.5645ZM191.073 9.50293C191.066 8.47021 191.571 7.69385 192.494 7.68652C193.432 7.69385 193.908 8.41162 193.915 9.50293C193.908 10.6235 193.424 11.356 192.494 11.3633C191.579 11.356 191.066 10.5649 191.073 9.50293ZM201.371 6.0459H199.643L202.089 10.0156L199.628 14H201.342L203.114 11.0264L204.901 14H206.601L204.11 10.0156L206.586 6.0459H204.872L203.114 9.13672L201.371 6.0459ZM211.054 14.1611C213.295 14.1611 214.76 12.5205 214.76 10.0596C214.76 7.58398 213.295 5.94336 211.054 5.94336C208.798 5.94336 207.326 7.58398 207.333 10.0596C207.326 12.5205 208.798 14.1611 211.054 14.1611ZM208.9 10.0596C208.9 8.53613 209.596 7.23975 211.054 7.23242C212.489 7.23975 213.178 8.53613 213.178 10.0596C213.178 11.5757 212.489 12.8574 211.054 12.8574C209.596 12.8574 208.9 11.5757 208.9 10.0596ZM217.221 6.0459H215.492L217.938 10.0156L215.478 14H217.191L218.964 11.0264L220.751 14H222.45L219.96 10.0156L222.436 6.0459H220.722L218.964 9.13672L217.221 6.0459ZM226.903 14.1611C229.145 14.1611 230.609 12.5205 230.609 10.0596C230.609 7.58398 229.145 5.94336 226.903 5.94336C224.647 5.94336 223.175 7.58398 223.183 10.0596C223.175 12.5205 224.647 14.1611 226.903 14.1611ZM224.75 10.0596C224.75 8.53613 225.446 7.23975 226.903 7.23242C228.339 7.23975 229.027 8.53613 229.027 10.0596C229.027 11.5757 228.339 12.8574 226.903 12.8574C225.446 12.8574 224.75 11.5757 224.75 10.0596ZM232.147 14H233.715V9.09277C233.715 8.02344 234.462 7.29102 235.341 7.29102C236.198 7.29102 236.791 7.85498 236.791 8.72656V14H238.344V8.93164C238.344 7.97949 238.922 7.29102 239.926 7.29102C240.746 7.29102 241.42 7.73779 241.42 8.81445V14H242.987V8.66797C242.98 6.84424 241.962 5.94336 240.526 5.94336C239.376 5.94336 238.512 6.49268 238.139 7.34961H238.051C237.714 6.46338 236.974 5.94336 235.912 5.94336C234.865 5.94336 234.081 6.46338 233.744 7.34961H233.656V6.0459H232.147V14ZM244.511 11.7588C244.503 13.3115 245.683 14.1758 247.191 14.1758C248.51 14.1758 249.242 13.5093 249.55 12.916H249.608V14H251.132V8.71191C251.125 6.40479 249.279 5.94336 248.012 5.94336C246.129 5.94336 244.899 6.89551 244.76 8.21387H246.312C246.474 7.62793 247.03 7.20312 247.953 7.20312C249.015 7.20312 249.572 7.72314 249.564 8.62402L249.572 9.26123C249.206 9.27588 248.012 9.3418 247.484 9.37109C246.049 9.47363 244.503 9.94238 244.511 11.7588ZM246.034 11.7734C246.034 10.9897 246.679 10.6016 247.704 10.5283C248.078 10.5063 249.213 10.4258 249.572 10.4038L249.579 11.1289C249.579 12.0737 248.817 12.9233 247.543 12.9307C246.664 12.9233 246.034 12.5352 246.034 11.7734ZM253.021 14H254.589V9.15137C254.589 8.11133 255.395 7.35693 256.479 7.36426C256.801 7.35693 257.167 7.42285 257.299 7.45215V5.95801C257.138 5.94336 256.83 5.92139 256.64 5.92871C255.709 5.92139 254.911 6.45605 254.618 7.30566H254.53V6.0459H253.021V14ZM258.471 14H260.038V11.1729L260.792 10.4258L263.495 14H265.414L261.979 9.45898L265.194 6.0459H263.319L260.17 9.40039H260.038V3.39453H258.471V14ZM269.516 14.1611C271.266 14.1611 272.489 13.2969 272.841 12.0078H271.259C270.995 12.4912 270.417 12.8721 269.53 12.8721C268.227 12.8721 267.333 12.0151 267.289 10.499H272.943V9.94238C272.943 7.06396 271.222 5.94336 269.413 5.94336C267.194 5.94336 265.729 7.62793 265.736 10.0742C265.729 12.5425 267.172 14.1611 269.516 14.1611ZM267.296 9.32715C267.362 8.20654 268.175 7.2251 269.428 7.23242C270.622 7.2251 271.405 8.11865 271.405 9.32715H267.296ZM278.217 6.0459H276.591V4.1416H275.038V6.0459H273.866V7.29102H275.038V11.9785C275.023 13.4287 276.129 14.1025 277.353 14.1025C277.785 14.1025 278.122 14.0732 278.334 14.0439V12.6816C278.114 12.7036 277.77 12.7256 277.543 12.7256C277.038 12.7183 276.598 12.5571 276.591 11.6562V7.29102H278.217V6.0459ZM280.766 14.1025C281.33 14.0952 281.798 13.6338 281.806 13.0625C281.798 12.4912 281.33 12.0225 280.766 12.0225C280.194 12.0225 279.718 12.4912 279.726 13.0625C279.718 13.6338 280.194 14.0952 280.766 14.1025ZM283.695 14H285.263V11.1729L286.017 10.4258L288.72 14H290.639L287.204 9.45898L290.419 6.0459H288.544L285.395 9.40039H285.263V3.39453H283.695V14ZM291.649 14H293.217V9.15137C293.217 8.11133 294.022 7.35693 295.106 7.36426C295.429 7.35693 295.795 7.42285 295.927 7.45215V5.95801C295.766 5.94336 295.458 5.92139 295.268 5.92871C294.337 5.92139 293.539 6.45605 293.246 7.30566H293.158V6.0459H291.649V14Z" fill="black"/>
<path fill-rule="evenodd" clip-rule="evenodd" d="M0.0602264 4.51094L8.34359 8.83269C9.06818 9.21074 9.93182 9.21074 10.6564 8.83269L18.9398 4.51094C18.7216 3.64278 17.9359 3 17 3H2C1.06415 3 0.27842 3.64278 0.0602264 4.51094ZM19 5.60744L11.119 9.71928C10.1045 10.2485 8.89546 10.2485 7.88102 9.71928L0 5.60744V13C0 14.1046 0.895431 15 2 15H17C18.1046 15 19 14.1046 19 13V5.60744Z" fill="black"/>
</svg>
