<svg width="307" height="18" viewBox="0 0 307 18" fill="none" xmlns="http://www.w3.org/2000/svg">
<path d="M37.6602 2.16406H36.5615V15.1865H37.6602V2.16406ZM26.3662 11.7148L27.0986 12.5791C28.4023 11.7661 29.3472 10.2354 29.8159 8.44092C30.27 10.0962 31.1782 11.5024 32.46 12.2715L33.1631 11.4219C31.3687 10.3818 30.3506 8.1333 30.3506 5.88477V4.6543H32.7383V3.70215H26.7324V4.6543H29.2373V5.88477C29.2446 8.25049 28.1826 10.6309 26.3662 11.7148ZM31.7422 7.80371H33.9395V14.5127H35.0234V2.48633H33.9395V6.86621H31.7422V7.80371ZM49.6719 2.16406H48.5293V11.7734H49.6719V7.10059H51.6348V6.13379H49.6719V2.16406ZM39.7402 6.29492C39.7329 8.17725 41.2124 9.50293 43.1533 9.50293C45.1089 9.50293 46.5664 8.17725 46.5811 6.29492C46.5664 4.40527 45.1089 3.09424 43.1533 3.08691C41.2124 3.09424 39.7329 4.40527 39.7402 6.29492ZM40.8682 6.29492C40.8608 5.00586 41.8643 4.09766 43.1533 4.09766C44.4644 4.09766 45.4458 5.00586 45.4531 6.29492C45.4458 7.57666 44.4644 8.49219 43.1533 8.49219C41.8643 8.49219 40.8608 7.57666 40.8682 6.29492ZM41.5273 14.9082H50.2725V13.9414H42.6553V10.7773H41.5273V14.9082ZM61.6836 3.6875H56.7031V11.6855H61.6836V8.03809H63.6611V14.5273H64.7598V2.44238H63.6611V7.08594H61.6836V3.6875ZM57.7871 10.7627V4.61035H60.5996V10.7627H57.7871ZM66.2686 15.1865H67.3818V2.16406H66.2686V15.1865ZM72.875 2.64746C70.9048 2.65479 69.4839 3.84131 69.4912 5.5332C69.4839 7.23242 70.9048 8.4043 72.875 8.4043C74.8232 8.4043 76.2368 7.23242 76.2441 5.5332C76.2368 3.84131 74.8232 2.65479 72.875 2.64746ZM70.6191 5.5332C70.6045 4.40527 71.564 3.60693 72.875 3.61426C74.1641 3.60693 75.1309 4.40527 75.1309 5.5332C75.1309 6.67578 74.1641 7.4668 72.875 7.4668C71.564 7.4668 70.6045 6.67578 70.6191 5.5332ZM71.4688 10.4111H78.793V11.7588H71.498V15.0107H80.4043V14.0879H72.626V12.623H79.9355V9.48828H71.4688V10.4111ZM78.793 8.8584H79.9355V2.16406H78.793V8.8584ZM92.709 3.01367H86.6006V8.31641H92.709V3.01367ZM87.5381 14.249L87.9482 15.1426C89.9111 14.8716 91.7422 13.978 92.5259 12.7476C93.3022 13.9487 95.0894 14.8716 97.0449 15.1426L97.4404 14.249C95.2065 13.9707 93.1118 12.7036 93.1191 11.4365H96.9863V10.543H93.0898V9.26855H91.9473V10.543H88.0801V11.4365H91.9326C91.9326 12.7329 89.7793 14 87.5381 14.249ZM87.7285 7.4082V3.95117H91.5811V7.4082H87.7285ZM95.5215 9.64941H96.6494V2.16406H95.5215V9.64941ZM106.376 14.1611C108.141 14.1685 109.313 13.0771 109.511 11.6562H108.251C108.031 12.5278 107.313 13.0332 106.376 13.0332C104.933 13.0332 104.01 11.854 104.003 10.0156C104.01 8.22852 104.955 7.05664 106.376 7.05664C107.438 7.05664 108.068 7.72314 108.251 8.44824H109.511C109.313 6.94678 108.039 5.94336 106.347 5.94336C104.186 5.94336 102.743 7.64258 102.743 10.0596C102.743 12.4473 104.12 14.1685 106.376 14.1611ZM114.315 14.1611C116.476 14.1685 117.926 12.5278 117.919 10.0596C117.926 7.57666 116.476 5.94336 114.315 5.94336C112.147 5.94336 110.683 7.57666 110.683 10.0596C110.683 12.5278 112.147 14.1685 114.315 14.1611ZM111.942 10.0596C111.95 8.47754 112.697 7.05664 114.315 7.05664C115.919 7.05664 116.659 8.47754 116.659 10.0596C116.659 11.6489 115.919 13.0479 114.315 13.0479C112.697 13.0479 111.95 11.6489 111.942 10.0596ZM120.834 9.22461C120.834 7.84766 121.684 7.07129 122.841 7.07129C123.969 7.07129 124.643 7.80371 124.643 9.03418V14H125.902V8.94629C125.91 6.9248 124.833 5.94336 123.222 5.94336C122.013 5.94336 121.266 6.47803 120.893 7.29102H120.79V6.0459H119.574V14H120.834V9.22461ZM131.396 6.0459H129.726V4.1416H128.451V6.0459H127.25V7.10059H128.451V12.0371C128.458 13.4434 129.572 14.1025 130.634 14.1025C131.007 14.1025 131.315 14.0732 131.513 14.0439V12.8721C131.33 12.8794 130.993 12.9014 130.766 12.9014C130.231 12.9014 129.718 12.7329 129.726 11.7148V7.10059H131.396V6.0459ZM132.641 11.7441C132.641 13.2969 133.842 14.1831 135.351 14.1904C136.735 14.1831 137.46 13.4507 137.724 12.916H137.782V14H139.027V8.75586C139.035 6.25098 137.079 5.94336 136.039 5.94336C134.281 5.94336 133.036 6.82959 132.875 8.11133H134.193C134.369 7.50342 134.977 7.04199 135.98 7.04199C137.182 7.04199 137.782 7.62793 137.782 8.63867V9.2832C137.423 9.29053 136.142 9.36377 135.629 9.40039C134.252 9.50293 132.641 9.92041 132.641 11.7441ZM133.9 11.8027C133.908 10.9312 134.633 10.5283 135.775 10.4551C136.156 10.4331 137.409 10.3379 137.782 10.3159V11.1143C137.782 12.1177 136.991 13.0698 135.57 13.0625C134.604 13.0698 133.908 12.645 133.9 11.8027ZM144.301 14.1611C146.066 14.1685 147.238 13.0771 147.436 11.6562H146.176C145.956 12.5278 145.238 13.0332 144.301 13.0332C142.858 13.0332 141.935 11.854 141.928 10.0156C141.935 8.22852 142.88 7.05664 144.301 7.05664C145.363 7.05664 145.993 7.72314 146.176 8.44824H147.436C147.238 6.94678 145.963 5.94336 144.271 5.94336C142.111 5.94336 140.668 7.64258 140.668 10.0596C140.668 12.4473 142.045 14.1685 144.301 14.1611ZM152.46 6.0459H150.79V4.1416H149.516V6.0459H148.314V7.10059H149.516V12.0371C149.523 13.4434 150.636 14.1025 151.698 14.1025C152.072 14.1025 152.379 14.0732 152.577 14.0439V12.8721C152.394 12.8794 152.057 12.9014 151.83 12.9014C151.295 12.9014 150.783 12.7329 150.79 11.7148V7.10059H152.46V6.0459ZM158.744 14.0879C159.264 14.0806 159.689 13.6558 159.682 13.1357C159.689 12.623 159.264 12.1982 158.744 12.1982C158.231 12.1982 157.792 12.623 157.807 13.1357C157.792 13.6558 158.231 14.0806 158.744 14.0879ZM157.821 7.24707C157.807 7.76709 158.246 8.19189 158.759 8.19922C159.279 8.19189 159.704 7.76709 159.696 7.24707C159.704 6.73438 159.279 6.30957 158.759 6.30957C158.246 6.30957 157.807 6.73438 157.821 7.24707ZM166.61 6.0459H164.882L167.328 10.0156L164.867 14H166.581L168.354 11.0264L170.141 14H171.84L169.35 10.0156L171.825 6.0459H170.111L168.354 9.13672L166.61 6.0459ZM176.293 14.1611C178.534 14.1611 179.999 12.5205 179.999 10.0596C179.999 7.58398 178.534 5.94336 176.293 5.94336C174.037 5.94336 172.565 7.58398 172.572 10.0596C172.565 12.5205 174.037 14.1611 176.293 14.1611ZM174.14 10.0596C174.14 8.53613 174.835 7.23975 176.293 7.23242C177.729 7.23975 178.417 8.53613 178.417 10.0596C178.417 11.5757 177.729 12.8574 176.293 12.8574C174.835 12.8574 174.14 11.5757 174.14 10.0596ZM182.46 6.0459H180.731L183.178 10.0156L180.717 14H182.431L184.203 11.0264L185.99 14H187.689L185.199 10.0156L187.675 6.0459H185.961L184.203 9.13672L182.46 6.0459ZM192.143 14.1611C194.384 14.1611 195.849 12.5205 195.849 10.0596C195.849 7.58398 194.384 5.94336 192.143 5.94336C189.887 5.94336 188.415 7.58398 188.422 10.0596C188.415 12.5205 189.887 14.1611 192.143 14.1611ZM189.989 10.0596C189.989 8.53613 190.685 7.23975 192.143 7.23242C193.578 7.23975 194.267 8.53613 194.267 10.0596C194.267 11.5757 193.578 12.8574 192.143 12.8574C190.685 12.8574 189.989 11.5757 189.989 10.0596ZM202.602 12.5645C203.664 12.5645 204.132 11.8394 204.315 11.4658H204.389C204.499 12.1396 205.209 12.623 206.161 12.623C207.721 12.6304 208.871 11.3267 208.871 9.07812C208.878 5.89941 206.498 3.52637 203.026 3.52637C199.591 3.52637 197.16 6.05322 197.167 9.51758C197.167 13.209 199.342 15.5234 202.968 15.5234C203.935 15.5234 204.821 15.3916 205.59 15.1719V14C204.733 14.2344 204 14.3149 202.968 14.3223C199.972 14.3442 198.397 12.4253 198.397 9.51758C198.405 6.84424 200.207 4.73486 203.026 4.72754C205.758 4.72754 207.655 6.4707 207.641 9.12207C207.633 10.543 207.091 11.5024 206.264 11.4951C205.824 11.5024 205.612 11.2388 205.59 10.7041V6.60254H204.315V7.48145H204.242C204.059 7.11523 203.612 6.48535 202.602 6.48535C201.225 6.48535 200.133 7.59131 200.126 9.51758C200.133 11.4365 201.188 12.5645 202.602 12.5645ZM201.503 9.50293C201.496 8.47021 202.001 7.69385 202.924 7.68652C203.861 7.69385 204.337 8.41162 204.345 9.50293C204.337 10.6235 203.854 11.356 202.924 11.3633C202.008 11.356 201.496 10.5649 201.503 9.50293ZM211.801 6.0459H210.072L212.519 10.0156L210.058 14H211.771L213.544 11.0264L215.331 14H217.03L214.54 10.0156L217.016 6.0459H215.302L213.544 9.13672L211.801 6.0459ZM221.483 14.1611C223.725 14.1611 225.189 12.5205 225.189 10.0596C225.189 7.58398 223.725 5.94336 221.483 5.94336C219.228 5.94336 217.755 7.58398 217.763 10.0596C217.755 12.5205 219.228 14.1611 221.483 14.1611ZM219.33 10.0596C219.33 8.53613 220.026 7.23975 221.483 7.23242C222.919 7.23975 223.607 8.53613 223.607 10.0596C223.607 11.5757 222.919 12.8574 221.483 12.8574C220.026 12.8574 219.33 11.5757 219.33 10.0596ZM227.65 6.0459H225.922L228.368 10.0156L225.907 14H227.621L229.394 11.0264L231.181 14H232.88L230.39 10.0156L232.865 6.0459H231.151L229.394 9.13672L227.65 6.0459ZM237.333 14.1611C239.574 14.1611 241.039 12.5205 241.039 10.0596C241.039 7.58398 239.574 5.94336 237.333 5.94336C235.077 5.94336 233.605 7.58398 233.612 10.0596C233.605 12.5205 235.077 14.1611 237.333 14.1611ZM235.18 10.0596C235.18 8.53613 235.875 7.23975 237.333 7.23242C238.769 7.23975 239.457 8.53613 239.457 10.0596C239.457 11.5757 238.769 12.8574 237.333 12.8574C235.875 12.8574 235.18 11.5757 235.18 10.0596ZM242.577 14H244.145V9.09277C244.145 8.02344 244.892 7.29102 245.771 7.29102C246.627 7.29102 247.221 7.85498 247.221 8.72656V14H248.773V8.93164C248.773 7.97949 249.352 7.29102 250.355 7.29102C251.176 7.29102 251.85 7.73779 251.85 8.81445V14H253.417V8.66797C253.41 6.84424 252.392 5.94336 250.956 5.94336C249.806 5.94336 248.942 6.49268 248.568 7.34961H248.48C248.144 6.46338 247.404 5.94336 246.342 5.94336C245.294 5.94336 244.511 6.46338 244.174 7.34961H244.086V6.0459H242.577V14ZM254.94 11.7588C254.933 13.3115 256.112 14.1758 257.621 14.1758C258.939 14.1758 259.672 13.5093 259.979 12.916H260.038V14H261.562V8.71191C261.554 6.40479 259.708 5.94336 258.441 5.94336C256.559 5.94336 255.329 6.89551 255.189 8.21387H256.742C256.903 7.62793 257.46 7.20312 258.383 7.20312C259.445 7.20312 260.001 7.72314 259.994 8.62402L260.001 9.26123C259.635 9.27588 258.441 9.3418 257.914 9.37109C256.479 9.47363 254.933 9.94238 254.94 11.7588ZM256.464 11.7734C256.464 10.9897 257.108 10.6016 258.134 10.5283C258.507 10.5063 259.643 10.4258 260.001 10.4038L260.009 11.1289C260.009 12.0737 259.247 12.9233 257.973 12.9307C257.094 12.9233 256.464 12.5352 256.464 11.7734ZM263.451 14H265.019V9.15137C265.019 8.11133 265.824 7.35693 266.908 7.36426C267.23 7.35693 267.597 7.42285 267.729 7.45215V5.95801C267.567 5.94336 267.26 5.92139 267.069 5.92871C266.139 5.92139 265.341 6.45605 265.048 7.30566H264.96V6.0459H263.451V14ZM268.9 14H270.468V11.1729L271.222 10.4258L273.925 14H275.844L272.409 9.45898L275.624 6.0459H273.749L270.6 9.40039H270.468V3.39453H268.9V14ZM279.945 14.1611C281.696 14.1611 282.919 13.2969 283.271 12.0078H281.688C281.425 12.4912 280.846 12.8721 279.96 12.8721C278.656 12.8721 277.763 12.0151 277.719 10.499H283.373V9.94238C283.373 7.06396 281.652 5.94336 279.843 5.94336C277.624 5.94336 276.159 7.62793 276.166 10.0742C276.159 12.5425 277.602 14.1611 279.945 14.1611ZM277.726 9.32715C277.792 8.20654 278.605 7.2251 279.857 7.23242C281.051 7.2251 281.835 8.11865 281.835 9.32715H277.726ZM288.646 6.0459H287.021V4.1416H285.468V6.0459H284.296V7.29102H285.468V11.9785C285.453 13.4287 286.559 14.1025 287.782 14.1025C288.214 14.1025 288.551 14.0732 288.764 14.0439V12.6816C288.544 12.7036 288.2 12.7256 287.973 12.7256C287.467 12.7183 287.028 12.5571 287.021 11.6562V7.29102H288.646V6.0459ZM291.195 14.1025C291.759 14.0952 292.228 13.6338 292.235 13.0625C292.228 12.4912 291.759 12.0225 291.195 12.0225C290.624 12.0225 290.148 12.4912 290.155 13.0625C290.148 13.6338 290.624 14.0952 291.195 14.1025ZM294.125 14H295.692V11.1729L296.447 10.4258L299.149 14H301.068L297.633 9.45898L300.849 6.0459H298.974L295.824 9.40039H295.692V3.39453H294.125V14ZM302.079 14H303.646V9.15137C303.646 8.11133 304.452 7.35693 305.536 7.36426C305.858 7.35693 306.225 7.42285 306.356 7.45215V5.95801C306.195 5.94336 305.888 5.92139 305.697 5.92871C304.767 5.92139 303.969 6.45605 303.676 7.30566H303.588V6.0459H302.079V14Z" fill="black"/>
<path fill-rule="evenodd" clip-rule="evenodd" d="M0.0602264 4.51094L8.34359 8.83269C9.06818 9.21074 9.93182 9.21074 10.6564 8.83269L18.9398 4.51094C18.7216 3.64278 17.9359 3 17 3H2C1.06415 3 0.27842 3.64278 0.0602264 4.51094ZM19 5.60744L11.119 9.71928C10.1045 10.2485 8.89546 10.2485 7.88102 9.71928L0 5.60744V13C0 14.1046 0.895431 15 2 15H17C18.1046 15 19 14.1046 19 13V5.60744Z" fill="black"/>
</svg>
