<svg width="180" height="40" viewBox="0 0 180 40" fill="none" xmlns="http://www.w3.org/2000/svg">
<rect width="180" height="40" fill="#F4F4F4"/>
<path d="M10.4619 13.3164C8.25391 13.2998 6.67676 14.52 6.67676 16.3213C6.67676 18.1226 8.25391 19.3511 10.4619 19.3428C12.6699 19.3511 14.2554 18.1226 14.2471 16.3213C14.2554 14.52 12.6699 13.2998 10.4619 13.3164ZM5.56445 20.6045L5.74707 21.7168C6.97559 21.7085 8.39502 21.7002 9.89746 21.6338V26.8965H11.1924V21.5591C12.6201 21.4678 14.0811 21.3101 15.4922 21.0527L15.4092 20.0732C12.1304 20.5547 8.33691 20.6128 5.56445 20.6045ZM7.95508 16.3213C7.93848 15.1758 8.99268 14.3623 10.4619 14.3789C11.9478 14.3623 13.0103 15.1758 13.002 16.3213C13.0103 17.4751 11.9478 18.272 10.4619 18.2637C8.99268 18.272 7.93848 17.4751 7.95508 16.3213ZM16.4883 27.3613H17.7666V12.6025H16.4883V27.3613ZM32.459 12.5859H31.1475V27.3447H32.459V12.5859ZM20.5889 23.4766L21.3193 24.4893C23.0293 23.6841 24.457 21.9824 25.1211 19.9238C25.8101 21.8745 27.2461 23.4683 28.9561 24.2236L29.6865 23.2109C27.4619 22.2646 25.7354 19.874 25.7354 17.4004V16.2217H29.1719V15.1592H25.7354V12.8682H24.4404V15.1592H20.9873V16.2217H24.457V17.4004C24.457 19.9902 22.7803 22.4805 20.5889 23.4766ZM47.1846 12.5859H45.873V27.3447H47.1846V12.5859ZM35.165 23.5098L35.8789 24.5723C40.8262 22.1982 42.8018 18.438 42.8184 14.1963H35.8457V15.2588H41.4902C41.1997 18.7866 39.1577 21.6172 35.165 23.5098ZM61.2129 12.6025H59.918V23.4434H61.2129V18.1641H63.4375V17.0684H61.2129V12.6025ZM50.3057 20.9531H57.1787V13.665H55.8838V16.1553H51.584V13.665H50.3057V20.9531ZM51.584 19.8906V17.1846H55.8838V19.8906H51.584ZM51.9824 27.0293H61.8936V25.9336H53.2607V22.3809H51.9824V27.0293ZM73.8301 16.5537V13.8643H72.502V16.5537C72.4937 19.2764 70.7837 22.1152 68.6172 23.1777L69.4639 24.2236C71.1406 23.3354 72.5269 21.4429 73.1826 19.2349C73.8384 21.335 75.2246 23.0947 76.9014 23.958L77.6816 22.8955C75.54 21.916 73.8218 19.2266 73.8301 16.5537ZM76.0713 18.6953H79.5742V27.3779H80.8691V12.5859H79.5742V17.6328H76.0713V18.6953ZM95.4951 12.5859H94.1836V27.3779H95.4951V12.5859ZM84.1895 23.8086H91.1621V13.8477H89.8838V17.749H85.4844V13.8477H84.1895V23.8086ZM85.4844 22.7129V18.7949H89.8838V22.7129H85.4844ZM105.373 14.7607V13.6318H104.012V14.7607C104.003 17.3008 101.14 19.5337 98.583 20.0234L99.1807 21.1191C101.414 20.5962 103.746 19.019 104.709 16.8525C105.664 19.019 108.004 20.6045 110.237 21.1191L110.835 20.0234C108.27 19.542 105.381 17.2925 105.373 14.7607ZM98.0186 25.3359H111.532V24.2568H98.0186V25.3359ZM129.146 12.5859H127.835V27.3779H129.146V12.5859ZM117.525 18.8779C117.534 22.0239 119.094 24.0161 121.294 24.0078C123.485 24.0161 125.071 22.0239 125.062 18.8779C125.071 15.7402 123.485 13.7397 121.294 13.7314C119.094 13.7397 117.534 15.7402 117.525 18.8779ZM118.787 18.8779C118.787 16.479 119.816 14.9019 121.294 14.8936C122.78 14.9019 123.801 16.479 123.801 18.8779C123.801 21.2769 122.78 22.854 121.294 22.8457C119.816 22.854 118.787 21.2769 118.787 18.8779ZM145.117 19.8906H141.78V17.8071C142.942 17.3423 143.598 16.5952 143.606 15.6074C143.598 13.8726 141.606 12.8765 138.394 12.8682C135.156 12.8765 133.164 13.8726 133.164 15.6074C133.164 16.6035 133.828 17.3506 135.007 17.8071V19.8906H131.67V20.9697H145.117V19.8906ZM133.297 24.7051C133.289 26.3901 135.189 27.3115 138.394 27.3115C141.556 27.3115 143.457 26.3901 143.474 24.7051C143.457 23.02 141.556 22.0903 138.394 22.0986C135.189 22.0903 133.289 23.02 133.297 24.7051ZM134.509 15.6074C134.5 14.5449 135.978 13.8975 138.394 13.8975C140.784 13.8975 142.27 14.5449 142.278 15.6074C142.27 16.6865 140.784 17.3091 138.394 17.3174C135.978 17.3091 134.5 16.6865 134.509 15.6074ZM134.625 24.7051C134.608 23.7007 136.028 23.1113 138.394 23.0947C140.734 23.1113 142.154 23.7007 142.162 24.7051C142.154 25.7095 140.734 26.3071 138.394 26.2988C136.028 26.3071 134.608 25.7095 134.625 24.7051ZM136.302 19.8906V18.1641C136.924 18.272 137.622 18.3301 138.394 18.3301C139.166 18.3301 139.863 18.272 140.485 18.1558V19.8906H136.302ZM160.092 14.877H157.9V12.5859H156.605V21.3682H157.9V19.127H160.092V18.0146H157.9V15.9395H160.092V14.877ZM146.645 16.9521C146.636 19.0273 148.28 20.4468 150.513 20.4551C152.762 20.4468 154.381 19.0273 154.397 16.9521C154.381 14.9019 152.762 13.4741 150.513 13.4824C148.28 13.4741 146.636 14.9019 146.645 16.9521ZM147.923 16.9521C147.915 15.5659 149.019 14.603 150.513 14.5947C152.023 14.603 153.111 15.5659 153.119 16.9521C153.111 18.3716 152.023 19.3428 150.513 19.3262C149.019 19.3428 147.915 18.3716 147.923 16.9521ZM148.238 23.1279H156.605V27.3447H157.9V22.0488H148.238V23.1279ZM169.239 13.7314H161.885V14.8271H167.953C167.936 15.7651 167.903 17.0186 167.546 18.7783L168.857 18.8779C169.231 16.9521 169.231 15.4829 169.239 14.5117V13.7314ZM160.972 20.2559L161.104 21.335C163.736 21.3267 167.289 21.2686 170.385 20.7373L170.302 19.7744C168.766 19.9902 167.073 20.1064 165.438 20.1729V17.002H164.143V20.2144C163.005 20.2476 161.926 20.2559 160.972 20.2559ZM163.246 27.0293H173.107V25.9336H164.558V22.6963H163.246V27.0293ZM171.298 23.6924H172.626V18.5127H174.784V17.4004H172.626V12.5859H171.298V23.6924Z" fill="black"/>
</svg>
