<svg width="180" height="40" viewBox="0 0 180 40" fill="none" xmlns="http://www.w3.org/2000/svg">
<rect width="180" height="40" fill="#F4F4F4"/>
<path d="M48.0195 12.5859H46.7246V27.3779H48.0195V19.5586H50.4932V18.4629H48.0195V12.5859ZM37.1787 15.043H42.5908V18.1641H37.2119V23.8086H38.3906C41.2378 23.792 43.2051 23.6841 45.5293 23.2607L45.3965 22.1816C43.1636 22.5967 41.2461 22.7046 38.5068 22.6963V19.2432H43.8857V13.9639H37.1787V15.043ZM63.459 12.5859H62.1475V27.3779H63.459V12.5859ZM51.8379 18.8779C51.8462 22.0239 53.4067 24.0161 55.6064 24.0078C57.7979 24.0161 59.3833 22.0239 59.375 18.8779C59.3833 15.7402 57.7979 13.7397 55.6064 13.7314C53.4067 13.7397 51.8462 15.7402 51.8379 18.8779ZM53.0996 18.8779C53.0996 16.479 54.1289 14.9019 55.6064 14.8936C57.0923 14.9019 58.1133 16.479 58.1133 18.8779C58.1133 21.2769 57.0923 22.854 55.6064 22.8457C54.1289 22.854 53.0996 21.2769 53.0996 18.8779ZM78.168 13.4326H67.2441V14.5117H69.5352V18.5625H67.2939V19.6084H78.1182V18.5625H75.8936V14.5117H78.168V13.4326ZM65.9658 22.4307H72.0586V27.3447H73.3369V22.4307H79.4795V21.335H65.9658V22.4307ZM70.8301 18.5625V14.5117H74.6152V18.5625H70.8301ZM86.9834 13.3496H85.6885V20.1064H92.3789V17.3174H95.8652V20.6543H97.1768V12.5859H95.8652V16.2217H92.3789V13.3496H91.1006V15.6406H86.9834V13.3496ZM86.9834 19.0439V16.6699H91.1006V19.0439H86.9834ZM87.6641 27.1455H97.1602V21.3682H95.8652V23.1777H88.9756V21.3682H87.6641V27.1455ZM88.9756 26.0664V24.2236H95.8652V26.0664H88.9756ZM104.764 15.3086V14.6777H108.067V13.6152H100.115V14.6777H103.452V15.3252C103.452 17.4087 101.875 19.376 99.7002 20.1562L100.381 21.1855C102.132 20.5381 103.502 19.1768 104.141 17.4834C104.772 19.0024 106.059 20.2393 107.719 20.8369L108.399 19.8076C106.241 19.0605 104.764 17.2261 104.764 15.3086ZM101.941 23.2939H110.558V27.3447H111.869V22.2148H101.941V23.2939ZM107.603 17.5498H110.558V21.4346H111.869V12.5859H110.558V16.4541H107.603V17.5498ZM126.163 14.0801H115.754V15.1592H124.852V15.5576C124.843 17.3257 124.843 19.3926 124.287 22.2148L125.615 22.3643C126.146 19.3926 126.146 17.3672 126.163 15.5576V14.0801ZM114.326 25.2529H127.773V24.1738H120.884V18.8945H119.605V24.1738H114.326V25.2529ZM134.298 17.1182V15.1924H137.817V14.1133H129.5V15.1924H132.986V17.1182C132.978 19.6748 131.135 22.4639 129.019 23.4766L129.799 24.5059C131.484 23.6592 132.978 21.7832 133.667 19.6167C134.356 21.6587 135.842 23.3604 137.568 24.1406L138.299 23.1113C136.124 22.1733 134.306 19.625 134.298 17.1182ZM139.876 27.3447H141.188V12.5859H139.876V27.3447Z" fill="black"/>
</svg>
