<svg width="180" height="40" viewBox="0 0 180 40" fill="none" xmlns="http://www.w3.org/2000/svg">
<rect width="180" height="40" fill="#F4F4F4"/>
<path d="M18.8193 13.8086C16.8711 13.7939 15.4795 14.8706 15.4795 16.46C15.4795 18.0493 16.8711 19.1333 18.8193 19.126C20.7676 19.1333 22.1665 18.0493 22.1592 16.46C22.1665 14.8706 20.7676 13.7939 18.8193 13.8086ZM14.498 20.2393L14.6592 21.2207C15.7432 21.2134 16.9956 21.2061 18.3213 21.1475V25.791H19.4639V21.0815C20.7236 21.001 22.0127 20.8618 23.2578 20.6348L23.1846 19.7705C20.2915 20.1953 16.9443 20.2466 14.498 20.2393ZM16.6074 16.46C16.5928 15.4492 17.5229 14.7314 18.8193 14.7461C20.1304 14.7314 21.0679 15.4492 21.0605 16.46C21.0679 17.478 20.1304 18.1812 18.8193 18.1738C17.5229 18.1812 16.5928 17.478 16.6074 16.46ZM24.1367 26.2012H25.2646V13.1787H24.1367V26.2012ZM38.2285 13.1641H37.0713V26.1865H38.2285V13.1641ZM27.7549 22.7734L28.3994 23.667C29.9082 22.9565 31.168 21.4551 31.7539 19.6387C32.3618 21.3599 33.6289 22.7661 35.1377 23.4326L35.7822 22.5391C33.8193 21.7041 32.2959 19.5947 32.2959 17.4121V16.3721H35.3281V15.4346H32.2959V13.4131H31.1533V15.4346H28.1064V16.3721H31.168V17.4121C31.168 19.6973 29.6885 21.8945 27.7549 22.7734ZM51.2217 13.1641H50.0645V26.1865H51.2217V13.1641ZM40.6162 22.8027L41.2461 23.7402C45.6113 21.6455 47.3545 18.3276 47.3691 14.585H41.2168V15.5225H46.1973C45.9409 18.6353 44.1392 21.1328 40.6162 22.8027ZM63.5996 13.1787H62.457V22.7441H63.5996V18.0859H65.5625V17.1191H63.5996V13.1787ZM53.9756 20.5469H60.04V14.1162H58.8975V16.3135H55.1035V14.1162H53.9756V20.5469ZM55.1035 19.6094V17.2217H58.8975V19.6094H55.1035ZM55.4551 25.9082H64.2002V24.9414H56.583V21.8066H55.4551V25.9082ZM74.7324 16.665V14.292H73.5605V16.665C73.5532 19.0674 72.0444 21.5723 70.1328 22.5098L70.8799 23.4326C72.3594 22.6489 73.5825 20.979 74.1611 19.0308C74.7397 20.8838 75.9629 22.4365 77.4424 23.1982L78.1309 22.2607C76.2412 21.3965 74.7251 19.0234 74.7324 16.665ZM76.71 18.5547H79.8008V26.2158H80.9434V13.1641H79.8008V17.6172H76.71V18.5547ZM93.8486 13.1641H92.6914V26.2158H93.8486V13.1641ZM83.873 23.0664H90.0254V14.2773H88.8975V17.7197H85.0156V14.2773H83.873V23.0664ZM85.0156 22.0996V18.6426H88.8975V22.0996H85.0156ZM102.564 15.083V14.0869H101.363V15.083C101.356 17.3242 98.8291 19.2944 96.5732 19.7266L97.1006 20.6934C99.0708 20.2319 101.129 18.8403 101.979 16.9287C102.821 18.8403 104.886 20.2393 106.856 20.6934L107.384 19.7266C105.121 19.3018 102.572 17.3169 102.564 15.083ZM96.0752 24.4141H107.999V23.4619H96.0752V24.4141ZM123.541 13.1641H122.384V26.2158H123.541V13.1641ZM113.287 18.7158C113.294 21.4917 114.671 23.2495 116.612 23.2422C118.546 23.2495 119.945 21.4917 119.938 18.7158C119.945 15.9473 118.546 14.1821 116.612 14.1748C114.671 14.1821 113.294 15.9473 113.287 18.7158ZM114.4 18.7158C114.4 16.5991 115.309 15.2075 116.612 15.2002C117.923 15.2075 118.824 16.5991 118.824 18.7158C118.824 20.8325 117.923 22.2241 116.612 22.2168C115.309 22.2241 114.4 20.8325 114.4 18.7158ZM137.633 19.6094H134.688V17.771C135.714 17.3608 136.292 16.7017 136.3 15.8301C136.292 14.2993 134.535 13.4204 131.7 13.4131C128.844 13.4204 127.086 14.2993 127.086 15.8301C127.086 16.709 127.672 17.3682 128.712 17.771V19.6094H125.768V20.5615H137.633V19.6094ZM127.203 23.8574C127.196 25.3442 128.873 26.1572 131.7 26.1572C134.491 26.1572 136.168 25.3442 136.183 23.8574C136.168 22.3706 134.491 21.5503 131.7 21.5576C128.873 21.5503 127.196 22.3706 127.203 23.8574ZM128.272 15.8301C128.265 14.8926 129.569 14.3213 131.7 14.3213C133.81 14.3213 135.121 14.8926 135.128 15.8301C135.121 16.7822 133.81 17.3315 131.7 17.3389C129.569 17.3315 128.265 16.7822 128.272 15.8301ZM128.375 23.8574C128.36 22.9712 129.613 22.4512 131.7 22.4365C133.766 22.4512 135.018 22.9712 135.025 23.8574C135.018 24.7437 133.766 25.271 131.7 25.2637C129.613 25.271 128.36 24.7437 128.375 23.8574ZM129.854 19.6094V18.0859C130.404 18.1812 131.019 18.2324 131.7 18.2324C132.381 18.2324 132.997 18.1812 133.546 18.0786V19.6094H129.854ZM150.846 15.1855H148.912V13.1641H147.77V20.9131H148.912V18.9355H150.846V17.9541H148.912V16.123H150.846V15.1855ZM138.98 17.0166C138.973 18.8477 140.423 20.1001 142.394 20.1074C144.378 20.1001 145.807 18.8477 145.821 17.0166C145.807 15.2075 144.378 13.9478 142.394 13.9551C140.423 13.9478 138.973 15.2075 138.98 17.0166ZM140.108 17.0166C140.101 15.7935 141.075 14.9438 142.394 14.9365C143.727 14.9438 144.686 15.7935 144.693 17.0166C144.686 18.269 143.727 19.126 142.394 19.1113C141.075 19.126 140.101 18.269 140.108 17.0166ZM140.387 22.4658H147.77V26.1865H148.912V21.5137H140.387V22.4658ZM158.917 14.1748H152.428V15.1416H157.782C157.767 15.9692 157.738 17.0752 157.423 18.6279L158.58 18.7158C158.91 17.0166 158.91 15.7202 158.917 14.8633V14.1748ZM151.622 19.9316L151.739 20.8838C154.061 20.8765 157.196 20.8252 159.928 20.3564L159.854 19.5068C158.5 19.6973 157.005 19.7998 155.562 19.8584V17.0605H154.42V19.895C153.417 19.9243 152.464 19.9316 151.622 19.9316ZM153.629 25.9082H162.33V24.9414H154.786V22.085H153.629V25.9082ZM160.733 22.9639H161.905V18.3936H163.81V17.4121H161.905V13.1641H160.733V22.9639Z" fill="black"/>
</svg>
