<svg width="65" height="65" viewBox="0 0 65 65" fill="none" xmlns="http://www.w3.org/2000/svg">
<rect width="65" height="65" fill="#F4F4F4"/>
<path fill-rule="evenodd" clip-rule="evenodd" d="M16 13C14.3431 13 13 14.3431 13 16V48C13 49.6569 14.3431 51 16 51H48C49.6569 51 51 49.6569 51 48V16C51 14.3431 49.6569 13 48 13H16ZM33.6802 26.9104H38.3333V30.8311H33.6802V43.7619H29.1034V30.8311H25.6667V26.9104H29.1034V25.638C29.1034 22.0846 31.2372 20.2381 34.608 20.2381C35.6439 20.2381 37.5293 20.3312 38.3333 20.5174V23.416H36.2222C36.1675 23.416 36.1116 23.4158 36.0548 23.4155C35.0165 23.4114 33.6802 23.406 33.6802 24.7448V26.9104Z" fill="black"/>
</svg>
