<svg width="180" height="40" viewBox="0 0 180 40" fill="none" xmlns="http://www.w3.org/2000/svg">
<rect width="180" height="40" fill="#F4F4F4"/>
<path d="M13.1982 12.5859H11.9199V18.5459H9.87793V12.9844H8.63281V26.6143H9.87793V19.625H11.9199V27.3447H13.1982V12.5859ZM0.614258 23.2607L1.37793 24.1738C5.61963 21.8081 6.93945 18.2637 6.95605 14.5117H1.17871V15.5908H5.67773C5.45361 18.6455 4.04248 21.3433 0.614258 23.2607ZM27.4756 12.6025H26.1807V23.3936H27.4756V12.6025ZM15.6387 17.251C15.6304 19.4009 17.2988 20.895 19.5068 20.8867C21.7148 20.895 23.3667 19.4009 23.375 17.251C23.3667 15.126 21.7148 13.6401 19.5068 13.6318C17.2988 13.6401 15.6304 15.126 15.6387 17.251ZM16.917 17.251C16.9004 15.8066 18.0127 14.7773 19.5068 14.7773C20.9761 14.7773 22.0967 15.8066 22.0967 17.251C22.0967 18.7202 20.9761 19.7412 19.5068 19.7412C18.0127 19.7412 16.9004 18.7202 16.917 17.251ZM17.9463 27.0293H27.9404V25.9336H19.2412V22.2979H17.9463V27.0293ZM42.2178 12.5859H40.9062V16.4375H37.9346V17.5166H40.9062V21.3848H42.2178V12.5859ZM30.0488 20.2061L30.7295 21.252C32.4893 20.5796 33.8589 19.2017 34.4897 17.4751C35.1289 18.9941 36.4155 20.2393 38.0674 20.8369L38.748 19.791C36.5898 19.0522 35.1123 17.2178 35.1123 15.292V14.7607H38.416V13.665H30.4639V14.7607H33.8008V15.3086C33.8008 17.417 32.2402 19.4175 30.0488 20.2061ZM32.373 24.5889C32.3647 26.332 34.249 27.3281 37.3203 27.3447C40.3833 27.3281 42.2676 26.332 42.2676 24.5889C42.2676 22.854 40.3833 21.8413 37.3203 21.8496C34.249 21.8413 32.3647 22.854 32.373 24.5889ZM33.668 24.5889C33.6597 23.5098 35.0542 22.8623 37.3203 22.8623C39.5781 22.8623 40.9727 23.5098 40.9727 24.5889C40.9727 25.6597 39.5781 26.3071 37.3203 26.2988C35.0542 26.3071 33.6597 25.6597 33.668 24.5889ZM58.1885 24.373H52.0293V21.1855H56.5283V13.6318H55.25V16.3047H47.5801V13.6318H46.2686V21.1855H50.751V24.373H44.6748V25.4521H58.1885V24.373ZM47.5801 20.123V17.3672H55.25V20.123H47.5801ZM71.0381 13.9639V13.1172H69.6934V13.9639C69.6934 16.0806 66.9956 17.8403 64.3311 18.2139L64.8623 19.2764C67.1616 18.8945 69.4277 17.6411 70.374 15.8149C71.3203 17.6245 73.5947 18.8945 75.8857 19.2764L76.417 18.2139C73.7524 17.8403 71.0464 16.0474 71.0381 13.9639ZM63.6338 21.999H69.6934V27.3447H70.9717V21.999H77.0811V20.9033H63.6338V21.999ZM83.6387 15.0264V14.6445H87.042V13.582H78.874V14.6445H82.3271V15.0264C82.3188 17.0518 80.7334 18.8696 78.5088 19.5752L79.1895 20.6045C80.9492 20.0068 82.3438 18.7285 82.9995 17.0933C83.6636 18.6206 85.0498 19.8076 86.7764 20.3555L87.4404 19.3262C85.2407 18.6621 83.647 16.9521 83.6387 15.0264ZM80.9492 27.1455H90.5117V21.3018H89.2168V23.0947H82.2441V21.3018H80.9492V27.1455ZM82.2441 26.083V24.1406H89.2168V26.083H82.2441ZM89.2168 20.5713H90.5117V12.5859H89.2168V20.5713ZM104.988 13.5488H98.0654V19.5586H104.988V13.5488ZM99.1279 26.2822L99.5928 27.2949C101.817 26.9878 103.893 25.9751 104.781 24.5806C105.661 25.9419 107.686 26.9878 109.902 27.2949L110.351 26.2822C107.819 25.9668 105.445 24.5308 105.453 23.0947H109.836V22.082H105.42V20.6377H104.125V22.082H99.7422V23.0947H104.108C104.108 24.564 101.668 26 99.1279 26.2822ZM99.3438 18.5293V14.6113H103.71V18.5293H99.3438ZM108.176 21.0693H109.454V12.5859H108.176V21.0693ZM128.413 12.5859H127.102V27.3779H128.413V12.5859ZM116.792 18.8779C116.8 22.0239 118.361 24.0161 120.561 24.0078C122.752 24.0161 124.337 22.0239 124.329 18.8779C124.337 15.7402 122.752 13.7397 120.561 13.7314C118.361 13.7397 116.8 15.7402 116.792 18.8779ZM118.054 18.8779C118.054 16.479 119.083 14.9019 120.561 14.8936C122.046 14.9019 123.067 16.479 123.067 18.8779C123.067 21.2769 122.046 22.854 120.561 22.8457C119.083 22.854 118.054 21.2769 118.054 18.8779ZM144.384 19.8906H141.047V17.8071C142.209 17.3423 142.865 16.5952 142.873 15.6074C142.865 13.8726 140.873 12.8765 137.66 12.8682C134.423 12.8765 132.431 13.8726 132.431 15.6074C132.431 16.6035 133.095 17.3506 134.273 17.8071V19.8906H130.937V20.9697H144.384V19.8906ZM132.563 24.7051C132.555 26.3901 134.456 27.3115 137.66 27.3115C140.823 27.3115 142.724 26.3901 142.74 24.7051C142.724 23.02 140.823 22.0903 137.66 22.0986C134.456 22.0903 132.555 23.02 132.563 24.7051ZM133.775 15.6074C133.767 14.5449 135.245 13.8975 137.66 13.8975C140.051 13.8975 141.537 14.5449 141.545 15.6074C141.537 16.6865 140.051 17.3091 137.66 17.3174C135.245 17.3091 133.767 16.6865 133.775 15.6074ZM133.892 24.7051C133.875 23.7007 135.294 23.1113 137.66 23.0947C140.001 23.1113 141.42 23.7007 141.429 24.7051C141.42 25.7095 140.001 26.3071 137.66 26.2988C135.294 26.3071 133.875 25.7095 133.892 24.7051ZM135.568 19.8906V18.1641C136.191 18.272 136.888 18.3301 137.66 18.3301C138.432 18.3301 139.129 18.272 139.752 18.1558V19.8906H135.568ZM163.359 19.8906H157.25V18.1641H161.782V17.1016H152.884V14.3291H161.683V13.2832H151.605V18.1641H155.988V19.8906H149.896V20.9365H163.359V19.8906ZM151.522 24.6719C151.514 26.3735 153.432 27.3281 156.619 27.3447C159.782 27.3281 161.683 26.3735 161.699 24.6719C161.683 22.9868 159.782 22.0239 156.619 22.0156C153.432 22.0239 151.514 22.9868 151.522 24.6719ZM152.851 24.6719C152.834 23.6509 154.253 23.0449 156.619 23.0449C158.96 23.0449 160.379 23.6509 160.388 24.6719C160.379 25.7095 158.96 26.3071 156.619 26.2988C154.253 26.3071 152.834 25.7095 152.851 24.6719ZM169.419 13.665C167.086 13.6733 165.426 15.0845 165.435 17.1348C165.426 19.1934 167.086 20.5962 169.419 20.6045C171.735 20.5962 173.378 19.1934 173.387 17.1348C173.378 15.0845 171.735 13.6733 169.419 13.665ZM164.671 23.0117L164.854 24.124C167.51 24.124 171.137 24.1074 174.516 23.4766L174.416 22.5137C171.154 22.9951 167.394 23.02 164.671 23.0117ZM166.713 17.1348C166.705 15.7651 167.842 14.8105 169.419 14.8105C170.979 14.8105 172.117 15.7651 172.108 17.1348C172.117 18.5127 170.979 19.459 169.419 19.459C167.842 19.459 166.705 18.5127 166.713 17.1348ZM175.396 27.3779H176.69V12.5859H175.396V27.3779Z" fill="black"/>
</svg>
