<svg width="180" height="40" viewBox="0 0 180 40" fill="none" xmlns="http://www.w3.org/2000/svg">
<rect width="180" height="40" fill="#F4F4F4"/>
<path d="M18.1982 12.5859H16.9199V18.5459H14.8779V12.9844H13.6328V26.6143H14.8779V19.625H16.9199V27.3447H18.1982V12.5859ZM5.61426 23.2607L6.37793 24.1738C10.6196 21.8081 11.9395 18.2637 11.9561 14.5117H6.17871V15.5908H10.6777C10.4536 18.6455 9.04248 21.3433 5.61426 23.2607ZM32.4756 12.6025H31.1807V23.3936H32.4756V12.6025ZM20.6387 17.251C20.6304 19.4009 22.2988 20.895 24.5068 20.8867C26.7148 20.895 28.3667 19.4009 28.375 17.251C28.3667 15.126 26.7148 13.6401 24.5068 13.6318C22.2988 13.6401 20.6304 15.126 20.6387 17.251ZM21.917 17.251C21.9004 15.8066 23.0127 14.7773 24.5068 14.7773C25.9761 14.7773 27.0967 15.8066 27.0967 17.251C27.0967 18.7202 25.9761 19.7412 24.5068 19.7412C23.0127 19.7412 21.9004 18.7202 21.917 17.251ZM22.9463 27.0293H32.9404V25.9336H24.2412V22.2979H22.9463V27.0293ZM47.2178 12.5859H45.9062V16.4375H42.9346V17.5166H45.9062V21.3848H47.2178V12.5859ZM35.0488 20.2061L35.7295 21.252C37.4893 20.5796 38.8589 19.2017 39.4897 17.4751C40.1289 18.9941 41.4155 20.2393 43.0674 20.8369L43.748 19.791C41.5898 19.0522 40.1123 17.2178 40.1123 15.292V14.7607H43.416V13.665H35.4639V14.7607H38.8008V15.3086C38.8008 17.417 37.2402 19.4175 35.0488 20.2061ZM37.373 24.5889C37.3647 26.332 39.249 27.3281 42.3203 27.3447C45.3833 27.3281 47.2676 26.332 47.2676 24.5889C47.2676 22.854 45.3833 21.8413 42.3203 21.8496C39.249 21.8413 37.3647 22.854 37.373 24.5889ZM38.668 24.5889C38.6597 23.5098 40.0542 22.8623 42.3203 22.8623C44.5781 22.8623 45.9727 23.5098 45.9727 24.5889C45.9727 25.6597 44.5781 26.3071 42.3203 26.2988C40.0542 26.3071 38.6597 25.6597 38.668 24.5889ZM63.1885 24.373H57.0293V21.1855H61.5283V13.6318H60.25V16.3047H52.5801V13.6318H51.2686V21.1855H55.751V24.373H49.6748V25.4521H63.1885V24.373ZM52.5801 20.123V17.3672H60.25V20.123H52.5801ZM81.251 12.5859H80.0059V27.3447H81.251V12.5859ZM68.4512 23.4102L69.2812 24.3896C70.7588 23.4683 71.8296 21.7334 72.3608 19.6997C72.8755 21.5757 73.9048 23.1694 75.3574 24.041L76.1543 23.0781C74.1206 21.8994 72.9668 19.3511 72.9668 16.8027V15.4082H75.6729V14.3291H68.8662V15.4082H71.7051V16.8027C71.7134 19.4839 70.5098 22.1816 68.4512 23.4102ZM74.5439 18.9775H77.0342V26.5811H78.2627V12.9512H77.0342V17.915H74.5439V18.9775ZM88.0078 26.166C90.4067 26.166 92.1997 24.7051 92.1914 22.7295C92.1997 21.2021 91.2534 20.0815 89.6846 19.8408V19.7578C90.9463 19.4009 91.7432 18.4048 91.7266 17.0352C91.7432 15.3169 90.3486 13.8145 88.0576 13.8145C85.9243 13.8145 84.1479 15.0928 84.0732 17.002H85.5176C85.584 15.8232 86.7544 15.1177 88.041 15.1094C89.4106 15.1177 90.2905 15.9146 90.2822 17.1182C90.2905 18.355 89.2695 19.1768 87.8086 19.1768H86.8291V20.4883H87.8086C89.6763 20.4966 90.7222 21.418 90.7305 22.7295C90.7222 23.9829 89.5767 24.8379 87.9912 24.8379C86.5552 24.8379 85.418 24.124 85.335 22.9785H83.8242C83.8989 24.8877 85.6172 26.166 88.0078 26.166ZM98.8154 17.1182V15.1924H102.136V14.1133H94.1006V15.1924H97.5371V17.1182C97.5205 19.6333 95.6943 22.439 93.5693 23.4766L94.3662 24.5059C96.0181 23.6592 97.4956 21.75 98.1763 19.5835C98.8403 21.584 100.243 23.3271 101.903 24.1406L102.65 23.1113C100.509 22.0903 98.7988 19.4839 98.8154 17.1182ZM103.945 27.3447H105.24V19.6748H107.714V18.5625H105.24V12.5859H103.945V27.3447ZM125.395 12.5859H124.149V27.3447H125.395V12.5859ZM112.595 23.4102L113.425 24.3896C114.902 23.4683 115.973 21.7334 116.504 19.6997C117.019 21.5757 118.048 23.1694 119.501 24.041L120.298 23.0781C118.264 21.8994 117.11 19.3511 117.11 16.8027V15.4082H119.816V14.3291H113.01V15.4082H115.849V16.8027C115.857 19.4839 114.653 22.1816 112.595 23.4102ZM118.688 18.9775H121.178V26.5811H122.406V12.9512H121.178V17.915H118.688V18.9775ZM134.144 21.916C130.981 21.916 128.972 22.9121 128.98 24.6221C128.972 26.3154 130.981 27.3115 134.144 27.3115C137.306 27.3115 139.315 26.3154 139.323 24.6221C139.315 22.9121 137.306 21.916 134.144 21.916ZM127.486 20.5381H140.917V19.4756H134.326V16.6201H133.048V19.4756H127.486V20.5381ZM129.08 14.4121H137.912V14.5947C137.912 15.7485 137.912 16.8442 137.514 18.3633L138.792 18.5127C139.199 16.9854 139.199 15.79 139.207 14.5947V13.3496H129.08V14.4121ZM130.275 24.6221C130.267 23.5679 131.794 22.9204 134.144 22.9121C136.501 22.9204 138.012 23.5679 138.028 24.6221C138.012 25.6514 136.501 26.2822 134.144 26.2822C131.794 26.2822 130.267 25.6514 130.275 24.6221ZM159.893 19.8906H153.783V18.1641H158.315V17.1016H149.417V14.3291H158.216V13.2832H148.139V18.1641H152.521V19.8906H146.429V20.9365H159.893V19.8906ZM148.056 24.6719C148.047 26.3735 149.965 27.3281 153.152 27.3447C156.315 27.3281 158.216 26.3735 158.232 24.6719C158.216 22.9868 156.315 22.0239 153.152 22.0156C149.965 22.0239 148.047 22.9868 148.056 24.6719ZM149.384 24.6719C149.367 23.6509 150.787 23.0449 153.152 23.0449C155.493 23.0449 156.913 23.6509 156.921 24.6719C156.913 25.7095 155.493 26.3071 153.152 26.2988C150.787 26.3071 149.367 25.7095 149.384 24.6719ZM165.952 13.665C163.62 13.6733 161.959 15.0845 161.968 17.1348C161.959 19.1934 163.62 20.5962 165.952 20.6045C168.268 20.5962 169.912 19.1934 169.92 17.1348C169.912 15.0845 168.268 13.6733 165.952 13.665ZM161.204 23.0117L161.387 24.124C164.043 24.124 167.67 24.1074 171.049 23.4766L170.949 22.5137C167.687 22.9951 163.927 23.02 161.204 23.0117ZM163.246 17.1348C163.238 15.7651 164.375 14.8105 165.952 14.8105C167.513 14.8105 168.65 15.7651 168.642 17.1348C168.65 18.5127 167.513 19.459 165.952 19.459C164.375 19.459 163.238 18.5127 163.246 17.1348ZM171.929 27.3779H173.224V12.5859H171.929V27.3779Z" fill="black"/>
</svg>
