<svg width="180" height="40" viewBox="0 0 180 40" fill="none" xmlns="http://www.w3.org/2000/svg">
<rect width="180" height="40" fill="#F4F4F4"/>
<path d="M25.6455 13.1641H24.5176V18.4229H22.7158V13.5156H21.6172V25.542H22.7158V19.375H24.5176V26.1865H25.6455V13.1641ZM14.542 22.583L15.2158 23.3887C18.9585 21.3013 20.123 18.1738 20.1377 14.8633H15.04V15.8154H19.0098C18.812 18.5107 17.5669 20.8911 14.542 22.583ZM38.2432 13.1787H37.1006V22.7002H38.2432V13.1787ZM27.7988 17.2803C27.7915 19.1772 29.2637 20.4956 31.2119 20.4883C33.1602 20.4956 34.6177 19.1772 34.625 17.2803C34.6177 15.4053 33.1602 14.0942 31.2119 14.0869C29.2637 14.0942 27.7915 15.4053 27.7988 17.2803ZM28.9268 17.2803C28.9121 16.0059 29.8936 15.0977 31.2119 15.0977C32.5083 15.0977 33.4971 16.0059 33.4971 17.2803C33.4971 18.5767 32.5083 19.4775 31.2119 19.4775C29.8936 19.4775 28.9121 18.5767 28.9268 17.2803ZM29.835 25.9082H38.6533V24.9414H30.9775V21.7334H29.835V25.9082ZM51.251 13.1641H50.0938V16.5625H47.4717V17.5146H50.0938V20.9277H51.251V13.1641ZM40.5137 19.8877L41.1143 20.8105C42.667 20.2173 43.8755 19.0015 44.4321 17.478C44.9961 18.8184 46.1313 19.917 47.5889 20.4443L48.1895 19.5215C46.2852 18.8696 44.9814 17.251 44.9814 15.5518V15.083H47.8965V14.1162H40.8799V15.083H43.8242V15.5664C43.8242 17.4268 42.4473 19.1919 40.5137 19.8877ZM42.5645 23.7549C42.5571 25.293 44.2197 26.1719 46.9297 26.1865C49.6323 26.1719 51.2949 25.293 51.2949 23.7549C51.2949 22.2241 49.6323 21.3306 46.9297 21.3379C44.2197 21.3306 42.5571 22.2241 42.5645 23.7549ZM43.707 23.7549C43.6997 22.8027 44.9302 22.2314 46.9297 22.2314C48.9219 22.2314 50.1523 22.8027 50.1523 23.7549C50.1523 24.6997 48.9219 25.271 46.9297 25.2637C44.9302 25.271 43.6997 24.6997 43.707 23.7549ZM65.3428 23.5645H59.9082V20.752H63.8779V14.0869H62.75V16.4453H55.9824V14.0869H54.8252V20.752H58.7803V23.5645H53.4189V24.5166H65.3428V23.5645ZM55.9824 19.8145V17.3828H62.75V19.8145H55.9824ZM81.2803 13.1641H80.1816V26.1865H81.2803V13.1641ZM69.9863 22.7148L70.7188 23.5791C72.0225 22.7661 72.9673 21.2354 73.436 19.4409C73.8901 21.0962 74.7983 22.5024 76.0801 23.2715L76.7832 22.4219C74.9888 21.3818 73.9707 19.1333 73.9707 16.8848V15.6543H76.3584V14.7021H70.3525V15.6543H72.8574V16.8848C72.8647 19.2505 71.8027 21.6309 69.9863 22.7148ZM75.3623 18.8037H77.5596V25.5127H78.6436V13.4863H77.5596V17.8662H75.3623V18.8037ZM87.2422 25.1465C89.3589 25.1465 90.9409 23.8574 90.9336 22.1143C90.9409 20.7666 90.106 19.7778 88.7217 19.5654V19.4922C89.835 19.1772 90.5381 18.2983 90.5234 17.0898C90.5381 15.5737 89.3076 14.248 87.2861 14.248C85.4038 14.248 83.8364 15.376 83.7705 17.0605H85.0449C85.1035 16.0205 86.1362 15.3979 87.2715 15.3906C88.48 15.3979 89.2563 16.1011 89.249 17.1631C89.2563 18.2544 88.3555 18.9795 87.0664 18.9795H86.2021V20.1367H87.0664C88.7144 20.144 89.6372 20.957 89.6445 22.1143C89.6372 23.2202 88.6265 23.9746 87.2275 23.9746C85.9604 23.9746 84.957 23.3447 84.8838 22.334H83.5508C83.6167 24.0186 85.1328 25.1465 87.2422 25.1465ZM96.7783 17.1631V15.4639H99.708V14.5117H92.6182V15.4639H95.6504V17.1631C95.6357 19.3823 94.0244 21.8579 92.1494 22.7734L92.8525 23.6816C94.3101 22.9346 95.6138 21.25 96.2144 19.3384C96.8003 21.1035 98.0381 22.6416 99.5029 23.3594L100.162 22.4512C98.2725 21.5503 96.7637 19.2505 96.7783 17.1631ZM101.305 26.1865H102.447V19.4189H104.63V18.4375H102.447V13.1641H101.305V26.1865ZM120.23 13.1641H119.132V26.1865H120.23V13.1641ZM108.937 22.7148L109.669 23.5791C110.973 22.7661 111.917 21.2354 112.386 19.4409C112.84 21.0962 113.749 22.5024 115.03 23.2715L115.733 22.4219C113.939 21.3818 112.921 19.1333 112.921 16.8848V15.6543H115.309V14.7021H109.303V15.6543H111.808V16.8848C111.815 19.2505 110.753 21.6309 108.937 22.7148ZM114.312 18.8037H116.51V25.5127H117.594V13.4863H116.51V17.8662H114.312V18.8037ZM127.95 21.3965C125.16 21.3965 123.387 22.2754 123.395 23.7842C123.387 25.2783 125.16 26.1572 127.95 26.1572C130.741 26.1572 132.513 25.2783 132.521 23.7842C132.513 22.2754 130.741 21.3965 127.95 21.3965ZM122.076 20.1807H133.927V19.2432H128.111V16.7236H126.983V19.2432H122.076V20.1807ZM123.482 14.7754H131.275V14.9365C131.275 15.9546 131.275 16.9214 130.924 18.2617L132.052 18.3936C132.411 17.0459 132.411 15.9912 132.418 14.9365V13.8379H123.482V14.7754ZM124.537 23.7842C124.53 22.854 125.877 22.2827 127.95 22.2754C130.03 22.2827 131.363 22.854 131.378 23.7842C131.363 24.6924 130.03 25.249 127.95 25.249C125.877 25.249 124.53 24.6924 124.537 23.7842ZM150.67 19.6094H145.279V18.0859H149.278V17.1484H141.427V14.7021H149.19V13.7793H140.299V18.0859H144.166V19.6094H138.79V20.5322H150.67V19.6094ZM140.226 23.8281C140.218 25.3296 141.91 26.1719 144.723 26.1865C147.513 26.1719 149.19 25.3296 149.205 23.8281C149.19 22.3413 147.513 21.4917 144.723 21.4844C141.91 21.4917 140.218 22.3413 140.226 23.8281ZM141.397 23.8281C141.383 22.9272 142.635 22.3926 144.723 22.3926C146.788 22.3926 148.041 22.9272 148.048 23.8281C148.041 24.7437 146.788 25.271 144.723 25.2637C142.635 25.271 141.383 24.7437 141.397 23.8281ZM156.017 14.1162C153.958 14.1235 152.494 15.3687 152.501 17.1777C152.494 18.9941 153.958 20.2319 156.017 20.2393C158.06 20.2319 159.51 18.9941 159.518 17.1777C159.51 15.3687 158.06 14.1235 156.017 14.1162ZM151.827 22.3633L151.988 23.3447C154.332 23.3447 157.533 23.3301 160.514 22.7734L160.426 21.9238C157.547 22.3486 154.229 22.3706 151.827 22.3633ZM153.629 17.1777C153.622 15.9692 154.625 15.127 156.017 15.127C157.394 15.127 158.397 15.9692 158.39 17.1777C158.397 18.3936 157.394 19.2285 156.017 19.2285C154.625 19.2285 153.622 18.3936 153.629 17.1777ZM161.29 26.2158H162.433V13.1641H161.29V26.2158Z" fill="black"/>
</svg>
