<svg width="180" height="40" viewBox="0 0 180 40" fill="none" xmlns="http://www.w3.org/2000/svg">
<rect width="180" height="40" fill="#F4F4F4"/>
<path d="M16.6055 13.1641H15.4629V26.2158H16.6055V19.3164H18.7881V18.3496H16.6055V13.1641ZM7.04004 15.332H11.8154V18.0859H7.06934V23.0664H8.10938C10.6216 23.0518 12.3574 22.9565 14.4082 22.583L14.291 21.6309C12.3208 21.9971 10.6289 22.0923 8.21191 22.085V19.0381H12.958V14.3799H7.04004V15.332ZM30.2285 13.1641H29.0713V26.2158H30.2285V13.1641ZM19.9746 18.7158C19.9819 21.4917 21.3589 23.2495 23.2998 23.2422C25.2334 23.2495 26.6323 21.4917 26.625 18.7158C26.6323 15.9473 25.2334 14.1821 23.2998 14.1748C21.3589 14.1821 19.9819 15.9473 19.9746 18.7158ZM21.0879 18.7158C21.0879 16.5991 21.9961 15.2075 23.2998 15.2002C24.6108 15.2075 25.5117 16.5991 25.5117 18.7158C25.5117 20.8325 24.6108 22.2241 23.2998 22.2168C21.9961 22.2241 21.0879 20.8325 21.0879 18.7158ZM43.207 13.9111H33.5684V14.8633H35.5898V18.4375H33.6123V19.3604H43.1631V18.4375H41.2002V14.8633H43.207V13.9111ZM32.4404 21.8506H37.8164V26.1865H38.9443V21.8506H44.3643V20.8838H32.4404V21.8506ZM36.7324 18.4375V14.8633H40.0723V18.4375H36.7324ZM52.6846 14.1748C50.7583 14.1821 49.4106 15.9473 49.418 18.7158C49.4106 21.4917 50.7583 23.2495 52.6846 23.2422C54.501 23.2495 55.8047 21.6528 55.9292 19.0967H58.8369V26.2158H59.9795V13.1641H58.8369V18.1445H55.9146C55.7388 15.7056 54.457 14.1821 52.6846 14.1748ZM50.5166 18.7158C50.5239 16.5991 51.4028 15.2075 52.6846 15.2002C53.959 15.2075 54.8525 16.5991 54.8525 18.7158C54.8525 20.8325 53.959 22.2241 52.6846 22.2168C51.4028 22.2241 50.5239 20.8325 50.5166 18.7158ZM72.8848 13.5742H63.2607V14.4824H65.2676V17.002H63.3047V17.8955H72.8408V17.002H70.8779V14.4824H72.8848V13.5742ZM62.1475 19.917H74.0127V18.9941H62.1475V19.917ZM63.583 21.9531H71.3613V23.0811H63.6123V26.04H72.8848V25.1611H64.7549V23.916H72.4893V21.0889H63.583V21.9531ZM66.4102 17.002V14.4824H69.7354V17.002H66.4102ZM83.4609 16.665V14.292H82.2891V16.665C82.2817 19.0674 80.7729 21.5723 78.8613 22.5098L79.6084 23.4326C81.0879 22.6489 82.311 20.979 82.8896 19.0308C83.4683 20.8838 84.6914 22.4365 86.1709 23.1982L86.8594 22.2607C84.9697 21.3965 83.4536 19.0234 83.4609 16.665ZM85.4385 18.5547H88.5293V26.2158H89.6719V13.1641H88.5293V17.6172H85.4385V18.5547ZM102.577 13.1641H101.42V26.2158H102.577V13.1641ZM92.6016 23.0664H98.7539V14.2773H97.626V17.7197H93.7441V14.2773H92.6016V23.0664ZM93.7441 22.0996V18.6426H97.626V22.0996H93.7441ZM111.293 15.083V14.0869H110.092V15.083C110.084 17.3242 107.558 19.2944 105.302 19.7266L105.829 20.6934C107.799 20.2319 109.857 18.8403 110.707 16.9287C111.549 18.8403 113.615 20.2393 115.585 20.6934L116.112 19.7266C113.849 19.3018 111.3 17.3169 111.293 15.083ZM104.804 24.4141H116.728V23.4619H104.804V24.4141ZM132.27 13.1641H131.112V26.2158H132.27V13.1641ZM122.016 18.7158C122.023 21.4917 123.4 23.2495 125.341 23.2422C127.274 23.2495 128.673 21.4917 128.666 18.7158C128.673 15.9473 127.274 14.1821 125.341 14.1748C123.4 14.1821 122.023 15.9473 122.016 18.7158ZM123.129 18.7158C123.129 16.5991 124.037 15.2075 125.341 15.2002C126.652 15.2075 127.553 16.5991 127.553 18.7158C127.553 20.8325 126.652 22.2241 125.341 22.2168C124.037 22.2241 123.129 20.8325 123.129 18.7158ZM146.361 19.6094H143.417V17.771C144.442 17.3608 145.021 16.7017 145.028 15.8301C145.021 14.2993 143.263 13.4204 140.429 13.4131C137.572 13.4204 135.814 14.2993 135.814 15.8301C135.814 16.709 136.4 17.3682 137.44 17.771V19.6094H134.496V20.5615H146.361V19.6094ZM135.932 23.8574C135.924 25.3442 137.602 26.1572 140.429 26.1572C143.219 26.1572 144.896 25.3442 144.911 23.8574C144.896 22.3706 143.219 21.5503 140.429 21.5576C137.602 21.5503 135.924 22.3706 135.932 23.8574ZM137.001 15.8301C136.994 14.8926 138.297 14.3213 140.429 14.3213C142.538 14.3213 143.849 14.8926 143.856 15.8301C143.849 16.7822 142.538 17.3315 140.429 17.3389C138.297 17.3315 136.994 16.7822 137.001 15.8301ZM137.104 23.8574C137.089 22.9712 138.341 22.4512 140.429 22.4365C142.494 22.4512 143.747 22.9712 143.754 23.8574C143.747 24.7437 142.494 25.271 140.429 25.2637C138.341 25.271 137.089 24.7437 137.104 23.8574ZM138.583 19.6094V18.0859C139.132 18.1812 139.748 18.2324 140.429 18.2324C141.11 18.2324 141.725 18.1812 142.274 18.0786V19.6094H138.583ZM159.574 15.1855H157.641V13.1641H156.498V20.9131H157.641V18.9355H159.574V17.9541H157.641V16.123H159.574V15.1855ZM147.709 17.0166C147.702 18.8477 149.152 20.1001 151.122 20.1074C153.107 20.1001 154.535 18.8477 154.55 17.0166C154.535 15.2075 153.107 13.9478 151.122 13.9551C149.152 13.9478 147.702 15.2075 147.709 17.0166ZM148.837 17.0166C148.83 15.7935 149.804 14.9438 151.122 14.9365C152.455 14.9438 153.415 15.7935 153.422 17.0166C153.415 18.269 152.455 19.126 151.122 19.1113C149.804 19.126 148.83 18.269 148.837 17.0166ZM149.115 22.4658H156.498V26.1865H157.641V21.5137H149.115V22.4658ZM167.646 14.1748H161.156V15.1416H166.51C166.496 15.9692 166.466 17.0752 166.151 18.6279L167.309 18.7158C167.638 17.0166 167.638 15.7202 167.646 14.8633V14.1748ZM160.351 19.9316L160.468 20.8838C162.79 20.8765 165.924 20.8252 168.656 20.3564L168.583 19.5068C167.228 19.6973 165.734 19.7998 164.291 19.8584V17.0605H163.148V19.895C162.145 19.9243 161.193 19.9316 160.351 19.9316ZM162.357 25.9082H171.059V24.9414H163.515V22.085H162.357V25.9082ZM169.462 22.9639H170.634V18.3936H172.538V17.4121H170.634V13.1641H169.462V22.9639Z" fill="black"/>
</svg>
