<svg width="180" height="40" viewBox="0 0 180 40" fill="none" xmlns="http://www.w3.org/2000/svg">
<rect width="180" height="40" fill="#F4F4F4"/>
<path d="M22.6455 13.1641H21.5176V18.4229H19.7158V13.5156H18.6172V25.542H19.7158V19.375H21.5176V26.1865H22.6455V13.1641ZM11.542 22.583L12.2158 23.3887C15.9585 21.3013 17.123 18.1738 17.1377 14.8633H12.04V15.8154H16.0098C15.812 18.5107 14.5669 20.8911 11.542 22.583ZM35.2432 13.1787H34.1006V22.7002H35.2432V13.1787ZM24.7988 17.2803C24.7915 19.1772 26.2637 20.4956 28.2119 20.4883C30.1602 20.4956 31.6177 19.1772 31.625 17.2803C31.6177 15.4053 30.1602 14.0942 28.2119 14.0869C26.2637 14.0942 24.7915 15.4053 24.7988 17.2803ZM25.9268 17.2803C25.9121 16.0059 26.8936 15.0977 28.2119 15.0977C29.5083 15.0977 30.4971 16.0059 30.4971 17.2803C30.4971 18.5767 29.5083 19.4775 28.2119 19.4775C26.8936 19.4775 25.9121 18.5767 25.9268 17.2803ZM26.835 25.9082H35.6533V24.9414H27.9775V21.7334H26.835V25.9082ZM48.251 13.1641H47.0938V16.5625H44.4717V17.5146H47.0938V20.9277H48.251V13.1641ZM37.5137 19.8877L38.1143 20.8105C39.667 20.2173 40.8755 19.0015 41.4321 17.478C41.9961 18.8184 43.1313 19.917 44.5889 20.4443L45.1895 19.5215C43.2852 18.8696 41.9814 17.251 41.9814 15.5518V15.083H44.8965V14.1162H37.8799V15.083H40.8242V15.5664C40.8242 17.4268 39.4473 19.1919 37.5137 19.8877ZM39.5645 23.7549C39.5571 25.293 41.2197 26.1719 43.9297 26.1865C46.6323 26.1719 48.2949 25.293 48.2949 23.7549C48.2949 22.2241 46.6323 21.3306 43.9297 21.3379C41.2197 21.3306 39.5571 22.2241 39.5645 23.7549ZM40.707 23.7549C40.6997 22.8027 41.9302 22.2314 43.9297 22.2314C45.9219 22.2314 47.1523 22.8027 47.1523 23.7549C47.1523 24.6997 45.9219 25.271 43.9297 25.2637C41.9302 25.271 40.6997 24.6997 40.707 23.7549ZM62.3428 23.5645H56.9082V20.752H60.8779V14.0869H59.75V16.4453H52.9824V14.0869H51.8252V20.752H55.7803V23.5645H50.4189V24.5166H62.3428V23.5645ZM52.9824 19.8145V17.3828H59.75V19.8145H52.9824ZM73.6807 14.3799V13.6328H72.4941V14.3799C72.4941 16.2476 70.1138 17.8003 67.7627 18.1299L68.2314 19.0674C70.2603 18.7305 72.2598 17.6245 73.0947 16.0132C73.9297 17.6099 75.9365 18.7305 77.958 19.0674L78.4268 18.1299C76.0757 17.8003 73.688 16.2183 73.6807 14.3799ZM67.1475 21.4697H72.4941V26.1865H73.6221V21.4697H79.0127V20.5029H67.1475V21.4697ZM84.7988 15.3174V14.9805H87.8018V14.043H80.5947V14.9805H83.6416V15.3174C83.6343 17.1045 82.2354 18.7085 80.2725 19.3311L80.873 20.2393C82.4258 19.7119 83.6562 18.584 84.2349 17.1411C84.8208 18.4888 86.0439 19.5361 87.5674 20.0195L88.1533 19.1113C86.2124 18.5254 84.8062 17.0166 84.7988 15.3174ZM82.4258 26.0107H90.8633V20.8545H89.7207V22.4365H83.5684V20.8545H82.4258V26.0107ZM83.5684 25.0732V23.3594H89.7207V25.0732H83.5684ZM89.7207 20.21H90.8633V13.1641H89.7207V20.21ZM103.637 14.0137H97.5283V19.3164H103.637V14.0137ZM98.4658 25.249L98.876 26.1426C100.839 25.8716 102.67 24.978 103.454 23.7476C104.23 24.9487 106.017 25.8716 107.973 26.1426L108.368 25.249C106.134 24.9707 104.04 23.7036 104.047 22.4365H107.914V21.543H104.018V20.2686H102.875V21.543H99.0078V22.4365H102.86C102.86 23.7329 100.707 25 98.4658 25.249ZM98.6562 18.4082V14.9512H102.509V18.4082H98.6562ZM106.449 20.6494H107.577V13.1641H106.449V20.6494ZM124.306 13.1641H123.148V26.2158H124.306V13.1641ZM114.052 18.7158C114.059 21.4917 115.436 23.2495 117.377 23.2422C119.311 23.2495 120.709 21.4917 120.702 18.7158C120.709 15.9473 119.311 14.1821 117.377 14.1748C115.436 14.1821 114.059 15.9473 114.052 18.7158ZM115.165 18.7158C115.165 16.5991 116.073 15.2075 117.377 15.2002C118.688 15.2075 119.589 16.5991 119.589 18.7158C119.589 20.8325 118.688 22.2241 117.377 22.2168C116.073 22.2241 115.165 20.8325 115.165 18.7158ZM138.397 19.6094H135.453V17.771C136.479 17.3608 137.057 16.7017 137.064 15.8301C137.057 14.2993 135.299 13.4204 132.465 13.4131C129.608 13.4204 127.851 14.2993 127.851 15.8301C127.851 16.709 128.437 17.3682 129.477 17.771V19.6094H126.532V20.5615H138.397V19.6094ZM127.968 23.8574C127.96 25.3442 129.638 26.1572 132.465 26.1572C135.255 26.1572 136.933 25.3442 136.947 23.8574C136.933 22.3706 135.255 21.5503 132.465 21.5576C129.638 21.5503 127.96 22.3706 127.968 23.8574ZM129.037 15.8301C129.03 14.8926 130.333 14.3213 132.465 14.3213C134.574 14.3213 135.885 14.8926 135.893 15.8301C135.885 16.7822 134.574 17.3315 132.465 17.3389C130.333 17.3315 129.03 16.7822 129.037 15.8301ZM129.14 23.8574C129.125 22.9712 130.377 22.4512 132.465 22.4365C134.53 22.4512 135.783 22.9712 135.79 23.8574C135.783 24.7437 134.53 25.271 132.465 25.2637C130.377 25.271 129.125 24.7437 129.14 23.8574ZM130.619 19.6094V18.0859C131.168 18.1812 131.784 18.2324 132.465 18.2324C133.146 18.2324 133.761 18.1812 134.311 18.0786V19.6094H130.619ZM155.141 19.6094H149.75V18.0859H153.749V17.1484H145.897V14.7021H153.661V13.7793H144.77V18.0859H148.637V19.6094H143.261V20.5322H155.141V19.6094ZM144.696 23.8281C144.689 25.3296 146.381 26.1719 149.193 26.1865C151.984 26.1719 153.661 25.3296 153.676 23.8281C153.661 22.3413 151.984 21.4917 149.193 21.4844C146.381 21.4917 144.689 22.3413 144.696 23.8281ZM145.868 23.8281C145.854 22.9272 147.106 22.3926 149.193 22.3926C151.259 22.3926 152.511 22.9272 152.519 23.8281C152.511 24.7437 151.259 25.271 149.193 25.2637C147.106 25.271 145.854 24.7437 145.868 23.8281ZM160.487 14.1162C158.429 14.1235 156.964 15.3687 156.972 17.1777C156.964 18.9941 158.429 20.2319 160.487 20.2393C162.531 20.2319 163.981 18.9941 163.988 17.1777C163.981 15.3687 162.531 14.1235 160.487 14.1162ZM156.298 22.3633L156.459 23.3447C158.803 23.3447 162.003 23.3301 164.984 22.7734L164.896 21.9238C162.018 22.3486 158.7 22.3706 156.298 22.3633ZM158.1 17.1777C158.092 15.9692 159.096 15.127 160.487 15.127C161.864 15.127 162.868 15.9692 162.86 17.1777C162.868 18.3936 161.864 19.2285 160.487 19.2285C159.096 19.2285 158.092 18.3936 158.1 17.1777ZM165.761 26.2158H166.903V13.1641H165.761V26.2158Z" fill="black"/>
</svg>
