<svg width="180" height="40" viewBox="0 0 180 40" fill="none" xmlns="http://www.w3.org/2000/svg">
<rect width="180" height="40" fill="#F4F4F4"/>
<path d="M52.6055 13.1641H51.4629V26.2158H52.6055V19.3164H54.7881V18.3496H52.6055V13.1641ZM43.04 15.332H47.8154V18.0859H43.0693V23.0664H44.1094C46.6216 23.0518 48.3574 22.9565 50.4082 22.583L50.291 21.6309C48.3208 21.9971 46.6289 22.0923 44.2119 22.085V19.0381H48.958V14.3799H43.04V15.332ZM66.2285 13.1641H65.0713V26.2158H66.2285V13.1641ZM55.9746 18.7158C55.9819 21.4917 57.3589 23.2495 59.2998 23.2422C61.2334 23.2495 62.6323 21.4917 62.625 18.7158C62.6323 15.9473 61.2334 14.1821 59.2998 14.1748C57.3589 14.1821 55.9819 15.9473 55.9746 18.7158ZM57.0879 18.7158C57.0879 16.5991 57.9961 15.2075 59.2998 15.2002C60.6108 15.2075 61.5117 16.5991 61.5117 18.7158C61.5117 20.8325 60.6108 22.2241 59.2998 22.2168C57.9961 22.2241 57.0879 20.8325 57.0879 18.7158ZM79.207 13.9111H69.5684V14.8633H71.5898V18.4375H69.6123V19.3604H79.1631V18.4375H77.2002V14.8633H79.207V13.9111ZM68.4404 21.8506H73.8164V26.1865H74.9443V21.8506H80.3643V20.8838H68.4404V21.8506ZM72.7324 18.4375V14.8633H76.0723V18.4375H72.7324ZM86.9854 13.8379H85.8428V19.7998H91.7461V17.3389H94.8223V20.2832H95.9795V13.1641H94.8223V16.3721H91.7461V13.8379H90.6182V15.8594H86.9854V13.8379ZM86.9854 18.8623V16.7676H90.6182V18.8623H86.9854ZM87.5859 26.0107H95.9648V20.9131H94.8223V22.5098H88.7432V20.9131H87.5859V26.0107ZM88.7432 25.0586V23.4326H94.8223V25.0586H88.7432ZM102.674 15.5664V15.0098H105.589V14.0723H98.5723V15.0098H101.517V15.5811C101.517 17.4194 100.125 19.1553 98.2061 19.8438L98.8066 20.752C100.352 20.1807 101.561 18.9795 102.125 17.4854C102.681 18.8257 103.816 19.917 105.281 20.4443L105.882 19.5361C103.978 18.877 102.674 17.2583 102.674 15.5664ZM100.184 22.6123H107.786V26.1865H108.943V21.6602H100.184V22.6123ZM105.179 17.5439H107.786V20.9717H108.943V13.1641H107.786V16.5771H105.179V17.5439ZM121.556 14.4824H112.371V15.4346H120.398V15.7861C120.391 17.3462 120.391 19.1699 119.9 21.6602L121.072 21.792C121.541 19.1699 121.541 17.3828 121.556 15.7861V14.4824ZM111.111 24.3408H122.977V23.3887H116.897V18.7305H115.77V23.3887H111.111V24.3408ZM128.733 17.1631V15.4639H131.839V14.5117H124.5V15.4639H127.576V17.1631C127.569 19.4189 125.943 21.8799 124.075 22.7734L124.764 23.6816C126.25 22.9346 127.569 21.2793 128.177 19.3677C128.785 21.1694 130.096 22.6709 131.619 23.3594L132.264 22.4512C130.345 21.6235 128.741 19.375 128.733 17.1631ZM133.655 26.1865H134.812V13.1641H133.655V26.1865Z" fill="black"/>
</svg>
