<svg width="65" height="65" viewBox="0 0 65 65" fill="none" xmlns="http://www.w3.org/2000/svg">
<rect width="65" height="65" fill="#F4F4F4"/>
<path fill-rule="evenodd" clip-rule="evenodd" d="M11 21C11 19.3431 12.3431 18 14 18H51.4286C53.0854 18 54.4286 19.3431 54.4286 21V43.9524C54.4286 45.6092 53.0854 46.9524 51.4286 46.9524H36.8931L32.7142 54.1905L28.5353 46.9524H14C12.3431 46.9524 11 45.6092 11 43.9524V21ZM20.486 36.3997H18.2381V25.2381H20.5168V29.4314H20.5783C20.894 28.7531 21.556 27.9206 22.9648 27.9206C24.8123 27.9206 26.3597 29.3543 26.3674 32.2218C26.3597 35.0199 24.8739 36.5385 22.9648 36.5385C21.6022 36.5385 20.9094 35.7522 20.5783 35.0585H20.486V36.3997ZM22.2411 29.7397C21.1095 29.7397 20.4629 30.7033 20.4706 32.2064C20.4629 33.7172 21.1172 34.7116 22.2411 34.7193C23.4036 34.7116 24.0348 33.6864 24.0271 32.2064C24.0348 30.7495 23.419 29.7397 22.2411 29.7397ZM27.83 25.2381H30.1087V36.3997H27.83V25.2381ZM35.636 36.5693C38.1687 36.5616 39.7391 34.8272 39.7468 32.2372C39.7391 29.655 38.1687 27.9206 35.636 27.9206C33.111 27.9206 31.5328 29.655 31.5405 32.2372C31.5328 34.8272 33.111 36.5616 35.636 36.5693ZM33.85 32.2372C33.85 30.7649 34.4581 29.6627 35.6514 29.6627C36.8138 29.6627 37.4296 30.7649 37.4219 32.2372C37.4296 33.7018 36.8138 34.7887 35.6514 34.7964C34.4581 34.7887 33.85 33.7018 33.85 32.2372ZM49 36.4922C48.9923 38.6274 47.3141 39.7143 44.9354 39.7143C42.6259 39.7143 41.2017 38.6737 41.0709 37.0935H43.3187C43.4419 37.7641 44.0732 38.0647 44.9816 38.0647C46.0362 38.0647 46.7444 37.6099 46.7521 36.446V34.9197H46.6444C46.3441 35.5981 45.6051 36.2841 44.2579 36.2764C42.3719 36.2841 40.8553 34.9506 40.8553 32.1602C40.8553 29.3312 42.4104 27.9206 44.2579 27.9206C45.659 27.9206 46.3364 28.7531 46.6444 29.4314H46.7367V28.0285H49V36.4922ZM44.9662 29.7397C43.8037 29.7397 43.1879 30.7495 43.1956 32.191C43.1879 33.6401 43.8114 34.5574 44.9662 34.5651C46.1055 34.5574 46.7521 33.6787 46.7521 32.191C46.7521 30.7033 46.1132 29.7397 44.9662 29.7397Z" fill="black"/>
</svg>
