<svg width="190" height="40" viewBox="0 0 190 40" fill="none" xmlns="http://www.w3.org/2000/svg">
<rect x="5" width="180" height="40" fill="#F4F4F4"/>
<path d="M12.0195 12.5859H10.7246V27.3779H12.0195V19.5586H14.4932V18.4629H12.0195V12.5859ZM1.17871 15.043H6.59082V18.1641H1.21191V23.8086H2.39062C5.23779 23.792 7.20508 23.6841 9.5293 23.2607L9.39648 22.1816C7.16357 22.5967 5.24609 22.7046 2.50684 22.6963V19.2432H7.88574V13.9639H1.17871V15.043ZM27.459 12.5859H26.1475V27.3779H27.459V12.5859ZM15.8379 18.8779C15.8462 22.0239 17.4067 24.0161 19.6064 24.0078C21.7979 24.0161 23.3833 22.0239 23.375 18.8779C23.3833 15.7402 21.7979 13.7397 19.6064 13.7314C17.4067 13.7397 15.8462 15.7402 15.8379 18.8779ZM17.0996 18.8779C17.0996 16.479 18.1289 14.9019 19.6064 14.8936C21.0923 14.9019 22.1133 16.479 22.1133 18.8779C22.1133 21.2769 21.0923 22.854 19.6064 22.8457C18.1289 22.854 17.0996 21.2769 17.0996 18.8779ZM42.168 13.4326H31.2441V14.5117H33.5352V18.5625H31.2939V19.6084H42.1182V18.5625H39.8936V14.5117H42.168V13.4326ZM29.9658 22.4307H36.0586V27.3447H37.3369V22.4307H43.4795V21.335H29.9658V22.4307ZM34.8301 18.5625V14.5117H38.6152V18.5625H34.8301ZM52.9092 13.7314C50.7261 13.7397 49.1987 15.7402 49.207 18.8779C49.1987 22.0239 50.7261 24.0161 52.9092 24.0078C54.9678 24.0161 56.4453 22.2065 56.5864 19.3096H59.8818V27.3779H61.1768V12.5859H59.8818V18.2305H56.5698C56.3706 15.4663 54.918 13.7397 52.9092 13.7314ZM50.4521 18.8779C50.4604 16.479 51.4565 14.9019 52.9092 14.8936C54.3535 14.9019 55.3662 16.479 55.3662 18.8779C55.3662 21.2769 54.3535 22.854 52.9092 22.8457C51.4565 22.854 50.4604 21.2769 50.4521 18.8779ZM75.8027 13.0508H64.8955V14.0801H67.1699V16.9355H64.9453V17.9482H75.7529V16.9355H73.5283V14.0801H75.8027V13.0508ZM63.6338 20.2393H77.0811V19.1934H63.6338V20.2393ZM65.2607 22.5469H74.0762V23.8252H65.2939V27.1787H75.8027V26.1826H66.5889V24.7715H75.3545V21.5674H65.2607V22.5469ZM68.4648 16.9355V14.0801H72.2334V16.9355H68.4648ZM87.7891 16.5537V13.8643H86.4609V16.5537C86.4526 19.2764 84.7427 22.1152 82.5762 23.1777L83.4229 24.2236C85.0996 23.3354 86.4858 21.4429 87.1416 19.2349C87.7974 21.335 89.1836 23.0947 90.8604 23.958L91.6406 22.8955C89.499 21.916 87.7808 19.2266 87.7891 16.5537ZM90.0303 18.6953H93.5332V27.3779H94.8281V12.5859H93.5332V17.6328H90.0303V18.6953ZM109.454 12.5859H108.143V27.3779H109.454V12.5859ZM98.1484 23.8086H105.121V13.8477H103.843V17.749H99.4434V13.8477H98.1484V23.8086ZM99.4434 22.7129V18.7949H103.843V22.7129H99.4434ZM119.332 14.7607V13.6318H117.971V14.7607C117.962 17.3008 115.099 19.5337 112.542 20.0234L113.14 21.1191C115.373 20.5962 117.705 19.019 118.668 16.8525C119.623 19.019 121.963 20.6045 124.196 21.1191L124.794 20.0234C122.229 19.542 119.34 17.2925 119.332 14.7607ZM111.978 25.3359H125.491V24.2568H111.978V25.3359ZM143.105 12.5859H141.794V27.3779H143.105V12.5859ZM131.484 18.8779C131.493 22.0239 133.053 24.0161 135.253 24.0078C137.444 24.0161 139.03 22.0239 139.021 18.8779C139.03 15.7402 137.444 13.7397 135.253 13.7314C133.053 13.7397 131.493 15.7402 131.484 18.8779ZM132.746 18.8779C132.746 16.479 133.775 14.9019 135.253 14.8936C136.739 14.9019 137.76 16.479 137.76 18.8779C137.76 21.2769 136.739 22.854 135.253 22.8457C133.775 22.854 132.746 21.2769 132.746 18.8779ZM159.076 19.8906H155.739V17.8071C156.901 17.3423 157.557 16.5952 157.565 15.6074C157.557 13.8726 155.565 12.8765 152.353 12.8682C149.115 12.8765 147.123 13.8726 147.123 15.6074C147.123 16.6035 147.787 17.3506 148.966 17.8071V19.8906H145.629V20.9697H159.076V19.8906ZM147.256 24.7051C147.248 26.3901 149.148 27.3115 152.353 27.3115C155.515 27.3115 157.416 26.3901 157.433 24.7051C157.416 23.02 155.515 22.0903 152.353 22.0986C149.148 22.0903 147.248 23.02 147.256 24.7051ZM148.468 15.6074C148.459 14.5449 149.937 13.8975 152.353 13.8975C154.743 13.8975 156.229 14.5449 156.237 15.6074C156.229 16.6865 154.743 17.3091 152.353 17.3174C149.937 17.3091 148.459 16.6865 148.468 15.6074ZM148.584 24.7051C148.567 23.7007 149.987 23.1113 152.353 23.0947C154.693 23.1113 156.113 23.7007 156.121 24.7051C156.113 25.7095 154.693 26.3071 152.353 26.2988C149.987 26.3071 148.567 25.7095 148.584 24.7051ZM150.261 19.8906V18.1641C150.883 18.272 151.581 18.3301 152.353 18.3301C153.125 18.3301 153.822 18.272 154.444 18.1558V19.8906H150.261ZM174.051 14.877H171.859V12.5859H170.564V21.3682H171.859V19.127H174.051V18.0146H171.859V15.9395H174.051V14.877ZM160.604 16.9521C160.595 19.0273 162.239 20.4468 164.472 20.4551C166.721 20.4468 168.34 19.0273 168.356 16.9521C168.34 14.9019 166.721 13.4741 164.472 13.4824C162.239 13.4741 160.595 14.9019 160.604 16.9521ZM161.882 16.9521C161.874 15.5659 162.978 14.603 164.472 14.5947C165.982 14.603 167.07 15.5659 167.078 16.9521C167.07 18.3716 165.982 19.3428 164.472 19.3262C162.978 19.3428 161.874 18.3716 161.882 16.9521ZM162.197 23.1279H170.564V27.3447H171.859V22.0488H162.197V23.1279ZM183.198 13.7314H175.844V14.8271H181.912C181.895 15.7651 181.862 17.0186 181.505 18.7783L182.816 18.8779C183.19 16.9521 183.19 15.4829 183.198 14.5117V13.7314ZM174.931 20.2559L175.063 21.335C177.695 21.3267 181.248 21.2686 184.344 20.7373L184.261 19.7744C182.725 19.9902 181.032 20.1064 179.396 20.1729V17.002H178.102V20.2144C176.964 20.2476 175.885 20.2559 174.931 20.2559ZM177.205 27.0293H187.066V25.9336H178.517V22.6963H177.205V27.0293ZM185.257 23.6924H186.585V18.5127H188.743V17.4004H186.585V12.5859H185.257V23.6924Z" fill="black"/>
</svg>
