<svg width="648" height="148" viewBox="0 0 648 148" fill="none" xmlns="http://www.w3.org/2000/svg">
<path d="M411 78V93" stroke="black"/>
<path d="M209 106V121" stroke="black"/>
<path d="M467 106V121" stroke="black"/>
<path d="M231.393 113.078H226.017V111.789H229.986V110.866H222.252V109.577H229.562V108.698H222.252V107.482H229.913V106.545H221.095V111.789H224.874V113.078H219.513V114.016H231.393V113.078ZM220.963 117.077C220.956 118.447 222.574 119.157 225.46 119.157C228.316 119.157 229.928 118.447 229.942 117.077C229.928 115.722 228.316 114.982 225.46 114.997C222.574 114.982 220.956 115.722 220.963 117.077ZM222.12 117.077C222.105 116.301 223.307 115.869 225.46 115.861C227.591 115.869 228.778 116.301 228.785 117.077C228.778 117.868 227.591 118.278 225.46 118.264C223.307 118.278 222.105 117.868 222.12 117.077ZM243.243 106.179H242.101V115.729H243.243V106.179ZM232.623 112.946L233.253 113.84C234.776 113.232 235.963 111.95 236.527 110.354C237.105 111.855 238.277 113.027 239.786 113.605L240.387 112.683C238.446 111.979 237.091 110.2 237.105 108.215V106.911H235.934V108.215C235.934 110.273 234.593 112.177 232.623 112.946ZM234.835 118.908H243.653V117.941H235.978V114.851H234.835V118.908ZM252.896 107.409H245.865V108.347H247.184V112.836C246.59 112.851 246.026 112.858 245.499 112.858L245.631 113.811C247.894 113.818 250.956 113.752 253.6 113.342L253.512 112.478C252.889 112.551 252.23 112.617 251.563 112.661V108.347H252.896V107.409ZM247.491 118.908H256.236V117.941H248.619V114.851H247.491V118.908ZM248.312 112.814V108.347H250.436V112.734C249.725 112.771 249.007 112.8 248.312 112.814ZM254.493 115.759H255.636V111.115H257.599V110.134H255.636V106.179H254.493V115.759ZM269.581 106.164H268.468V111.335H266.651V106.442H265.553V118.527H266.651V112.287H268.468V119.187H269.581V106.164ZM258.902 115.686H263.883V107.688H258.902V115.686ZM259.986 114.763V108.61H262.799V114.763H259.986ZM274.972 106.779C272.987 106.772 271.581 108.017 271.588 109.782C271.581 111.569 272.987 112.8 274.972 112.8C276.737 112.8 278.077 111.774 278.304 110.236H281.021V113.151H282.179V106.164H281.021V109.284H278.297C278.048 107.79 276.715 106.772 274.972 106.779ZM272.687 109.782C272.687 108.581 273.631 107.746 274.972 107.761C276.283 107.746 277.228 108.581 277.228 109.782C277.228 110.969 276.283 111.826 274.972 111.833C273.631 111.826 272.687 110.969 272.687 109.782ZM273.785 119.011H282.179V113.811H281.021V115.466H274.942V113.811H273.785V119.011ZM274.942 118.073V116.389H281.021V118.073H274.942ZM299.244 106.164H298.146V119.187H299.244V106.164ZM287.95 115.715L288.683 116.579C289.986 115.766 290.931 114.235 291.4 112.441C291.854 114.096 292.762 115.502 294.044 116.271L294.747 115.422C292.953 114.382 291.935 112.133 291.935 109.885V108.654H294.322V107.702H288.316V108.654H290.821V109.885C290.829 112.25 289.767 114.631 287.95 115.715ZM293.326 111.804H295.523V118.513H296.607V106.486H295.523V110.866H293.326V111.804ZM305.309 118H312.193V116.828H307.14V116.74L309.571 114.235C311.446 112.302 311.996 111.379 312.003 110.192C311.996 108.544 310.633 107.248 308.707 107.248C306.788 107.248 305.338 108.508 305.353 110.383H306.598C306.605 109.196 307.396 108.398 308.663 108.391C309.857 108.398 310.765 109.101 310.772 110.192C310.765 111.174 310.165 111.892 308.912 113.225L305.294 117.033L305.309 118ZM317.584 118.146C319.935 118.146 321.29 116.169 321.29 112.697C321.29 109.255 319.913 107.248 317.584 107.248C315.248 107.248 313.871 109.255 313.878 112.697C313.871 116.169 315.233 118.146 317.584 118.146ZM315.152 112.697C315.16 109.951 316.061 108.398 317.584 108.391C319.107 108.398 320.008 109.951 320.001 112.697C320.008 115.444 319.115 116.975 317.584 116.975C316.046 116.975 315.16 115.444 315.152 112.697ZM323.048 118H329.933V116.828H324.879V116.74L327.311 114.235C329.186 112.302 329.735 111.379 329.742 110.192C329.735 108.544 328.373 107.248 326.446 107.248C324.527 107.248 323.077 108.508 323.092 110.383H324.337C324.344 109.196 325.135 108.398 326.402 108.391C327.596 108.398 328.504 109.101 328.512 110.192C328.504 111.174 327.904 111.892 326.651 113.225L323.033 117.033L323.048 118ZM331.852 118H338.736V116.828H333.683V116.74L336.114 114.235C337.989 112.302 338.539 111.379 338.546 110.192C338.539 108.544 337.176 107.248 335.25 107.248C333.331 107.248 331.881 108.508 331.896 110.383H333.141C333.148 109.196 333.939 108.398 335.206 108.391C336.4 108.398 337.308 109.101 337.315 110.192C337.308 111.174 336.708 111.892 335.455 113.225L331.837 117.033L331.852 118ZM345.226 112.888H340.582V114.045H345.226V112.888ZM351.261 109.665V107.292H350.089V109.665C350.082 112.067 348.573 114.572 346.661 115.51L347.408 116.433C348.888 115.649 350.111 113.979 350.689 112.031C351.268 113.884 352.491 115.437 353.971 116.198L354.659 115.261C352.77 114.396 351.253 112.023 351.261 109.665ZM353.238 111.555H356.329V119.216H357.472V106.164H356.329V110.617H353.238V111.555ZM365.572 106.325C362.665 106.325 360.958 107.131 360.958 108.581C360.958 110.046 362.665 110.844 365.572 110.852C368.465 110.844 370.165 110.046 370.172 108.581C370.165 107.131 368.465 106.325 365.572 106.325ZM359.64 112.639H364.986V113.869H361.075V114.748H368.854V115.935H361.104V119.04H370.377V118.132H362.247V116.784H369.981V113.869H366.129V112.639H371.505V111.716H359.64V112.639ZM362.159 108.581C362.145 107.724 363.412 107.219 365.572 107.204C367.733 107.219 368.993 107.724 369 108.581C368.993 109.475 367.733 109.958 365.572 109.973C363.412 109.958 362.145 109.475 362.159 108.581ZM382.96 106.867H374.112V107.819H381.817V107.834C381.825 108.845 381.825 110.017 381.458 111.657H372.604V112.609H384.527V111.657H382.616C382.96 110.031 382.96 108.845 382.96 107.834V106.867ZM374.068 119.011H383.019V114.411H374.068V119.011ZM375.211 118.073V115.319H381.876V118.073H375.211ZM390.006 109.284V108.859H392.95V107.922H390.035V106.252H388.878V107.922H385.934V108.859H388.878V109.284C388.871 111.123 387.538 112.741 385.611 113.386L386.183 114.279C387.713 113.745 388.9 112.631 389.464 111.196C390.05 112.536 391.244 113.569 392.745 114.06L393.316 113.137C391.383 112.529 390.013 111.02 390.006 109.284ZM387.999 118.908H396.729V117.941H389.156V115.026H387.999V118.908ZM392.496 111.145H395.206V115.905H396.363V106.179H395.206V110.192H392.496V111.145ZM403.57 112.888H398.927V114.045H403.57V112.888ZM405.006 118H411.891V116.828H406.837V116.74L409.269 114.235C411.144 112.302 411.693 111.379 411.7 110.192C411.693 108.544 410.331 107.248 408.404 107.248C406.485 107.248 405.035 108.508 405.05 110.383H406.295C406.302 109.196 407.093 108.398 408.36 108.391C409.554 108.398 410.462 109.101 410.47 110.192C410.462 111.174 409.862 111.892 408.609 113.225L404.991 117.033L405.006 118ZM417.281 118.146C419.632 118.146 420.987 116.169 420.987 112.697C420.987 109.255 419.61 107.248 417.281 107.248C414.945 107.248 413.568 109.255 413.575 112.697C413.568 116.169 414.93 118.146 417.281 118.146ZM414.85 112.697C414.857 109.951 415.758 108.398 417.281 108.391C418.805 108.398 419.706 109.951 419.698 112.697C419.706 115.444 418.812 116.975 417.281 116.975C415.743 116.975 414.857 115.444 414.85 112.697ZM426.29 118.146C428.502 118.146 430.055 116.909 430.069 115.188C430.055 113.818 429.103 112.683 427.901 112.492V112.434C428.941 112.192 429.645 111.218 429.659 110.061C429.645 108.442 428.224 107.248 426.29 107.248C424.349 107.248 422.928 108.442 422.936 110.061C422.928 111.218 423.624 112.192 424.679 112.434V112.492C423.47 112.683 422.518 113.818 422.525 115.188C422.518 116.909 424.056 118.146 426.29 118.146ZM423.844 115.114C423.822 113.942 424.869 113.078 426.29 113.078C427.718 113.078 428.751 113.942 428.751 115.114C428.751 116.228 427.806 116.982 426.29 116.989C424.767 116.982 423.822 116.228 423.844 115.114ZM424.21 110.163C424.217 109.101 425.03 108.383 426.29 108.391C427.528 108.383 428.37 109.101 428.37 110.163C428.37 111.232 427.499 111.958 426.29 111.965C425.074 111.958 424.217 111.232 424.21 110.163ZM435.504 118.146C437.621 118.146 439.203 116.857 439.195 115.114C439.203 113.767 438.368 112.778 436.983 112.565V112.492C438.097 112.177 438.8 111.298 438.785 110.09C438.8 108.574 437.569 107.248 435.548 107.248C433.666 107.248 432.098 108.376 432.032 110.061H433.307C433.365 109.021 434.398 108.398 435.533 108.391C436.742 108.398 437.518 109.101 437.511 110.163C437.518 111.254 436.617 111.979 435.328 111.979H434.464V113.137H435.328C436.976 113.144 437.899 113.957 437.906 115.114C437.899 116.22 436.888 116.975 435.489 116.975C434.222 116.975 433.219 116.345 433.146 115.334H431.812C431.878 117.019 433.395 118.146 435.504 118.146ZM455.646 108.098H450.885V106.384H449.757V108.098H444.981V109.05H455.646V108.098ZM444.396 117.663H456.319V116.711H450.885V114.88C453.185 114.755 454.613 113.854 454.605 112.39C454.613 110.844 452.95 109.929 450.328 109.943C447.669 109.929 446.036 110.844 446.051 112.39C446.036 113.854 447.435 114.755 449.757 114.88V116.711H444.396V117.663ZM447.208 112.39C447.193 111.423 448.387 110.852 450.328 110.852C452.247 110.852 453.441 111.423 453.434 112.39C453.441 113.378 452.247 113.95 450.328 113.957C448.387 113.95 447.193 113.378 447.208 112.39Z" fill="black"/>
<path d="M4.89258 109.665V107.292H3.76465V109.665C3.75 112.045 2.24121 114.543 0.336914 115.48L1.06934 116.403C2.53418 115.62 3.76465 113.972 4.34326 112.053C4.92188 113.862 6.12305 115.407 7.55859 116.154L8.26172 115.231C6.40869 114.323 4.89258 111.958 4.89258 109.665ZM9.46289 119.187H10.6055V112.448H12.7881V111.452H10.6055V106.164H9.46289V119.187ZM17.0801 106.779C15.0952 106.772 13.689 108.017 13.6963 109.782C13.689 111.569 15.0952 112.8 17.0801 112.8C18.8452 112.8 20.1855 111.774 20.4126 110.236H23.1299V113.151H24.2871V106.164H23.1299V109.284H20.4053C20.1562 107.79 18.8232 106.772 17.0801 106.779ZM14.7949 109.782C14.7949 108.581 15.7397 107.746 17.0801 107.761C18.3911 107.746 19.3359 108.581 19.3359 109.782C19.3359 110.969 18.3911 111.826 17.0801 111.833C15.7397 111.826 14.7949 110.969 14.7949 109.782ZM15.8936 119.011H24.2871V113.811H23.1299V115.466H17.0508V113.811H15.8936V119.011ZM17.0508 118.073V116.389H23.1299V118.073H17.0508ZM30.8643 110.163V108.464H33.7939V107.512H26.7041V108.464H29.7363V110.163C29.7217 112.382 28.1104 114.858 26.2354 115.773L26.9385 116.682C28.396 115.935 29.6997 114.25 30.3003 112.338C30.8862 114.104 32.124 115.642 33.5889 116.359L34.248 115.451C32.3584 114.55 30.8496 112.25 30.8643 110.163ZM35.3906 119.187H36.5332V112.419H38.7158V111.438H36.5332V106.164H35.3906V119.187ZM51.2988 112.36H39.4189V113.327H51.2988V112.36ZM40.8545 116.813C40.8472 118.322 42.5391 119.157 45.3516 119.157C48.1421 119.157 49.8193 118.322 49.834 116.813C49.8193 115.319 48.1421 114.47 45.3516 114.47C42.5391 114.47 40.8472 115.319 40.8545 116.813ZM40.9277 111.115H49.9072V110.178H42.0557V107.658H49.8193V106.691H40.9277V111.115ZM42.0264 116.813C42.0117 115.905 43.2642 115.378 45.3516 115.363C47.417 115.378 48.6694 115.905 48.6768 116.813C48.6694 117.729 47.417 118.249 45.3516 118.249C43.2642 118.249 42.0117 117.729 42.0264 116.813ZM64.292 113.342H58.8867V111.965H63.0322V111.042H55.0635V109.65H62.7539V106.501H53.877V107.438H61.5967V108.786H53.9209V111.965H57.7588V113.342H52.3682V114.294H64.292V113.342ZM53.7012 116.228H61.6699V119.069H62.8271V115.29H53.7012V116.228ZM76.1426 106.179H74.9854V109.841H71.9092V107.043H70.7812V109.357H67.1484V107.043H66.0059V113.591H71.9092V110.808H74.9854V115.817H76.1426V106.179ZM67.1484 112.639V110.266H70.7812V112.639H67.1484ZM67.7197 118.908H76.4355V117.941H68.877V114.865H67.7197V118.908ZM89.5605 108.098H84.7998V106.384H83.6719V108.098H78.8965V109.05H89.5605V108.098ZM78.3105 117.663H90.2344V116.711H84.7998V114.88C87.0996 114.755 88.5278 113.854 88.5205 112.39C88.5278 110.844 86.8652 109.929 84.2432 109.943C81.5845 109.929 79.9512 110.844 79.9658 112.39C79.9512 113.854 81.3501 114.755 83.6719 114.88V116.711H78.3105V117.663ZM81.123 112.39C81.1084 111.423 82.3022 110.852 84.2432 110.852C86.1621 110.852 87.356 111.423 87.3486 112.39C87.356 113.378 86.1621 113.95 84.2432 113.957C82.3022 113.95 81.1084 113.378 81.123 112.39ZM99.1992 118.146C101.433 118.168 102.891 116.572 102.891 114.572C102.891 112.521 101.316 111.057 99.4336 111.057C98.291 111.057 97.3169 111.577 96.709 112.463H96.5771C96.5698 109.907 97.6172 108.42 99.3604 108.42C100.54 108.42 101.257 109.123 101.499 110.061H102.803C102.532 108.398 101.228 107.248 99.3604 107.248C96.8701 107.248 95.332 109.35 95.332 113.107C95.332 117.033 97.3608 118.125 99.1992 118.146ZM96.7529 114.602C96.7676 113.349 97.8369 112.221 99.2285 112.214C100.613 112.221 101.609 113.283 101.616 114.587C101.609 115.905 100.569 116.982 99.1992 116.989C97.7783 116.982 96.7603 115.847 96.7529 114.602ZM108.164 118.146C110.281 118.146 111.819 116.667 111.826 114.616C111.819 112.551 110.332 111.057 108.311 111.057C107.563 111.057 106.853 111.306 106.377 111.672H106.274L106.67 108.566H111.313V107.395H105.571L104.824 113.195H106.099C106.487 112.507 107.183 112.229 108.076 112.243C109.504 112.25 110.537 113.269 110.537 114.646C110.537 115.979 109.541 116.982 108.164 116.989C107.014 116.982 106.091 116.279 105.996 115.334H104.722C104.802 116.967 106.252 118.146 108.164 118.146ZM117.188 107.248C114.932 107.226 113.481 108.83 113.481 110.808C113.481 112.851 115.056 114.309 116.953 114.309C118.081 114.309 119.055 113.781 119.663 112.902H119.81C119.795 115.48 118.74 116.975 117.012 116.975C115.833 116.975 115.107 116.271 114.873 115.319H113.569C113.833 117.004 115.144 118.146 117.012 118.146C119.495 118.146 121.04 116.044 121.04 112.272C121.04 108.369 119.011 107.27 117.188 107.248ZM114.771 110.793C114.756 109.482 115.803 108.405 117.188 108.405C118.586 108.405 119.604 109.548 119.604 110.764C119.604 112.009 118.528 113.151 117.144 113.151C115.759 113.151 114.763 112.104 114.771 110.793ZM127.427 112.888H122.783V114.045H127.427V112.888ZM132.891 118.146C135.103 118.146 136.655 116.909 136.67 115.188C136.655 113.818 135.703 112.683 134.502 112.492V112.434C135.542 112.192 136.245 111.218 136.26 110.061C136.245 108.442 134.824 107.248 132.891 107.248C130.95 107.248 129.529 108.442 129.536 110.061C129.529 111.218 130.225 112.192 131.279 112.434V112.492C130.071 112.683 129.119 113.818 129.126 115.188C129.119 116.909 130.657 118.146 132.891 118.146ZM130.444 115.114C130.422 113.942 131.47 113.078 132.891 113.078C134.319 113.078 135.352 113.942 135.352 115.114C135.352 116.228 134.407 116.982 132.891 116.989C131.367 116.982 130.422 116.228 130.444 115.114ZM130.811 110.163C130.818 109.101 131.631 108.383 132.891 108.391C134.128 108.383 134.971 109.101 134.971 110.163C134.971 111.232 134.099 111.958 132.891 111.965C131.675 111.958 130.818 111.232 130.811 110.163ZM142.134 118.146C144.368 118.168 145.825 116.572 145.825 114.572C145.825 112.521 144.25 111.057 142.368 111.057C141.226 111.057 140.251 111.577 139.644 112.463H139.512C139.504 109.907 140.552 108.42 142.295 108.42C143.474 108.42 144.192 109.123 144.434 110.061H145.737C145.466 108.398 144.163 107.248 142.295 107.248C139.805 107.248 138.267 109.35 138.267 113.107C138.267 117.033 140.295 118.125 142.134 118.146ZM139.688 114.602C139.702 113.349 140.771 112.221 142.163 112.214C143.547 112.221 144.543 113.283 144.551 114.587C144.543 115.905 143.503 116.982 142.134 116.989C140.713 116.982 139.695 115.847 139.688 114.602ZM152.212 112.888H147.568V114.045H152.212V112.888ZM157.603 118.146C159.954 118.146 161.309 116.169 161.309 112.697C161.309 109.255 159.932 107.248 157.603 107.248C155.266 107.248 153.889 109.255 153.896 112.697C153.889 116.169 155.251 118.146 157.603 118.146ZM155.171 112.697C155.178 109.951 156.079 108.398 157.603 108.391C159.126 108.398 160.027 109.951 160.02 112.697C160.027 115.444 159.133 116.975 157.603 116.975C156.064 116.975 155.178 115.444 155.171 112.697ZM163.066 118H169.951V116.828H164.897V116.74L167.329 114.235C169.204 112.302 169.753 111.379 169.761 110.192C169.753 108.544 168.391 107.248 166.465 107.248C164.546 107.248 163.096 108.508 163.11 110.383H164.355C164.363 109.196 165.154 108.398 166.421 108.391C167.615 108.398 168.523 109.101 168.53 110.192C168.523 111.174 167.922 111.892 166.67 113.225L163.052 117.033L163.066 118ZM175.562 118.146C177.795 118.168 179.253 116.572 179.253 114.572C179.253 112.521 177.678 111.057 175.796 111.057C174.653 111.057 173.679 111.577 173.071 112.463H172.939C172.932 109.907 173.979 108.42 175.723 108.42C176.902 108.42 177.62 109.123 177.861 110.061H179.165C178.894 108.398 177.59 107.248 175.723 107.248C173.232 107.248 171.694 109.35 171.694 113.107C171.694 117.033 173.723 118.125 175.562 118.146ZM173.115 114.602C173.13 113.349 174.199 112.221 175.591 112.214C176.975 112.221 177.971 113.283 177.979 114.587C177.971 115.905 176.931 116.982 175.562 116.989C174.141 116.982 173.123 115.847 173.115 114.602ZM180.806 115.832H185.947V118H187.207V115.832H188.687V114.675H187.207V107.395H185.581L180.806 114.748V115.832ZM182.227 114.675V114.587L185.815 109.064H185.947V114.675H182.227ZM193.975 118.146C196.187 118.146 197.739 116.909 197.754 115.188C197.739 113.818 196.787 112.683 195.586 112.492V112.434C196.626 112.192 197.329 111.218 197.344 110.061C197.329 108.442 195.908 107.248 193.975 107.248C192.034 107.248 190.613 108.442 190.62 110.061C190.613 111.218 191.309 112.192 192.363 112.434V112.492C191.155 112.683 190.203 113.818 190.21 115.188C190.203 116.909 191.741 118.146 193.975 118.146ZM191.528 115.114C191.506 113.942 192.554 113.078 193.975 113.078C195.403 113.078 196.436 113.942 196.436 115.114C196.436 116.228 195.491 116.982 193.975 116.989C192.451 116.982 191.506 116.228 191.528 115.114ZM191.895 110.163C191.902 109.101 192.715 108.383 193.975 108.391C195.212 108.383 196.055 109.101 196.055 110.163C196.055 111.232 195.183 111.958 193.975 111.965C192.759 111.958 191.902 111.232 191.895 110.163Z" fill="black"/>
<path d="M1.81641 13.2383C1.81641 16.6758 2.73438 19.5469 4.55078 22.0078H6.89453C5.49805 20.1816 4.4043 16.5098 4.41406 13.2383C4.4043 9.95703 5.49805 6.27539 6.89453 4.44922H4.55078C2.73438 6.91016 1.81641 9.78125 1.81641 13.2383ZM24.1602 12.9258H8.06641V14.6836H15V20.7188H17.1484V14.6836H24.1602V12.9258ZM8.90625 10.0352L9.72656 11.7344C12.7051 11.3047 15.0293 9.92773 16.1133 8.02344C17.1875 9.92773 19.5312 11.3047 22.5391 11.7344L23.3203 10.0352C19.8242 9.5957 17.5195 7.73047 17.373 5.79688H22.6758V4.07812H9.55078V5.79688H14.8535C14.6973 7.73047 12.373 9.5957 8.90625 10.0352ZM30.4297 13.2188C30.4297 9.78125 29.5117 6.91016 27.6953 4.44922H25.3516C26.748 6.27539 27.8418 9.94727 27.832 13.2188C27.8418 16.5 26.748 20.1816 25.3516 22.0078H27.6953C29.5117 19.5469 30.4297 16.6758 30.4297 13.2188ZM38.418 6.28516V4.33203H36.2695V6.28516C36.2598 8.24805 35.1465 10.3574 32.793 11.2656L33.9258 12.9062C35.6152 12.2129 36.7285 10.9238 37.334 9.38086C37.959 10.8848 39.0918 12.2031 40.8594 12.8867C42.627 12.2129 43.75 10.8945 44.3652 9.39062C44.9805 10.9434 46.1133 12.2129 47.832 12.9062L48.9453 11.2656C46.582 10.3672 45.4785 8.3457 45.4883 6.28516V4.33203H43.3008V6.28516C43.3008 7.83789 42.5684 9.60547 40.8594 10.6992C39.1406 9.5957 38.3984 7.7793 38.418 6.28516ZM32.832 18.5898H48.9258V16.8125H41.9336V13.5117H39.7852V16.8125H32.832V18.5898ZM55.7031 6.28516V4.33203H53.5547V6.28516C53.5449 8.24805 52.4316 10.3574 50.0781 11.2656L51.2109 12.9062C52.9004 12.2129 54.0137 10.9238 54.6191 9.38086C55.2441 10.8848 56.377 12.2031 58.1445 12.8867C59.9121 12.2129 61.0352 10.8945 61.6504 9.39062C62.2656 10.9434 63.3984 12.2129 65.1172 12.9062L66.2305 11.2656C63.8672 10.3672 62.7637 8.3457 62.7734 6.28516V4.33203H60.5859V6.28516C60.5859 7.83789 59.8535 9.60547 58.1445 10.6992C56.4258 9.5957 55.6836 7.7793 55.7031 6.28516ZM50.1172 18.5898H66.2109V16.8125H59.2188V13.5117H57.0703V16.8125H50.1172V18.5898ZM76.3867 4.80078H68.0273V16.3633H76.3867V4.80078ZM70.1562 14.625V6.5H74.2188V14.625H70.1562ZM79.0625 20.7383H81.2305V11.6953H83.9453V9.85938H81.2305V3.08203H79.0625V20.7383ZM99.8633 3.10156H97.793V14.957H99.8633V3.10156ZM84.668 13.0039L85.7031 14.5664C88.4863 13.3652 90.2734 11.7734 91.3184 9.82031H94.1992V13.375H96.2695V3.39453H94.1992V8.0625H92.0312C92.3535 6.95898 92.5 5.75781 92.5 4.46875H85.5664V6.22656H90.3711C90.3125 6.79297 90.2051 7.33008 90.0488 7.84766L84.7852 8.12109L85.0781 9.89844L89.3164 9.43945C88.418 10.8555 86.9336 12.0469 84.668 13.0039ZM86.8164 18.9609L87.6953 20.6406C90.4883 20.2012 92.6758 18.9121 93.7891 17.125C94.8828 18.9121 97.0801 20.2012 99.8828 20.6406L100.723 18.9609C97.1582 18.4629 94.8438 16.4707 94.8438 14.3906V13.9414H92.7148V14.3906C92.7051 16.4707 90.4004 18.4629 86.8164 18.9609Z" fill="black"/>
<path d="M11.6602 50.1641H10.5615V55.4082H8.64258V50.457H7.58789V62.5127H8.64258V56.3604H10.5615V63.1865H11.6602V50.1641ZM1.01074 59.9639H1.8457C3.84521 59.9565 5.1709 59.9053 6.73828 59.583L6.63574 58.6162C5.18555 58.9092 3.94775 58.9751 2.15332 58.9824V52.7129H5.88867V51.7607H1.01074V59.9639ZM25.415 60.6377H22.002V57.5322H24.2432V56.5801H22.207V52.332H24.2725V51.3799H14.5459V52.332H16.6113V56.5801H14.5752V57.5322H16.8164V60.6377H13.4912V61.5898H25.415V60.6377ZM17.7539 56.5801V52.332H21.0791V56.5801H17.7539ZM17.9736 60.6377V57.5322H20.8594V60.6377H17.9736ZM31.5967 62.0879C32.1167 62.0806 32.5415 61.6558 32.5342 61.1357C32.5415 60.623 32.1167 60.1982 31.5967 60.1982C31.084 60.1982 30.6445 60.623 30.6592 61.1357C30.6445 61.6558 31.084 62.0806 31.5967 62.0879ZM30.6738 55.2471C30.6592 55.7671 31.0986 56.1919 31.6113 56.1992C32.1313 56.1919 32.5562 55.7671 32.5488 55.2471C32.5562 54.7344 32.1313 54.3096 31.6113 54.3096C31.0986 54.3096 30.6592 54.7344 30.6738 55.2471ZM44.3701 52.0098V51.9219H48.5303V50.9844H38.9062V51.9219H43.0811V52.0098C43.0737 53.7529 40.7593 55.2324 38.4961 55.5693L38.9502 56.4775C40.9497 56.1333 42.9346 55.0493 43.7256 53.4819C44.5166 55.0493 46.5015 56.1333 48.5303 56.4775L48.9551 55.5693C46.6846 55.2324 44.3628 53.7529 44.3701 52.0098ZM37.793 58.543H43.1396V63.1865H44.2676V58.543H49.6582V57.5908H37.793V58.543ZM61.4355 50.1641H60.293V63.1865H61.4355V50.1641ZM50.8301 59.627L51.0059 60.6084C53.4302 60.623 56.5796 60.5938 59.5166 60.1104L59.4287 59.2607C56.5869 59.6196 53.3276 59.627 50.8301 59.627ZM51.1084 52.874H59.0918V51.9365H55.6934V50.3105H54.5215V51.9365H51.1084V52.874ZM52.002 56.0527C51.9873 57.5176 53.2617 58.499 55.1074 58.4844C56.9604 58.499 58.2275 57.5176 58.2422 56.0527C58.2275 54.5513 56.9604 53.5991 55.1074 53.5918C53.2617 53.5991 51.9873 54.5513 52.002 56.0527ZM53.0713 56.0527C53.0713 55.1299 53.9062 54.5 55.1074 54.5C56.3086 54.5 57.1362 55.1299 57.1436 56.0527C57.1362 56.9683 56.3086 57.5835 55.1074 57.5908C53.9062 57.5835 53.0713 56.9683 53.0713 56.0527ZM68.1592 53.2549V52.8887H71.1035V51.9512H68.1885V50.252H67.0312V51.9512H64.0869V52.8887H67.0312V53.2549C67.0239 55.0713 65.6763 56.668 63.7354 57.2832L64.3359 58.2207C65.8594 57.6787 67.0459 56.5801 67.6172 55.1592C68.1812 56.4702 69.3311 57.4883 70.8105 57.9863L71.3965 57.0488C69.4702 56.4482 68.1665 54.9248 68.1592 53.2549ZM65.7568 62.9082H74.502V61.9414H66.8848V58.9678H65.7568V62.9082ZM72.7588 59.8027H73.9014V55.1885H75.8643V54.2217H73.9014V50.1641H72.7588V59.8027Z" fill="black"/>
<path d="M5.1123 81.665V79.292H3.94043V81.665C3.93311 84.0674 2.42432 86.5723 0.512695 87.5098L1.25977 88.4326C2.73926 87.6489 3.9624 85.979 4.54102 84.0308C5.11963 85.8838 6.34277 87.4365 7.82227 88.1982L8.51074 87.2607C6.62109 86.3965 5.10498 84.0234 5.1123 81.665ZM7.08984 83.5547H10.1807V91.2158H11.3232V78.1641H10.1807V82.6172H7.08984V83.5547ZM19.4238 78.3252C16.5161 78.3252 14.8096 79.1309 14.8096 80.5811C14.8096 82.0459 16.5161 82.8442 19.4238 82.8516C22.3169 82.8442 24.0161 82.0459 24.0234 80.5811C24.0161 79.1309 22.3169 78.3252 19.4238 78.3252ZM13.4912 84.6387H18.8379V85.8691H14.9268V86.748H22.7051V87.9346H14.9561V91.04H24.2285V90.1318H16.0986V88.7842H23.833V85.8691H19.9805V84.6387H25.3564V83.7158H13.4912V84.6387ZM16.0107 80.5811C15.9961 79.7241 17.2632 79.2188 19.4238 79.2041C21.5845 79.2188 22.8442 79.7241 22.8516 80.5811C22.8442 81.4746 21.5845 81.958 19.4238 81.9727C17.2632 81.958 15.9961 81.4746 16.0107 80.5811ZM38.3203 85.0635H26.4404V85.9863H38.3203V85.0635ZM27.7734 88.1836H35.6104V91.1865H36.7822V87.2607H27.7734V88.1836ZM28.0225 83.8037H36.9141V82.9102H29.1797V81.5771H36.4893V80.6836H29.1797V79.4385H36.8408V78.5156H28.0225V83.8037ZM50.2002 78.1641H49.0576V80.0391H45.9814V78.7793H44.8535V80.6543H41.2207V78.7793H40.0781V84.4482H45.9814V83.3057H49.0576V84.9756H50.2002V78.1641ZM41.2207 83.5107V81.5625H44.8535V83.5107H41.2207ZM41.7627 86.5283H49.0576V87.7881H41.792V91.0107H50.6982V90.0879H42.9346V88.667H50.2002V85.6055H41.7627V86.5283ZM45.9814 82.3975V80.9326H49.0576V82.3975H45.9814ZM57.0117 81.665V79.292H55.8691V81.665C55.8545 84.1333 54.2505 86.6235 52.3096 87.5098L53.042 88.4766C54.5654 87.7075 55.8472 86.0596 56.4478 84.0967C57.0703 85.9497 58.3521 87.4951 59.8389 88.2129L60.542 87.3047C58.623 86.4331 57.0044 84.0454 57.0117 81.665ZM61.9629 91.2158H63.1201V78.1641H61.9629V91.2158ZM79.4678 78.8672H70.6201V79.8193H78.3252V79.834C78.3325 80.8447 78.3325 82.0166 77.9663 83.6572H69.1113V84.6094H81.0352V83.6572H79.1235C79.4678 82.0312 79.4678 80.8447 79.4678 79.834V78.8672ZM70.5762 91.0107H79.5264V86.4111H70.5762V91.0107ZM71.7188 90.0732V87.3193H78.3838V90.0732H71.7188ZM86.5137 81.2842V80.8594H89.458V79.9219H86.543V78.252H85.3857V79.9219H82.4414V80.8594H85.3857V81.2842C85.3784 83.1226 84.0454 84.7412 82.1191 85.3857L82.6904 86.2793C84.2212 85.7446 85.4077 84.6313 85.9717 83.1958C86.5576 84.5361 87.7515 85.5688 89.2529 86.0596L89.8242 85.1367C87.8906 84.5288 86.521 83.02 86.5137 81.2842ZM84.5068 90.9082H93.2373V89.9414H85.6641V87.0264H84.5068V90.9082ZM89.0039 83.1445H91.7139V87.9053H92.8711V78.1787H91.7139V82.1924H89.0039V83.1445ZM105.337 79.0137H96.5332V79.9658H104.194V80.1562C104.194 81.3721 104.194 82.7344 103.799 84.6094H95.0391V85.5615H100.371V91.2158H101.528V85.5615H106.904V84.6094H104.963C105.337 82.7417 105.337 81.3867 105.337 80.1562V79.0137ZM121.846 78.1641H120.703V91.1865H121.846V84.4336H123.955V83.4668H121.846V78.1641ZM111.855 87.8027L112.5 88.7109C116.741 86.6162 118.469 83.2544 118.477 79.5703H112.456V80.5371H117.312C117.048 83.6206 115.217 86.1328 111.855 87.8027ZM129.111 80.625V78.9697H127.983V80.5811C127.976 82.6025 126.672 84.3677 124.688 85.0635L125.317 85.9863C126.855 85.3931 128.035 84.1992 128.584 82.6465C129.163 84.0234 130.312 85.1221 131.792 85.6641L132.378 84.7412C130.459 84.0747 129.104 82.4194 129.111 80.625ZM126.782 90.9082H135.513V89.9414H127.954V86.8652H126.782V90.9082ZM133.77 87.7881H134.912V83.1445H136.875V82.1631H134.912V78.1641H133.77V87.7881ZM148.433 78.1641H147.275V91.2158H148.433V78.1641ZM138.545 87.9785H139.6C142.236 87.9712 143.95 87.8833 145.972 87.5244L145.854 86.5576C143.899 86.9092 142.236 86.9824 139.702 86.9824V80.376H144.741V79.4092H138.545V87.9785ZM155.317 82.1631V80.4639H158.423V79.5117H151.084V80.4639H154.16V82.1631C154.153 84.4189 152.527 86.8799 150.659 87.7734L151.348 88.6816C152.834 87.9346 154.153 86.2793 154.761 84.3677C155.369 86.1694 156.68 87.6709 158.203 88.3594L158.848 87.4512C156.929 86.6235 155.325 84.375 155.317 82.1631ZM160.239 91.1865H161.396V78.1641H160.239V91.1865ZM170.2 78.9697H164.297V84.6826H165.249C167.798 84.6826 169.241 84.6533 171.006 84.3604L170.903 83.4229C169.219 83.7012 167.842 83.7524 165.439 83.7598V82.207H169.849V81.3135H165.439V79.9219H170.2V78.9697ZM165.967 86.7188H173.262V87.9346H165.996V91.04H174.902V90.1172H167.139V88.8135H174.404V85.7959H165.967V86.7188ZM170.757 82.1045H173.262V85.21H174.404V78.1641H173.262V81.167H170.757V82.1045ZM184.57 79.3945H183.237L180.601 81.1523V82.4854L183.179 80.7715H183.237V90H184.57V79.3945ZM198.853 88.6084H193.418V86.1475H197.651V85.1953H189.565V83.0713H197.344V79.1309H188.394V80.083H196.216V82.1338H188.423V86.1475H192.29V88.6084H186.929V89.5752H198.853V88.6084ZM207.876 79.3945H206.543L203.906 81.1523V82.4854L206.484 80.7715H206.543V90H207.876V79.3945ZM210.439 87.832H215.581V90H216.841V87.832H218.32V86.6748H216.841V79.3945H215.215L210.439 86.748V87.832ZM211.86 86.6748V86.5869L215.449 81.0645H215.581V86.6748H211.86ZM220.063 90H226.948V88.8281H221.895V88.7402L224.326 86.2354C226.201 84.3018 226.75 83.3789 226.758 82.1924C226.75 80.5444 225.388 79.248 223.462 79.248C221.543 79.248 220.093 80.5078 220.107 82.3828H221.353C221.36 81.1963 222.151 80.3979 223.418 80.3906C224.612 80.3979 225.52 81.1011 225.527 82.1924C225.52 83.1738 224.919 83.8916 223.667 85.2246L220.049 89.0332L220.063 90ZM242.241 78.1641H241.099V91.1865H242.241V84.4336H244.351V83.4668H242.241V78.1641ZM232.251 87.8027L232.896 88.7109C237.136 86.6162 238.865 83.2544 238.872 79.5703H232.852V80.5371H237.708C237.444 83.6206 235.613 86.1328 232.251 87.8027ZM249.507 80.625V78.9697H248.379V80.5811C248.372 82.6025 247.068 84.3677 245.083 85.0635L245.713 85.9863C247.251 85.3931 248.43 84.1992 248.979 82.6465C249.558 84.0234 250.708 85.1221 252.188 85.6641L252.773 84.7412C250.854 84.0747 249.5 82.4194 249.507 80.625ZM247.178 90.9082H255.908V89.9414H248.35V86.8652H247.178V90.9082ZM254.165 87.7881H255.308V83.1445H257.271V82.1631H255.308V78.1641H254.165V87.7881ZM264.727 79.4092H258.75V87.9932H259.746C262.244 87.9932 263.833 87.9053 265.752 87.5391L265.605 86.5869C263.804 86.9385 262.258 87.019 259.907 87.0117V80.376H264.727V79.4092ZM263.95 83.8623H267.744V91.2158H268.901V78.1641H267.744V82.9102H263.95V83.8623ZM277.544 80.083V79.0869H276.343V80.083C276.335 82.3242 273.809 84.2944 271.553 84.7266L272.08 85.6934C274.05 85.2319 276.108 83.8403 276.958 81.9287C277.8 83.8403 279.866 85.2393 281.836 85.6934L282.363 84.7266C280.1 84.3018 277.551 82.3169 277.544 80.083ZM271.055 89.4141H282.979V88.4619H271.055V89.4141ZM290.771 79.5264H284.868V80.4785H289.629C289.578 81.2769 289.446 82.0459 289.211 82.7783L284.209 83.1152L284.399 84.126L288.86 83.7012C288.069 85.4517 286.597 86.9604 284.15 88.1543L284.795 89.0332C289.482 86.7261 290.764 83.2837 290.771 79.5264ZM292.954 91.1865H294.097V84.4336H296.206V83.4668H294.097V78.1641H292.954V91.1865ZM307.72 78.1641H306.562V91.2158H307.72V78.1641ZM297.466 83.7158C297.473 86.4917 298.85 88.2495 300.791 88.2422C302.725 88.2495 304.124 86.4917 304.116 83.7158C304.124 80.9473 302.725 79.1821 300.791 79.1748C298.85 79.1821 297.473 80.9473 297.466 83.7158ZM298.579 83.7158C298.579 81.5991 299.487 80.2075 300.791 80.2002C302.102 80.2075 303.003 81.5991 303.003 83.7158C303.003 85.8325 302.102 87.2241 300.791 87.2168C299.487 87.2241 298.579 85.8325 298.579 83.7158ZM311.631 78.8672H310.547V84.3311H315.615V78.8672H314.531V80.6104H311.631V78.8672ZM311.631 83.4229V81.4893H314.531V83.4229H311.631ZM312.363 86.4844H319.878V87.7881H312.393V91.04H321.504V90.1025H313.535V88.6377H321.006V85.5615H312.363V86.4844ZM317.095 84.8584H318.179V82.0459H319.907V84.9902H321.006V78.1787H319.907V81.0938H318.179V78.4277H317.095V84.8584ZM333.662 78.1641H332.52V91.2158H333.662V78.1641ZM323.643 80.332H328.55V83.0713H323.672V88.0518H324.756C327.004 88.0518 328.982 87.9565 331.377 87.583L331.26 86.6162C328.931 86.9897 327.004 87.0923 324.844 87.085V84.0088H329.707V79.3799H323.643V80.332ZM343.857 79.3945H342.524L339.888 81.1523V82.4854L342.466 80.7715H342.524V90H343.857V79.3945ZM350.552 82.4121V81.3721H353.511V80.4346H350.581V78.4131H349.424V80.4346H346.45V81.3721H349.438V82.4121C349.431 84.6533 348.01 86.8799 346.099 87.7734L346.758 88.667C348.237 87.9492 349.446 86.4404 350.017 84.624C350.559 86.3013 351.694 87.7295 353.13 88.4326L353.804 87.5391C351.914 86.6309 350.559 84.4995 350.552 82.4121ZM355.151 91.1865H356.294V84.4922H358.477V83.5107H356.294V78.1641H355.151V91.1865ZM363.149 87.832H368.291V90H369.551V87.832H371.03V86.6748H369.551V79.3945H367.925L363.149 86.748V87.832ZM364.57 86.6748V86.5869L368.159 81.0645H368.291V86.6748H364.57ZM376.377 79.3945H375.044L372.407 81.1523V82.4854L374.985 80.7715H375.044V90H376.377V79.3945ZM378.94 87.832H384.082V90H385.342V87.832H386.821V86.6748H385.342V79.3945H383.716L378.94 86.748V87.832ZM380.361 86.6748V86.5869L383.95 81.0645H384.082V86.6748H380.361ZM399.346 80.0977H394.585V78.3838H393.457V80.0977H388.682V81.0498H399.346V80.0977ZM388.096 89.6631H400.02V88.7109H394.585V86.8799C396.885 86.7554 398.313 85.8545 398.306 84.3896C398.313 82.8442 396.65 81.9287 394.028 81.9434C391.37 81.9287 389.736 82.8442 389.751 84.3896C389.736 85.8545 391.135 86.7554 393.457 86.8799V88.7109H388.096V89.6631ZM390.908 84.3896C390.894 83.4229 392.087 82.8516 394.028 82.8516C395.947 82.8516 397.141 83.4229 397.134 84.3896C397.141 85.3784 395.947 85.9497 394.028 85.957C392.087 85.9497 390.894 85.3784 390.908 84.3896Z" fill="black"/>
<path d="M488.646 106.164H487.518V111.423H485.716V106.516H484.617V118.542H485.716V112.375H487.518V119.187H488.646V106.164ZM477.542 115.583L478.216 116.389C481.958 114.301 483.123 111.174 483.138 107.863H478.04V108.815H482.01C481.812 111.511 480.567 113.891 477.542 115.583ZM501.243 106.179H500.101V115.7H501.243V106.179ZM490.799 110.28C490.792 112.177 492.264 113.496 494.212 113.488C496.16 113.496 497.618 112.177 497.625 110.28C497.618 108.405 496.16 107.094 494.212 107.087C492.264 107.094 490.792 108.405 490.799 110.28ZM491.927 110.28C491.912 109.006 492.894 108.098 494.212 108.098C495.508 108.098 496.497 109.006 496.497 110.28C496.497 111.577 495.508 112.478 494.212 112.478C492.894 112.478 491.912 111.577 491.927 110.28ZM492.835 118.908H501.653V117.941H493.978V114.733H492.835V118.908ZM514.251 106.164H513.094V109.562H510.472V110.515H513.094V113.928H514.251V106.164ZM503.514 112.888L504.114 113.811C505.667 113.217 506.875 112.001 507.432 110.478C507.996 111.818 509.131 112.917 510.589 113.444L511.189 112.521C509.285 111.87 507.981 110.251 507.981 108.552V108.083H510.896V107.116H503.88V108.083H506.824V108.566C506.824 110.427 505.447 112.192 503.514 112.888ZM505.564 116.755C505.557 118.293 507.22 119.172 509.93 119.187C512.632 119.172 514.295 118.293 514.295 116.755C514.295 115.224 512.632 114.331 509.93 114.338C507.22 114.331 505.557 115.224 505.564 116.755ZM506.707 116.755C506.7 115.803 507.93 115.231 509.93 115.231C511.922 115.231 513.152 115.803 513.152 116.755C513.152 117.7 511.922 118.271 509.93 118.264C507.93 118.271 506.7 117.7 506.707 116.755ZM528.343 116.564H522.908V113.752H526.878V107.087H525.75V109.445H518.982V107.087H517.825V113.752H521.78V116.564H516.419V117.517H528.343V116.564ZM518.982 112.814V110.383H525.75V112.814H518.982ZM545.071 116.564H539.637V113.752H543.606V107.087H542.479V109.445H535.711V107.087H534.554V113.752H538.509V116.564H533.147V117.517H545.071V116.564ZM535.711 112.814V110.383H542.479V112.814H535.711ZM557.361 108.098H552.601V106.384H551.473V108.098H546.697V109.05H557.361V108.098ZM546.111 117.663H558.035V116.711H552.601V114.88C554.9 114.755 556.329 113.854 556.321 112.39C556.329 110.844 554.666 109.929 552.044 109.943C549.385 109.929 547.752 110.844 547.767 112.39C547.752 113.854 549.151 114.755 551.473 114.88V116.711H546.111V117.663ZM548.924 112.39C548.909 111.423 550.103 110.852 552.044 110.852C553.963 110.852 555.157 111.423 555.149 112.39C555.157 113.378 553.963 113.95 552.044 113.957C550.103 113.95 548.909 113.378 548.924 112.39ZM562.928 108.991V108.83H565.286V107.893H562.928V106.325H561.844V107.893H559.441V108.83H561.844V108.991C561.829 110.646 560.84 112.221 559.178 112.902L559.749 113.767C561.045 113.21 561.961 112.155 562.415 110.881C562.876 112.053 563.785 113.027 565.052 113.532L565.608 112.639C563.953 112.031 562.928 110.529 562.928 108.991ZM561.36 115.788H569.007V119.187H570.135V114.851H561.36V115.788ZM566.224 114.089H567.337V110.617H569.036V114.147H570.135V106.179H569.036V109.665H567.337V106.413H566.224V114.089ZM582.791 106.179H581.648V113.62H582.791V106.179ZM572.347 109.914C572.339 111.701 573.782 112.946 575.76 112.946C577.737 112.946 579.166 111.701 579.173 109.914C579.166 108.098 577.737 106.867 575.76 106.867C573.782 106.867 572.339 108.098 572.347 109.914ZM573.475 109.914C573.46 108.698 574.419 107.841 575.76 107.849C577.085 107.841 578.045 108.698 578.045 109.914C578.045 111.123 577.085 111.972 575.76 111.965C574.419 111.972 573.46 111.123 573.475 109.914ZM574.324 119.011H582.791V114.323H574.324V119.011ZM575.452 118.073V115.261H581.663V118.073H575.452ZM589.412 110.163V108.464H592.342V107.512H585.252V108.464H588.284V110.163C588.27 112.382 586.658 114.858 584.783 115.773L585.486 116.682C586.944 115.935 588.248 114.25 588.848 112.338C589.434 114.104 590.672 115.642 592.137 116.359L592.796 115.451C590.906 114.55 589.397 112.25 589.412 110.163ZM593.938 119.187H595.081V112.419H597.264V111.438H595.081V106.164H593.938V119.187ZM603.108 118.088C603.628 118.081 604.053 117.656 604.046 117.136C604.053 116.623 603.628 116.198 603.108 116.198C602.596 116.198 602.156 116.623 602.171 117.136C602.156 117.656 602.596 118.081 603.108 118.088ZM602.186 111.247C602.171 111.767 602.61 112.192 603.123 112.199C603.643 112.192 604.068 111.767 604.061 111.247C604.068 110.734 603.643 110.31 603.123 110.31C602.61 110.31 602.171 110.734 602.186 111.247ZM621.419 108.142H619.485V106.164H618.343V113.898H619.485V111.877H621.419V110.91H619.485V109.094H621.419V108.142ZM609.554 110.017C609.546 111.826 610.997 113.071 612.967 113.078C614.952 113.071 616.38 111.826 616.395 110.017C616.38 108.2 614.952 106.948 612.967 106.955C610.997 106.948 609.546 108.2 609.554 110.017ZM610.682 110.017C610.674 108.793 611.648 107.922 612.967 107.937C614.3 107.922 615.259 108.793 615.267 110.017C615.259 111.247 614.3 112.097 612.967 112.111C611.648 112.097 610.674 111.247 610.682 110.017ZM610.989 116.74C610.997 118.256 612.652 119.157 615.311 119.157C617.969 119.157 619.603 118.256 619.603 116.74C619.603 115.195 617.969 114.301 615.311 114.294C612.652 114.301 610.997 115.195 610.989 116.74ZM612.146 116.74C612.132 115.795 613.348 115.231 615.311 115.231C617.281 115.231 618.482 115.795 618.489 116.74C618.482 117.678 617.281 118.227 615.311 118.234C613.348 118.227 612.132 117.678 612.146 116.74ZM625.755 107.175C623.821 107.182 622.466 108.947 622.474 111.716C622.466 114.492 623.821 116.25 625.755 116.242C627.674 116.25 629.036 114.492 629.051 111.716C629.036 108.947 627.674 107.182 625.755 107.175ZM623.558 111.716C623.565 109.599 624.466 108.208 625.755 108.2C627.059 108.208 627.938 109.599 627.938 111.716C627.938 113.833 627.059 115.224 625.755 115.217C624.466 115.224 623.565 113.833 623.558 111.716ZM631.204 119.187H632.347V112.36H634.529V111.364H632.347V106.164H631.204V119.187ZM646.028 106.164H644.871V109.562H642.249V110.515H644.871V113.928H646.028V106.164ZM635.291 112.888L635.892 113.811C637.444 113.217 638.653 112.001 639.209 110.478C639.773 111.818 640.909 112.917 642.366 113.444L642.967 112.521C641.062 111.87 639.759 110.251 639.759 108.552V108.083H642.674V107.116H635.657V108.083H638.602V108.566C638.602 110.427 637.225 112.192 635.291 112.888ZM637.342 116.755C637.334 118.293 638.997 119.172 641.707 119.187C644.41 119.172 646.072 118.293 646.072 116.755C646.072 115.224 644.41 114.331 641.707 114.338C638.997 114.331 637.334 115.224 637.342 116.755ZM638.484 116.755C638.477 115.803 639.708 115.231 641.707 115.231C643.699 115.231 644.93 115.803 644.93 116.755C644.93 117.7 643.699 118.271 641.707 118.264C639.708 118.271 638.477 117.7 638.484 116.755Z" fill="black"/>
<path d="M432.66 78.1641H431.562V83.4082H429.643V78.457H428.588V90.5127H429.643V84.3604H431.562V91.1865H432.66V78.1641ZM422.011 87.9639H422.846C424.845 87.9565 426.171 87.9053 427.738 87.583L427.636 86.6162C426.186 86.9092 424.948 86.9751 423.153 86.9824V80.7129H426.889V79.7607H422.011V87.9639ZM446.415 88.6377H443.002V85.5322H445.243V84.5801H443.207V80.332H445.272V79.3799H435.546V80.332H437.611V84.5801H435.575V85.5322H437.816V88.6377H434.491V89.5898H446.415V88.6377ZM438.754 84.5801V80.332H442.079V84.5801H438.754ZM438.974 88.6377V85.5322H441.859V88.6377H438.974ZM462.016 78.1787H460.858V81.8408H457.782V79.043H456.654V81.3574H453.021V79.043H451.879V85.5908H457.782V82.8076H460.858V87.8174H462.016V78.1787ZM453.021 84.6387V82.2656H456.654V84.6387H453.021ZM453.593 90.9082H462.309V89.9414H454.75V86.8652H453.593V90.9082ZM475.434 80.0977H470.673V78.3838H469.545V80.0977H464.77V81.0498H475.434V80.0977ZM464.184 89.6631H476.107V88.7109H470.673V86.8799C472.973 86.7554 474.401 85.8545 474.394 84.3896C474.401 82.8442 472.738 81.9287 470.116 81.9434C467.458 81.9287 465.824 82.8442 465.839 84.3896C465.824 85.8545 467.223 86.7554 469.545 86.8799V88.7109H464.184V89.6631ZM466.996 84.3896C466.981 83.4229 468.175 82.8516 470.116 82.8516C472.035 82.8516 473.229 83.4229 473.222 84.3896C473.229 85.3784 472.035 85.9497 470.116 85.957C468.175 85.9497 466.981 85.3784 466.996 84.3896ZM482.289 90.0879C482.809 90.0806 483.234 89.6558 483.227 89.1357C483.234 88.623 482.809 88.1982 482.289 88.1982C481.776 88.1982 481.337 88.623 481.352 89.1357C481.337 89.6558 481.776 90.0806 482.289 90.0879ZM481.366 83.2471C481.352 83.7671 481.791 84.1919 482.304 84.1992C482.824 84.1919 483.249 83.7671 483.241 83.2471C483.249 82.7344 482.824 82.3096 482.304 82.3096C481.791 82.3096 481.352 82.7344 481.366 83.2471ZM492.426 90.1465C494.777 90.1465 496.132 88.1689 496.132 84.6973C496.132 81.2549 494.755 79.248 492.426 79.248C490.089 79.248 488.712 81.2549 488.72 84.6973C488.712 88.1689 490.075 90.1465 492.426 90.1465ZM489.994 84.6973C490.001 81.9507 490.902 80.3979 492.426 80.3906C493.949 80.3979 494.85 81.9507 494.843 84.6973C494.85 87.4438 493.957 88.9746 492.426 88.9746C490.888 88.9746 490.001 87.4438 489.994 84.6973ZM497.89 90H504.774V88.8281H499.721V88.7402L502.152 86.2354C504.027 84.3018 504.577 83.3789 504.584 82.1924C504.577 80.5444 503.214 79.248 501.288 79.248C499.369 79.248 497.919 80.5078 497.934 82.3828H499.179C499.186 81.1963 499.977 80.3979 501.244 80.3906C502.438 80.3979 503.346 81.1011 503.354 82.1924C503.346 83.1738 502.746 83.8916 501.493 85.2246L497.875 89.0332L497.89 90ZM511.264 84.8877H506.62V86.0449H511.264V84.8877ZM512.699 90H519.584V88.8281H514.53V88.7402L516.962 86.2354C518.837 84.3018 519.386 83.3789 519.394 82.1924C519.386 80.5444 518.024 79.248 516.098 79.248C514.179 79.248 512.729 80.5078 512.743 82.3828H513.988C513.996 81.1963 514.787 80.3979 516.054 80.3906C517.248 80.3979 518.156 81.1011 518.163 82.1924C518.156 83.1738 517.555 83.8916 516.303 85.2246L512.685 89.0332L512.699 90ZM524.975 90.1465C527.326 90.1465 528.681 88.1689 528.681 84.6973C528.681 81.2549 527.304 79.248 524.975 79.248C522.638 79.248 521.261 81.2549 521.269 84.6973C521.261 88.1689 522.624 90.1465 524.975 90.1465ZM522.543 84.6973C522.55 81.9507 523.451 80.3979 524.975 80.3906C526.498 80.3979 527.399 81.9507 527.392 84.6973C527.399 87.4438 526.505 88.9746 524.975 88.9746C523.437 88.9746 522.55 87.4438 522.543 84.6973ZM534.13 90.1465C536.364 90.1685 537.821 88.5718 537.821 86.5723C537.821 84.5215 536.247 83.0566 534.364 83.0566C533.222 83.0566 532.248 83.5767 531.64 84.4629H531.508C531.5 81.9067 532.548 80.4199 534.291 80.4199C535.47 80.4199 536.188 81.123 536.43 82.0605H537.733C537.462 80.3979 536.159 79.248 534.291 79.248C531.801 79.248 530.263 81.3501 530.263 85.1074C530.263 89.0332 532.292 90.1245 534.13 90.1465ZM531.684 86.6016C531.698 85.3491 532.768 84.2212 534.159 84.2139C535.543 84.2212 536.54 85.2832 536.547 86.5869C536.54 87.9053 535.5 88.9819 534.13 88.9893C532.709 88.9819 531.691 87.8467 531.684 86.6016ZM539.975 90H541.352L546.2 80.625V79.3945H539.228V80.5664H544.838V80.6396L539.975 90ZM552.484 84.8877H547.841V86.0449H552.484V84.8877ZM557.904 90.1465C560.021 90.1465 561.603 88.8574 561.596 87.1143C561.603 85.7666 560.768 84.7778 559.384 84.5654V84.4922C560.497 84.1772 561.2 83.2983 561.186 82.0898C561.2 80.5737 559.97 79.248 557.948 79.248C556.066 79.248 554.499 80.376 554.433 82.0605H555.707C555.766 81.0205 556.798 80.3979 557.934 80.3906C559.142 80.3979 559.918 81.1011 559.911 82.1631C559.918 83.2544 559.018 83.9795 557.729 83.9795H556.864V85.1367H557.729C559.376 85.144 560.299 85.957 560.307 87.1143C560.299 88.2202 559.289 88.9746 557.89 88.9746C556.623 88.9746 555.619 88.3447 555.546 87.334H554.213C554.279 89.0186 555.795 90.1465 557.904 90.1465ZM566.972 90.1465C569.323 90.1465 570.678 88.1689 570.678 84.6973C570.678 81.2549 569.301 79.248 566.972 79.248C564.635 79.248 563.258 81.2549 563.266 84.6973C563.258 88.1689 564.621 90.1465 566.972 90.1465ZM564.54 84.6973C564.547 81.9507 565.448 80.3979 566.972 80.3906C568.495 80.3979 569.396 81.9507 569.389 84.6973C569.396 87.4438 568.502 88.9746 566.972 88.9746C565.434 88.9746 564.547 87.4438 564.54 84.6973ZM575.98 90.1465C578.192 90.1465 579.745 88.9087 579.76 87.1875C579.745 85.8179 578.793 84.6826 577.592 84.4922V84.4336C578.632 84.1919 579.335 83.2178 579.35 82.0605C579.335 80.4419 577.914 79.248 575.98 79.248C574.04 79.248 572.619 80.4419 572.626 82.0605C572.619 83.2178 573.314 84.1919 574.369 84.4336V84.4922C573.161 84.6826 572.208 85.8179 572.216 87.1875C572.208 88.9087 573.747 90.1465 575.98 90.1465ZM573.534 87.1143C573.512 85.9424 574.56 85.0781 575.98 85.0781C577.409 85.0781 578.441 85.9424 578.441 87.1143C578.441 88.2275 577.497 88.9819 575.98 88.9893C574.457 88.9819 573.512 88.2275 573.534 87.1143ZM573.9 82.1631C573.908 81.1011 574.721 80.3833 575.98 80.3906C577.218 80.3833 578.061 81.1011 578.061 82.1631C578.061 83.2324 577.189 83.9575 575.98 83.9648C574.765 83.9575 573.908 83.2324 573.9 82.1631ZM585.194 90.1465C587.311 90.1465 588.893 88.8574 588.886 87.1143C588.893 85.7666 588.058 84.7778 586.674 84.5654V84.4922C587.787 84.1772 588.49 83.2983 588.476 82.0898C588.49 80.5737 587.26 79.248 585.238 79.248C583.356 79.248 581.789 80.376 581.723 82.0605H582.997C583.056 81.0205 584.088 80.3979 585.224 80.3906C586.432 80.3979 587.208 81.1011 587.201 82.1631C587.208 83.2544 586.308 83.9795 585.019 83.9795H584.154V85.1367H585.019C586.667 85.144 587.589 85.957 587.597 87.1143C587.589 88.2202 586.579 88.9746 585.18 88.9746C583.913 88.9746 582.909 88.3447 582.836 87.334H581.503C581.569 89.0186 583.085 90.1465 585.194 90.1465Z" fill="black"/>
<path d="M317 133V148" stroke="black"/>
</svg>
