<svg width="376" height="106" viewBox="0 0 376 106" fill="none" xmlns="http://www.w3.org/2000/svg">
<rect x="7" y="29" width="109" height="33" fill="#1DFBB8"/>
<path d="M18.5938 46H26.3281L32.5156 25.0938H32.7969L38.9844 46H46.6719L56.5156 12.0625H47.7031L42.4531 34.6094H42.2188L36.2656 12.0625H29L23.0938 34.5625H22.8125L17.6094 12.0625H8.79688L18.5938 46ZM67.7656 31.4219C67.7656 28.4688 69.5469 26.7109 72.1719 26.6875C74.8438 26.7109 76.3672 28.4219 76.3438 31.2812V46H84.2656V29.7812C84.2656 23.9688 80.7734 20.2188 75.4062 20.2188C71.6094 20.2188 68.9375 22.0703 67.7656 25.1875H67.4844V12.0625H59.8438V46H67.7656V31.4219ZM92.8906 55.5625C98.8672 55.5391 101.727 52.6562 103.156 48.4844L112.812 20.5469H104.469L99.6406 38.8281H99.3594L94.5312 20.5469H86.2812L95.3281 46.8906L95.0469 47.6875C94.3672 49.375 93.3359 49.5156 92.0469 49.5156C91.0859 49.5156 89.9844 49.4922 88.9531 49.4219V55.4219C89.9844 55.5156 91.3906 55.5391 92.8906 55.5625ZM169.391 7.79688H164.234V50.2188H169.391V28.4219H175.906V24.0625H169.391V7.79688ZM137.891 15.7188H152.188V23.3125H137.984V40.2344H141.453C149.164 40.2344 154.93 39.9531 161.469 38.7812L161 34.5625C155.094 35.5938 149.867 35.875 143.141 35.9219V27.4844H157.391V11.5H137.891V15.7188ZM212.938 7.79688H207.688V50.2188H212.938V7.79688ZM179.047 25.8438C179.023 35.0547 183.688 40.8438 190.109 40.8438C196.461 40.8438 201.148 35.0547 201.172 25.8438C201.148 16.7031 196.461 10.8906 190.109 10.8906C183.688 10.8906 179.023 16.7031 179.047 25.8438ZM184.062 25.8438C184.062 19.375 186.523 15.5781 190.109 15.5781C193.672 15.5781 196.109 19.375 196.109 25.8438C196.109 32.3594 193.672 36.1328 190.109 36.1562C186.523 36.1328 184.062 32.3594 184.062 25.8438ZM254.375 9.90625H222.734V14.125H228.547V24.3906H222.922V28.5156H254.047V24.3906H248.469V14.125H254.375V9.90625ZM219.125 36.8125H235.859V50.125H241.016V36.8125H257.844V32.5469H219.125V36.8125ZM233.75 24.3906V14.125H243.312V24.3906H233.75ZM282.219 11.9219H262.156V39.6719H282.219V11.9219ZM267.266 35.5V16H277.016V35.5H267.266ZM288.641 50.1719H293.844V28.4688H300.359V24.0625H293.844V7.79688H288.641V50.1719ZM338.562 7.84375H333.594V36.2969H338.562V7.84375ZM302.094 31.6094L304.578 35.3594C311.258 32.4766 315.547 28.6562 318.055 23.9688H324.969V32.5H329.938V8.54688H324.969V19.75H319.766C320.539 17.1016 320.891 14.2188 320.891 11.125H304.25V15.3438H315.781C315.641 16.7031 315.383 17.9922 315.008 19.2344L302.375 19.8906L303.078 24.1562L313.25 23.0547C311.094 26.4531 307.531 29.3125 302.094 31.6094ZM307.25 45.9062L309.359 49.9375C316.062 48.8828 321.312 45.7891 323.984 41.5C326.609 45.7891 331.883 48.8828 338.609 49.9375L340.625 45.9062C332.07 44.7109 326.516 39.9297 326.516 34.9375V33.8594H321.406V34.9375C321.383 39.9297 315.852 44.7109 307.25 45.9062ZM350.797 35.5938V36.0156H356.281V35.5938C356.328 32.0781 357.453 30.4609 360.172 28.7969C363.219 26.9922 365.117 24.5078 365.141 20.6875C365.117 15.1094 360.781 11.5938 354.453 11.5938C348.664 11.5938 343.977 14.8047 343.812 21.1094H349.672C349.836 17.9688 352.086 16.4688 354.406 16.4688C356.961 16.4688 359.023 18.1562 359 20.7812C359.023 23.125 357.477 24.6953 355.484 25.9844C352.531 27.7891 350.844 29.6172 350.797 35.5938ZM350.047 42.7188C350.023 44.7344 351.688 46.375 353.703 46.375C355.648 46.375 357.312 44.7344 357.312 42.7188C357.312 40.75 355.648 39.1328 353.703 39.1094C351.688 39.1328 350.023 40.75 350.047 42.7188Z" fill="black"/>
<path d="M3.55859 95.5H3.44141V90.1328H11.1055V88.9141H3.44141V84.3438H11.6445V83.0781H1.96484V96.7422H3.55859C7.56641 96.7305 10.2383 96.6133 13.4961 96.0391L13.3086 94.7969C10.1445 95.3594 7.50781 95.5 3.55859 95.5ZM15.4648 101.828H16.9414V90.8828H20.5039V89.6172H16.9414V81.1562H15.4648V101.828ZM26.7617 82.3047C23.9727 82.293 22.0273 84.1914 22.0508 86.9453C22.0273 89.6875 23.9727 91.5859 26.7617 91.5625C29.5039 91.5859 31.4727 89.6875 31.4727 86.9453C31.4727 84.1914 29.5039 82.293 26.7617 82.3047ZM23.3867 86.9453C23.3633 84.9883 24.8164 83.5352 26.7617 83.5234C28.6836 83.5352 30.1133 84.9883 30.1367 86.9453C30.1133 88.8789 28.6836 90.332 26.7617 90.3203C24.8164 90.332 23.3633 88.8789 23.3867 86.9453ZM25.7773 101.523H39.2539V93.3906H37.8242V96.0625H27.2539V93.3906H25.7773V101.523ZM27.2539 100.305V97.3047H37.8242V100.305H27.2539ZM33.3477 92.2656H34.7539V87.3203H37.8477V92.4297H39.2539V81.1562H37.8477V86.0781H34.7539V81.5547H33.3477V92.2656ZM59.4805 81.1562H58.0039V101.852H59.4805V81.1562ZM43.332 89.9453C43.332 94.3047 45.5 97.0938 48.5586 97.0938C51.5938 97.0938 53.7852 94.3047 53.7852 89.9453C53.7852 85.5977 51.5938 82.8086 48.5586 82.7969C45.5 82.8086 43.332 85.5977 43.332 89.9453ZM44.7617 89.9453C44.7617 86.4883 46.3203 84.1211 48.5586 84.1094C50.7969 84.1211 52.3438 86.4883 52.332 89.9453C52.3438 93.4023 50.7969 95.7812 48.5586 95.7812C46.3203 95.7812 44.7617 93.4023 44.7617 89.9453ZM74.5508 82.7969C71.5273 82.8086 69.418 85.5977 69.4414 89.9453C69.418 94.3047 71.5273 97.0938 74.5508 97.0938C77.5859 97.0938 79.6953 94.3047 79.707 89.9453C79.6953 85.5977 77.5859 82.8086 74.5508 82.7969ZM70.8242 89.9453C70.8242 86.4883 72.3594 84.1211 74.5508 84.1094C76.7773 84.1211 78.2891 86.4883 78.3008 89.9453C78.2891 93.4023 76.7773 95.7812 74.5508 95.7812C72.3594 95.7812 70.8242 93.4023 70.8242 89.9453ZM83.4805 101.828H84.957V90.8359H88.5195V89.5703H84.957V81.1562H83.4805V101.828ZM106.777 81.1562H105.301V96.1797H106.777V81.1562ZM91.1211 92.0781H92.7617C96.7109 92.0898 99.6758 91.8438 103.051 91.1641L102.816 89.875C99.582 90.6016 96.6406 90.8125 92.7617 90.7891H92.6211V82.7031H91.1211V92.0781ZM93.3477 101.336H107.457V100.094H94.8242V94.7266H93.3477V101.336ZM132.23 81.1562H130.754V101.852H132.23V90.7891H135.793V89.5H132.23V81.1562ZM117.113 84.3906H124.988V89.0781H117.16V96.7891H118.777C122.891 96.7773 125.633 96.625 128.926 96.0156L128.762 94.7734C125.539 95.3828 122.832 95.5234 118.777 95.5234H118.637V90.3438H126.465V83.125H117.113V84.3906ZM154.027 81.1562H152.551V101.852H154.027V81.1562ZM137.879 89.9453C137.879 94.3047 140.047 97.0938 143.105 97.0938C146.141 97.0938 148.332 94.3047 148.332 89.9453C148.332 85.5977 146.141 82.8086 143.105 82.7969C140.047 82.8086 137.879 85.5977 137.879 89.9453ZM139.309 89.9453C139.309 86.4883 140.867 84.1211 143.105 84.1094C145.344 84.1211 146.891 86.4883 146.879 89.9453C146.891 93.4023 145.344 95.7812 143.105 95.7812C140.867 95.7812 139.309 93.4023 139.309 89.9453ZM174.816 82.3984H159.605V83.6641H162.957V89.6172H159.652V90.8594H174.77V89.6172H171.465V83.6641H174.816V82.3984ZM157.777 94.75H166.473V101.805H167.949V94.75H176.691V93.4844H157.777V94.75ZM164.434 89.6172V83.6641H170.035V89.6172H164.434ZM188.855 83.2656H179.457V96.4844H188.855V83.2656ZM180.887 95.2656V84.4844H187.402V95.2656H180.887ZM192.98 101.828H194.457V90.8359H198.02V89.5703H194.457V81.1562H192.98V101.828ZM216.816 81.1562H215.41V95.2891H216.816V81.1562ZM199.473 87.3438L199.754 88.6328L206.059 87.9766C204.934 90.2031 202.848 92.0664 199.59 93.4141L200.34 94.5391C203.785 93.0625 206.012 91.0234 207.266 88.5859H211.379V93.4375H212.809V81.5547H211.379V87.3203H207.816C208.309 85.9609 208.543 84.4961 208.543 82.9609H200.48V84.2031H207.078C207.02 85.1289 206.832 86.0195 206.539 86.8633L199.473 87.3438ZM201.957 100.562L202.566 101.734C205.531 101.172 208.73 99.5078 209.973 97.0234C211.215 99.5078 214.414 101.172 217.402 101.734L217.988 100.562C214.648 100.012 210.699 97.75 210.699 94.7969V94.0234H209.246V94.7969C209.234 97.75 205.297 100.012 201.957 100.562ZM229.426 81.5312C224.879 81.5312 222.184 82.8086 222.184 85.1172C222.184 87.4609 224.879 88.75 229.426 88.75C233.984 88.75 236.668 87.4609 236.668 85.1172C236.668 82.8086 233.984 81.5312 229.426 81.5312ZM220.027 91.5156H238.871V90.2969H220.027V91.5156ZM222.348 94.6562H234.957V96.7656H222.418V101.57H237.043V100.352H223.848V97.9141H236.387V93.4844H222.348V94.6562ZM223.707 85.1172C223.707 83.6055 225.887 82.6797 229.426 82.6797C232.988 82.6797 235.168 83.6055 235.168 85.1172C235.168 86.6875 232.988 87.5898 229.426 87.6016C225.887 87.5898 223.707 86.6875 223.707 85.1172ZM253.285 86.9922V83.0078H251.832V86.9922C251.809 90.7422 249.16 94.7031 246.301 96.1797L247.262 97.3516C249.547 96.0859 251.656 93.3555 252.57 90.2148C253.508 93.1797 255.594 95.7344 257.855 96.9531L258.77 95.7578C255.957 94.3633 253.262 90.6133 253.285 86.9922ZM260.996 101.828H262.473V90.9766H266.035V89.6641H262.473V81.1562H260.996V101.828ZM286.145 91.5156H281.34V88.4336C283.004 87.8008 283.941 86.7578 283.941 85.3516C283.941 82.9492 281.188 81.5664 276.699 81.5781C272.211 81.5664 269.457 82.9492 269.457 85.3516C269.457 86.7695 270.406 87.8242 272.105 88.457V91.5156H267.301V92.7578H286.145V91.5156ZM269.598 98.125C269.598 100.469 272.258 101.77 276.723 101.781C281.141 101.77 283.801 100.469 283.801 98.125C283.801 95.793 281.141 94.4922 276.723 94.5156C272.258 94.4922 269.598 95.793 269.598 98.125ZM270.98 85.3516C270.957 83.7461 273.184 82.75 276.699 82.75C280.203 82.75 282.441 83.7461 282.441 85.3516C282.441 86.9805 280.203 87.9531 276.699 87.9531C273.184 87.9531 270.957 86.9805 270.98 85.3516ZM271.098 98.125C271.098 96.6133 273.254 95.6758 276.723 95.6641C280.156 95.6758 282.312 96.6133 282.324 98.125C282.312 99.6602 280.156 100.598 276.723 100.586C273.254 100.598 271.098 99.6602 271.098 98.125ZM273.582 91.5156V88.8555C274.496 89.0312 275.539 89.125 276.699 89.125C277.895 89.125 278.961 89.0312 279.887 88.8438V91.5156H273.582ZM303.957 81.1562H302.48V101.828H303.957V91.0703H307.52V89.8047H303.957V81.1562ZM287.926 85.7969H300.277V84.5547H294.91V81.3672H293.434V84.5547H287.926V85.7969ZM289.215 92.3828C289.203 95.1602 291.301 97.0703 294.207 97.0703C297.113 97.0703 299.199 95.1602 299.199 92.3828C299.199 89.6172 297.113 87.6953 294.207 87.6953C291.301 87.6953 289.203 89.6172 289.215 92.3828ZM290.621 92.3828C290.609 90.4141 292.133 88.9492 294.207 88.9375C296.27 88.9492 297.781 90.4141 297.793 92.3828C297.781 94.3516 296.27 95.8047 294.207 95.7812C292.133 95.8047 290.609 94.3516 290.621 92.3828ZM325.473 87.6016H312.863V81.9062H311.41V88.8438H325.473V87.6016ZM308.762 93.0625H327.676V91.8438H308.762V93.0625ZM311.316 101.312H325.59V100.047H312.77V95.3125H311.316V101.312ZM352.285 81.1562H350.809V101.852H352.285V81.1562ZM336.137 89.9453C336.137 94.3047 338.305 97.0938 341.363 97.0938C344.398 97.0938 346.59 94.3047 346.59 89.9453C346.59 85.5977 344.398 82.8086 341.363 82.7969C338.305 82.8086 336.137 85.5977 336.137 89.9453ZM337.566 89.9453C337.566 86.4883 339.125 84.1211 341.363 84.1094C343.602 84.1211 345.148 86.4883 345.137 89.9453C345.148 93.4023 343.602 95.7812 341.363 95.7812C339.125 95.7812 337.566 93.4023 337.566 89.9453ZM374.949 93.0156H356.035V94.2578H361.121V101.828H362.645V94.2578H368.316V101.828H369.793V94.2578H374.949V93.0156ZM358.262 86.5C358.25 89.2305 361.145 90.9414 365.457 90.9297C369.77 90.9414 372.652 89.2305 372.652 86.5C372.652 83.7578 369.77 82.0234 365.457 82.0234C361.145 82.0234 358.25 83.7578 358.262 86.5ZM359.762 86.5C359.75 84.543 362.082 83.2422 365.457 83.2422C368.82 83.2422 371.141 84.543 371.152 86.5C371.141 88.4336 368.82 89.7227 365.457 89.7109C362.082 89.7227 359.75 88.4336 359.762 86.5Z" fill="#757575"/>
</svg>
