<svg width="1920" height="225" viewBox="0 0 1920 225" fill="none" xmlns="http://www.w3.org/2000/svg">
<rect x="0.5" y="0.5" width="1919" height="224" fill="#2D2D2D" stroke="#2D2D2D"/>
<path d="M768.23 98.1719H752.02V122.078H754.91C761.473 122.117 765.77 121.922 770.652 120.984L770.145 116.961C765.965 117.723 762.234 117.957 757.059 118.016V102.234H768.23V98.1719ZM766.473 111.414H775.418V130.672H780.379V95.0469H775.418V107.352H766.473V111.414ZM813.113 95.0469H808.113V112.781H813.113V106.609H817.918V102.508H813.113V95.0469ZM785.965 112.078H803.035V97.2734H785.965V112.078ZM788.113 129.656H790.066C793.465 129.656 796.336 129.52 799.324 128.445L798.621 124.578C796.785 125.164 794.93 125.457 792.957 125.594V115.75H788.113V129.656ZM790.887 108.172V101.141H798.113V108.172H790.887ZM798.113 119.695H816.004V116.102H809.52V113.523H804.676V116.102H798.113V119.695ZM800.184 125.594C800.145 128.641 802.918 130.555 807.02 130.555C811.102 130.555 813.914 128.641 813.934 125.594C813.914 122.488 811.102 120.594 807.02 120.594C802.938 120.594 800.145 122.488 800.184 125.594ZM804.598 125.594C804.578 124.5 805.613 123.973 807.02 123.953C808.445 123.973 809.461 124.5 809.48 125.594C809.461 126.688 808.445 127.234 807.02 127.234C805.613 127.234 804.578 126.688 804.598 125.594ZM851.902 113.211H819.48V117.195H851.902V113.211ZM822.723 103.406C822.723 107.957 827.859 110.75 835.691 110.75C843.465 110.75 848.602 107.957 848.621 103.406C848.602 98.875 843.465 96.1016 835.691 96.1406C827.859 96.1016 822.723 98.875 822.723 103.406ZM823.387 129.969H848.23V125.984H828.387V119.578H823.387V129.969ZM827.918 103.406C827.879 101.258 830.75 100.086 835.691 100.047C840.594 100.086 843.465 101.258 843.465 103.406C843.465 105.613 840.594 106.727 835.691 106.727C830.75 106.727 827.879 105.613 827.918 103.406ZM895.809 122.352H881.824V114.305H876.863V122.352H863.27V126.336H895.809V122.352ZM864.051 111.297L866.16 115.438C872.371 114.324 877 110.945 879.324 106.531C881.668 110.965 886.316 114.305 892.566 115.438L894.676 111.297C886.551 110.047 881.961 104.695 881.98 99.6172V97.0781H876.668V99.6172C876.629 104.637 872.098 110.047 864.051 111.297ZM911.473 100.086V96.6875H906.277V100.086C906.277 104.617 903.66 109.246 897.723 111.141L900.223 115.047C904.402 113.699 907.293 110.926 908.895 107.43C910.477 110.672 913.289 113.211 917.332 114.5L919.832 110.594C913.973 108.836 911.434 104.52 911.473 100.086ZM903.152 121.766H922.605V130.594H927.605V117.781H903.152V121.766ZM922.605 116.258H927.605V95.0469H922.605V116.258ZM974.168 122.391H960.301V115.828H970.535V97.3125H965.574V102.82H950.066V97.3125H945.066V115.828H955.34V122.391H941.629V126.453H974.168V122.391ZM950.066 111.844V106.805H965.574V111.844H950.066ZM1006.08 95.0469H1001.04V130.594H1006.08V95.0469ZM976.316 120.516L978.934 124.5C991.629 118.504 995.398 109.539 995.418 98.7578H978.23V102.664H990.34C989.539 110.555 985.496 116.18 976.316 120.516Z" fill="white"/>
</svg>
