<svg width="1920" height="250" viewBox="0 0 1920 250" fill="none" xmlns="http://www.w3.org/2000/svg">
<rect x="0.5" y="0.5" width="1919" height="249" fill="#2D2D2D" stroke="#2D2D2D"/>
<path d="M709.211 125.914H705.5V132.125C702.004 132.242 698.664 132.262 695.852 132.281L696.32 135.328C702.57 135.328 711.066 135.27 718.977 133.805L718.703 131.07C715.656 131.52 712.414 131.793 709.211 131.969V125.914ZM696.789 124.234L698.547 127.047C702.746 125.855 705.832 123.18 707.355 119.684C708.938 123.004 712.062 125.543 716.242 126.734L717.961 123.844C712.727 122.438 709.406 118.902 709.211 114.781H717.062V111.773H709.211V107.594H705.5V111.773H697.727V114.781H705.461C705.266 119.078 702.004 122.73 696.789 124.234ZM720.891 142.398H724.602V107.32H720.891V142.398ZM762.258 134.977H748.039V127.359H744.367V134.977H730.227V138.023H762.258V134.977ZM731.789 125.68L733.195 128.57C739.055 127.652 743.918 124.879 746.184 120.797C748.469 124.879 753.352 127.652 759.211 128.57L760.617 125.68C753.43 124.625 748.254 120.562 748.078 115.641H759.289V112.633H748.039V107.945H744.367V112.633H733.117V115.641H744.328C744.152 120.562 738.977 124.625 731.789 125.68ZM785.422 117.789V117.125H791.242V113.062H785.383V108.258H780.734V113.062H774.836V117.125H780.734V117.789C780.695 123.316 778.762 129.117 773.703 132.008L776.516 135.758C779.738 133.922 781.867 130.719 783.098 126.969C784.348 130.426 786.477 133.297 789.68 134.938L792.453 131.266C787.316 128.59 785.422 123.141 785.422 117.789ZM792.844 140.953H797.57V124.781H800.578V142.594H805.344V107.047H800.578V120.719H797.57V107.555H792.844V140.953ZM828.078 109.508H810.852V126.969H813.898C821.496 127.008 826.027 126.891 831.086 126.07L830.578 122.164C826.086 122.906 822.121 122.984 815.852 122.984V120.133H827.023V116.266H815.852V113.492H828.078V109.508ZM814.328 135.836C814.328 140.133 818.957 142.613 826.555 142.594C834.074 142.613 838.82 140.133 838.859 135.836C838.82 131.578 834.074 129.098 826.555 129.078C818.957 129.098 814.328 131.578 814.328 135.836ZM819.289 135.836C819.289 133.941 821.789 132.926 826.555 132.945C831.262 132.926 833.859 133.941 833.859 135.836C833.859 137.809 831.262 138.805 826.555 138.805C821.789 138.805 819.289 137.809 819.289 135.836ZM833.664 128.609H838.664V107.086H833.664V128.609ZM883.43 110.719H871.359V107.008H866.398V110.719H854.25V114.742H883.43V110.719ZM852.688 134.078H866.398V142.633H871.359V134.078H885.227V130.016H852.688V134.078ZM856.633 122.203C856.613 126.129 861.203 128.277 868.898 128.297C876.535 128.277 881.145 126.129 881.164 122.203C881.145 118.258 876.535 116.109 868.898 116.109C861.203 116.109 856.613 118.258 856.633 122.203ZM861.789 122.203C861.789 120.582 864.133 119.801 868.898 119.781C873.605 119.801 875.969 120.582 875.969 122.203C875.969 123.824 873.605 124.586 868.898 124.586C864.133 124.586 861.789 123.824 861.789 122.203ZM926.398 107.32H922.727V121.188H914.875V124.234H922.727V142.32H926.398V107.32ZM897.18 132.906L899.133 135.836C911.008 129.957 914.953 121.207 914.992 111.07H898.742V114.039H911.223C910.578 122.066 906.457 128.375 897.18 132.906ZM946.125 110.992H932.883V114.039H942.531V120.602H932.922V134.156H935.305C939.66 134.117 943.566 134 948.43 133.141L948.117 130.172C943.898 130.836 940.305 131.012 936.516 131.031V123.648H946.125V110.992ZM950.383 140.523H953.781V123.961H958.312V142.32H961.867V107.32H958.312V120.953H953.781V108.023H950.383V140.523ZM998.43 135.016H984.172V128.883H995.344V125.836H973.977V120.719H994.523V109.781H970.227V112.828H990.852V117.75H970.305V128.883H980.5V135.016H966.398V138.141H998.43V135.016ZM1039.72 107.32H1036.01V142.398H1039.72V107.32ZM1011.95 122.203C1011.95 129.762 1015.71 134.527 1021.01 134.508C1026.2 134.527 1030.03 129.762 1030.03 122.203C1030.03 114.723 1026.2 109.957 1021.01 109.938C1015.71 109.957 1011.95 114.723 1011.95 122.203ZM1015.54 122.203C1015.52 116.715 1017.75 113.277 1021.01 113.258C1024.21 113.277 1026.44 116.715 1026.44 122.203C1026.44 127.77 1024.21 131.188 1021.01 131.188C1017.75 131.188 1015.52 127.77 1015.54 122.203ZM1054.8 109.938C1049.58 109.957 1045.89 114.723 1045.93 122.203C1045.89 129.762 1049.58 134.527 1054.8 134.508C1059.68 134.527 1063.21 130.289 1063.62 123.453H1070.81V142.398H1074.48V107.32H1070.81V120.445H1063.59C1063.02 113.98 1059.56 109.957 1054.8 109.938ZM1049.45 122.203C1049.46 116.715 1051.63 113.277 1054.8 113.258C1057.96 113.277 1060.13 116.715 1060.15 122.203C1060.13 127.77 1057.96 131.188 1054.8 131.188C1051.63 131.188 1049.46 127.77 1049.45 122.203ZM1092.77 117.633V113.922H1100.73V110.836H1081.01V113.922H1089.02V117.633C1088.98 123.668 1085.07 130.23 1079.8 132.711L1081.95 135.641C1086.03 133.648 1089.31 129.391 1090.93 124.391C1092.55 129.059 1095.83 132.926 1099.95 134.742L1101.98 131.852C1096.59 129.547 1092.75 123.492 1092.77 117.633ZM1105.15 142.32H1108.86V107.32H1105.15V142.32ZM1142.77 117.555H1122.34V108.57H1118.66V120.523H1142.77V117.555ZM1114.41 127.906H1146.44V124.938H1114.41V127.906ZM1118.39 141.5H1143V138.453H1122.1V131.227H1118.39V141.5ZM1174.99 129.117C1167.71 129.117 1163.23 131.539 1163.23 135.68C1163.23 139.879 1167.71 142.301 1174.99 142.32C1182.2 142.301 1186.59 139.879 1186.59 135.68C1186.59 131.539 1182.2 129.117 1174.99 129.117ZM1160.15 125.758H1176.63V109.508H1172.96V114.547H1163.78V109.508H1160.15V125.758ZM1163.78 122.789V117.477H1172.96V122.789H1163.78ZM1166.95 135.68C1166.93 133.355 1169.93 132.047 1174.99 132.047C1180.01 132.047 1182.98 133.355 1182.96 135.68C1182.98 138.023 1180.01 139.352 1174.99 139.352C1169.93 139.352 1166.93 138.023 1166.95 135.68ZM1182.57 128.219H1186.28V119.039H1191.36V115.875H1186.28V107.32H1182.57V128.219ZM1206.09 112.359V109H1202.3V112.359C1202.28 117.359 1199 122.105 1193.55 124.039L1195.42 126.93C1199.56 125.445 1202.65 122.34 1204.21 118.434C1205.79 122.086 1208.82 124.938 1212.88 126.344L1214.76 123.414C1209.35 121.637 1206.07 117.203 1206.09 112.359ZM1198.66 133.023H1218.66V142.32H1222.38V130.016H1198.66V133.023ZM1218.66 128.336H1222.38V107.32H1218.66V128.336Z" fill="white"/>
<circle cx="787.5" cy="87.5" r="4.5" fill="white"/>
<circle cx="827.5" cy="87.5" r="4.5" fill="white"/>
<circle cx="867.5" cy="87.5" r="4.5" fill="white"/>
</svg>
